<?xml version="1.0" encoding="utf-8"?>
<!DOCTYPE svg PUBLIC "-//W3C//DTD SVG 20010904//EN" "http://www.w3.org/TR/2001/REC-SVG-20010904/DTD/svg10.dtd">
<svg version="1.0" xmlns="http://www.w3.org/2000/svg" width="627px" height="856px" viewBox="0 0 627 856" preserveAspectRatio="xMidYMid meet">
 <g fill="#ff7f27">
  <path d="M57.2 834.8 c-10.1 -1.5 -16.2 -6 -14.8 -10.6 0.6 -1.7 9.8 -6.2 12.8 -6.2 0.6 0 4.3 -1.5 8.2 -3.4 3.9 -1.9 10.7 -5 15 -6.8 7.9 -3.3 17.4 -10.7 14.8 -11.6 -4.2 -1.4 -3.1 -8.2 1.3 -8.2 1.3 0 4.4 0.9 7 2 3.8 1.6 6.9 2 16.3 2 l11.7 0 3.9 -8.7 c2.2 -5 4.2 -11.3 4.6 -14.8 0.4 -3.4 1.7 -7.9 2.8 -10.1 3.5 -6.6 22.7 -25.3 31.2 -30.3 9 -5.2 15.7 -11 30.7 -26.1 10.4 -10.5 11.7 -12.2 16.4 -22 4.7 -9.8 6 -14.1 7.2 -23.1 l0.5 -3.6 -17.6 -5.4 c-9.8 -2.9 -22.2 -7.1 -27.7 -9.2 -5.5 -2.1 -15.8 -5.9 -23 -8.4 -23.3 -8 -68.4 -33.2 -95 -53.1 -17.1 -12.8 -23 -19.9 -24.2 -29 -0.7 -4.9 2.3 -8.8 8 -10.3 2.3 -0.6 6.5 -2.2 9.3 -3.5 2.7 -1.3 9.3 -3.3 14.5 -4.3 11.3 -2.4 27.1 -7.7 35.4 -11.8 3.3 -1.7 7.8 -3.6 10 -4.3 2.2 -0.7 7.6 -2.8 11.9 -4.7 4.4 -1.9 11.8 -4.5 16.5 -5.9 4.7 -1.3 12 -3.8 16.2 -5.4 4.2 -1.6 10.7 -3.4 14.5 -4 12.3 -1.9 40.1 -10.1 51.5 -15.1 3.6 -1.6 6.9 -2.9 7.3 -2.9 0.4 0 3.8 -0.9 7.6 -2.1 5.1 -1.5 7 -2.6 7.8 -4.5 1.3 -2.8 4.8 -3.2 9.2 -0.9 l2.8 1.5 1.6 -4.8 c0.8 -2.6 2 -7.6 2.6 -11.2 2.4 -14.1 7.3 -25.4 13.5 -30.8 1.8 -1.7 3.8 -3.8 4.3 -4.8 0.6 -1.1 4.2 -5.5 8.1 -9.9 5 -5.7 8.5 -11 12.2 -18.5 6.3 -12.8 6.3 -12.9 8.9 -21 1.2 -3.6 3.7 -10 5.6 -14.3 3.9 -9 4.2 -11.7 1.4 -13.5 -1.1 -0.7 -2 -2.1 -2 -3.2 0 -1.6 3.3 -8.1 6.8 -13.6 0.4 -0.7 4 -6.3 8 -12.5 4.4 -6.9 7.9 -13.5 8.8 -16.9 0.8 -3 2.5 -9.1 3.9 -13.6 1.8 -5.8 2.5 -10.3 2.5 -16.5 0 -10.3 0.5 -12.4 3.4 -13.7 1.7 -0.7 2.2 -1.9 2.3 -5.1 0.1 -2.2 1.2 -6.2 2.4 -8.8 1.3 -2.7 2.8 -6.8 3.5 -9.3 3.4 -12.3 6.7 -18.2 14.7 -25.9 11 -10.8 13.5 -11.6 23.2 -8 3.4 1.3 5.5 2.6 5.5 3.6 0 2.1 7.8 1.3 18.1 -1.7 4.1 -1.3 8.2 -2.3 9.2 -2.4 2.4 -0.1 2.4 -0.6 0.1 -4.1 -2.8 -4.3 -3.3 -34.5 -0.8 -49.4 l1.7 -10.4 -3.2 -2.9 c-1.8 -1.6 -3.6 -2.6 -4.2 -2.3 -0.5 0.4 -0.9 0.3 -0.8 -0.2 0.1 -0.4 0.1 -1.5 0 -2.2 -0.1 -1.2 -0.4 -1.2 -1.3 -0.3 -1.8 1.8 -4.2 1.4 -6.6 -1 -2.3 -2.5 -3.9 -7.8 -5.2 -17.3 -1 -6.6 -2.5 -15.6 -3.9 -22.5 -2.4 -11.7 -2.4 -11.4 -0.3 -14 2 -2.4 2.5 -2.5 14.9 -2.6 16.4 0 16 0 18.8 -2.9 3.5 -3.4 3.4 -10.2 -0.2 -17.2 -2.2 -4.4 -2.4 -5.7 -1.5 -7.7 1.7 -3.7 6.6 -4.7 15.4 -3 13.8 2.6 19.6 1.6 35.3 -6.4 11.6 -6 27.3 -8.5 53.1 -8.6 l19 -0.1 3.6 2.7 c4.5 3.4 8 9.4 10.7 18.2 2.7 8.6 2.7 17.5 0.1 26.8 -1.3 4.8 -2 10.4 -2 16.3 0 7.3 -0.5 9.9 -2.4 14 -1.3 2.8 -3.3 5.8 -4.4 6.9 -3.3 2.8 -3.7 7.3 -1.2 12.8 1.5 3.5 1.8 5.3 1.1 6.6 -2.3 4.4 -3.8 4.7 -19.5 4.7 -18.3 0 -20.5 0.9 -23.9 9.6 -2.9 7.4 -2.8 21.3 0.2 28.3 1.5 3.4 2 5.9 1.5 8.3 -0.8 4.3 3.4 14.5 4.8 11.8 1.7 -2.9 6.5 -1.8 10.7 2.4 4.6 4.6 8.8 14.9 13 32 6.2 24.5 6.2 25.4 6.4 78.5 0.2 54.6 0.6 51.5 -6.9 57.2 -2 1.6 -4.8 4 -6.1 5.3 -2.3 2.4 -8.8 21 -13.8 39.5 -2.7 10 -4.4 13.1 -8.6 15.4 -2.7 1.6 -2.9 2 -2.9 8.6 0 6.6 -0.2 7 -3.7 10.8 -2.2 2.2 -6.9 5.4 -10.8 7.2 -7.7 3.6 -12.1 7.9 -16 15.6 -2 4 -5.4 15.2 -5.5 18.2 0 0.3 2.8 1.6 6.3 2.8 12.6 4.3 16.4 7.6 12.3 10.6 -1.4 1 -3.3 0.5 -10.7 -2.6 -7.8 -3.4 -8.9 -3.6 -8.9 -2 0 0.9 -2 8.6 -4.3 16.9 -2.4 8.3 -4 15.1 -3.6 15.1 0.4 0 1.1 -0.4 1.4 -1 1.1 -1.7 3.5 -1.1 3.5 0.9 0 2.4 -1.8 3.8 -5.4 4.3 -2.3 0.2 -3.4 1.3 -5.4 5.2 -1.6 3 -2.5 6.2 -2.4 8.6 0.2 4.2 -1.7 7 -4.7 7 -2.3 0 -3.7 -1.7 -4.5 -5.6 -0.5 -2.2 -1.7 -3.6 -4.4 -5 -2 -1 -4 -2 -4.3 -2.1 -0.3 -0.2 -1.1 2.4 -1.7 5.9 -0.6 3.4 -2.2 8.5 -3.6 11.2 -1.3 2.8 -3.5 7.7 -5 11 -1.4 3.2 -4.8 8.9 -7.5 12.5 -2.6 3.6 -5.6 8.3 -6.6 10.4 -1 2.1 -3.7 5.4 -6.2 7.4 -2.4 2 -6.5 6.5 -9.1 10 -2.7 3.8 -6.2 7.3 -8.4 8.4 -2 1 -4.5 3.1 -5.5 4.5 -1 1.4 -3.4 4.5 -5.4 6.8 -3.4 4 -3.5 4.2 -1.7 5.9 1.2 1.1 1.6 2.5 1.2 4.1 -0.5 2.1 0.3 2.6 10 6.8 9.7 4.3 10.8 4.5 14.8 3.6 5.5 -1.3 16.8 -0.4 20.7 1.7 7 3.5 7.5 8.8 1.4 15 -6.5 6.7 -24.8 20.8 -30 23.1 -2.8 1.3 -11.1 5.9 -18.5 10.2 -16.5 9.8 -17 10.1 -30.7 15.6 -6.1 2.5 -14.6 6.3 -18.8 8.5 -4.3 2.1 -11.7 5.3 -16.5 7.1 -5.6 2.1 -8.5 3.7 -8.1 4.5 0.8 2.3 -1.6 8.9 -5.7 15.5 -2.2 3.6 -4.9 8.4 -6 10.7 -2.1 4.3 -12.3 20.2 -18.2 28.3 -2 2.9 -3.1 5.4 -3 7.1 0.4 2.9 -1 4.3 -5.3 5.3 -6.7 1.6 -13.1 9.3 -16.1 19.1 -1.2 4.3 -1.2 4.5 0.9 5.6 3.3 1.7 6.8 5.1 7.8 7.6 1.2 3.3 -0.8 8 -4.4 10.2 -3.1 1.8 -7 1.9 -102.7 2.3 -54.7 0.2 -101.9 0.1 -104.8 -0.4z m209.5 -247.5 c2.8 -3.8 6 -8.3 7.1 -10.2 2.2 -3.7 12.8 -16.2 22.8 -27 7.8 -8.5 12.6 -16.9 11.8 -20.9 -0.6 -2.9 -0.7 -3 -4.3 -2 -2 0.6 -12 4.3 -22.3 8.3 -27.4 10.8 -33.6 12.6 -45.3 13.1 -5.5 0.3 -11.4 0.7 -13.2 1 -3.7 0.5 -3.7 0.4 1.2 10.9 1.8 3.9 3.8 9.3 4.5 12.2 1.3 5.6 0.5 4.9 16 14.3 4.5 2.7 13.6 6.6 16.1 6.9 0.3 0.1 2.8 -2.9 5.6 -6.6z m241.8 -231.9 c4.4 -1.4 10.1 -3.7 12.7 -5 l4.8 -2.4 0 -7.4 c0 -7 -0.2 -7.5 -5.4 -16.2 -3 -4.9 -5.8 -8.9 -6.3 -8.9 -0.4 0 -1.1 2.3 -1.4 5 -0.4 2.8 -2 7.5 -3.7 10.5 -1.6 3 -3.3 7.1 -3.7 9 -0.4 1.9 -2.3 6.5 -4.1 10.2 -1.9 3.7 -3.4 7 -3.4 7.3 0 1 2.6 0.5 10.5 -2.1z"/>
 </g>
 <g fill="#fcfcfc">
  <path d="M57.2 834.8 c-10.1 -1.5 -16.2 -6 -14.8 -10.6 0.6 -1.7 9.8 -6.2 12.8 -6.2 0.6 0 4.3 -1.5 8.2 -3.4 3.9 -1.9 10.7 -5 15 -6.8 7.9 -3.3 17.4 -10.7 14.8 -11.6 -4.2 -1.4 -3.1 -8.2 1.3 -8.2 1.3 0 4.4 0.9 7 2 3.8 1.6 6.9 2 16.3 2 l11.7 0 3.9 -8.7 c2.2 -5 4.2 -11.3 4.6 -14.8 0.4 -3.4 1.7 -7.9 2.8 -10.1 3.5 -6.6 22.7 -25.3 31.2 -30.3 9 -5.2 15.7 -11 30.7 -26.1 10.4 -10.5 11.8 -12.3 16.4 -22 2.9 -6 5.5 -13.1 6.1 -16.5 1.8 -10.7 1.7 -10.5 4.1 -10.5 1.2 0 2.7 0.4 3.2 0.8 3.2 2.3 0 14.3 -7.7 28.8 -4.9 9.3 -7 12.2 -14.1 19 -4.5 4.3 -10.7 9.7 -13.6 11.9 -3 2.2 -7.3 5.6 -9.7 7.7 -2.4 2 -8.5 5.8 -13.6 8.5 -5.4 2.8 -10.8 6.5 -12.9 8.8 -18.4 20.1 -18.5 20.2 -19.9 32.5 -0.5 4.3 -2.1 10.6 -3.5 14 -1.4 3.4 -2.4 6.7 -2.2 7.3 0.2 0.7 4.4 1.1 11.8 1.1 l11.4 0.1 0 2.5 0 2.5 -12.6 -0.3 c-11.2 -0.2 -12.7 -0.1 -14.2 1.6 -1.6 1.7 -1.6 2 -0.2 3.2 0.9 0.7 2.8 1.3 4.3 1.2 1.5 0 11 -0.3 21.2 -0.5 31.3 -0.8 59 -2.8 81.5 -5.8 10 -1.3 27.3 -5.6 30.1 -7.4 3.7 -2.4 13.9 -15.7 18.4 -24 2.4 -4.4 5 -9.1 6 -10.5 2.7 -4.1 14 -27.7 14 -29.4 0 -2.6 -1.8 -2.8 -11.8 -0.7 -5.3 1.1 -15.4 2.5 -22.3 3.2 -15.8 1.4 -18.1 0.7 -19 -6 -0.8 -6.3 0.3 -11.3 3.8 -15.7 1.6 -2.1 4.2 -5.6 5.7 -7.6 1.5 -2.1 6.4 -6.5 10.9 -9.9 9.3 -7 13.7 -10.9 13.7 -12.1 0 -0.4 -2.2 -2.2 -5 -3.9 -7 -4.3 -6.2 -4.6 1.2 -0.5 6.1 3.4 6.2 3.4 8.7 1.7 1.4 -1 6.3 -3.7 10.7 -6 4.5 -2.3 11 -6.7 14.5 -9.7 3.5 -3.1 8.2 -6.5 10.3 -7.6 2.2 -1.1 6.5 -3.8 9.6 -5.9 3.2 -2.1 7.4 -4.6 9.4 -5.4 2 -0.9 6.4 -3.2 9.9 -5.3 3.4 -2.1 9.2 -5 12.8 -6.6 5.5 -2.3 8 -4.1 14.3 -10.9 7.5 -8.1 9.3 -9.9 18.2 -18.7 14.8 -14.6 18.7 -19.1 21.4 -24.5 1.6 -3.3 4.4 -8.2 6.1 -10.8 1.7 -2.6 4.2 -7.8 5.6 -11.5 1.3 -3.7 3.1 -8.3 3.8 -10.2 0.8 -1.9 1.4 -5.5 1.5 -8 0.1 -9 2.1 -11.5 6.3 -7.8 2.3 2.1 2.4 2.2 1 8.7 -0.7 3.6 -2.4 8.9 -3.7 11.6 -1.3 2.8 -3.5 7.6 -5 10.9 -1.4 3.2 -4.8 8.9 -7.5 12.5 -2.6 3.6 -5.6 8.3 -6.6 10.4 -1 2.1 -3.7 5.4 -6.2 7.4 -2.4 2 -6.5 6.5 -9.1 10 -2.7 3.8 -6.2 7.3 -8.4 8.4 -2 1 -4.5 3.1 -5.5 4.5 -1 1.4 -3.4 4.5 -5.4 6.8 -3.4 4 -3.5 4.2 -1.7 5.9 1.2 1.1 1.6 2.5 1.2 4.1 -0.5 2.1 0.3 2.6 10 6.8 9.7 4.3 10.8 4.5 14.8 3.6 5.5 -1.3 16.8 -0.4 20.7 1.7 7 3.5 7.5 8.8 1.4 15 -6.5 6.7 -24.8 20.8 -30 23.1 -2.8 1.3 -11.1 5.9 -18.5 10.2 -16.5 9.8 -17 10.1 -30.7 15.6 -6.1 2.5 -14.6 6.3 -18.8 8.5 -4.3 2.1 -11.7 5.3 -16.5 7.1 -5.6 2.1 -8.5 3.7 -8.1 4.5 0.8 2.3 -1.6 8.9 -5.7 15.5 -2.2 3.6 -4.9 8.4 -6 10.7 -2.1 4.3 -12.3 20.2 -18.2 28.3 -2 2.9 -3.1 5.4 -3 7.1 0.4 2.9 -1 4.3 -5.3 5.3 -6.7 1.6 -13.1 9.3 -16.1 19.1 -1.2 4.3 -1.2 4.5 0.9 5.6 3.3 1.7 6.8 5.1 7.8 7.6 1.2 3.3 -0.8 8 -4.4 10.2 -3.1 1.8 -7 1.9 -102.7 2.3 -54.7 0.2 -101.9 0.1 -104.8 -0.4z"/>
  <path d="M332.5 628.6 c-3.8 -1.2 -10.7 -4.2 -15.3 -6.5 -4.6 -2.3 -13.5 -6.2 -19.9 -8.6 -6.3 -2.5 -16.2 -7 -21.8 -10 -6.3 -3.4 -10.6 -5.2 -11 -4.5 -1 1.6 -3.5 1.2 -3.5 -0.6 0 -0.9 -2 -2.3 -4.7 -3.5 -6.5 -2.7 -17.7 -8.6 -23.9 -12.5 -4.4 -2.8 -5.3 -3.9 -6.3 -8 -1.3 -5.1 -4.5 -11.9 -6.8 -14.6 -0.8 -0.9 -2 -3.6 -2.8 -6.1 -2.3 -7.6 1.1 -9.7 16 -9.7 12.9 0 20.4 -1.6 47.8 -10.4 13 -4.2 24.4 -7.6 25.4 -7.5 1 0 -0.7 0.8 -3.7 1.8 -3 1 -13.6 5 -23.5 8.9 -25.2 9.8 -30.3 11.3 -42 11.8 -5.5 0.3 -11.4 0.7 -13.2 1 -3.7 0.5 -3.7 0.4 1.2 10.9 1.8 3.9 3.8 9.3 4.5 12.2 1 4.6 1.7 5.5 5.8 8.1 11.8 7.2 17.1 10 21.7 11.6 l4.9 1.6 2.3 -2.7 c1.3 -1.6 4.6 -6.2 7.4 -10.3 5.2 -7.7 14.8 -19.3 25.5 -30.9 7.6 -8.3 12.7 -17.1 11.8 -20.6 -0.8 -3.2 1.4 -8.5 3.5 -8.5 3.2 0 3.7 1.4 3.1 8.5 -0.7 9.2 -3.9 15.2 -12.6 23.6 -13.2 12.5 -36.2 40.8 -35 42.8 1.2 1.9 19.7 10 32.1 14.1 6.9 2.2 16.1 5.6 20.3 7.5 4.2 1.8 10.2 4.1 13.3 5 5.4 1.5 17.4 2.3 22.9 1.4 1.9 -0.3 2.6 0.1 2.8 1.7 0.2 1.2 -0.4 2.9 -1.3 3.8 -2.6 2.5 -16.2 2.1 -25 -0.8z"/>
  <path d="M133.8 619.9 c-2.1 -1.1 -3.8 -2.2 -3.8 -2.4 0 -0.3 1.8 0.4 4 1.5 2.2 1.1 4 2.3 4 2.5 0 0.7 0 0.7 -4.2 -1.6z"/>
  <path d="M116.8 610.9 c-3.2 -1.6 -5.8 -3.2 -5.8 -3.4 0 -0.3 2.7 0.8 6 2.5 3.3 1.7 6 3.2 6 3.5 0 0.7 0.2 0.8 -6.2 -2.6z"/>
  <path d="M98 600 c-19.9 -12.4 -25.8 -16.2 -34 -22.4 -17.7 -13.4 -23.5 -20.2 -24.7 -29.4 -0.7 -4.9 2.3 -8.8 8 -10.3 2.3 -0.6 6.5 -2.2 9.3 -3.5 2.7 -1.3 9.3 -3.3 14.5 -4.3 5.2 -1.1 13.4 -3.4 18.3 -5 4.9 -1.7 9.1 -2.9 9.3 -2.7 0.5 0.5 -18.6 6.8 -29.2 9.6 -4.4 1.2 -9.3 3 -11 4 -1.6 1 -5.6 2.8 -8.8 4 -3.8 1.4 -6.1 2.9 -6.6 4.3 -2.1 5.7 4.9 16.3 15.8 23.7 1.9 1.3 7.4 5.9 12.2 10.1 4.9 4.3 14.1 11.4 20.6 15.8 19.2 13.1 22.3 16.1 6.3 6.1z"/>
  <path d="M469.7 524.8 c0.3 -1.3 1 -2.9 1.6 -3.5 0.7 -1 -3.3 -1.3 -19.7 -1.3 -12.8 0 -20.6 -0.4 -20.6 -1 0 -0.6 8.2 -1.1 21.2 -1.2 l21.3 -0.3 2.2 -5.5 c2.5 -6.1 3.1 -5.5 0.8 0.9 -1.3 3.6 -0.6 5.7 1 3.1 1 -1.7 3.5 -1.1 3.5 0.8 0 2.6 -2 4.2 -5.2 4.2 -2 0 -3.1 0.8 -4.3 3 -1.8 3.6 -2.5 3.9 -1.8 0.8z"/>
  <path d="M385.5 513.1 c-5.5 -1.6 -12.4 -3.2 -15.4 -3.5 -3 -0.4 -7 -1.4 -8.9 -2.2 -1.9 -0.8 -4.7 -1.4 -6.3 -1.4 -1.5 0 -3 -0.4 -3.3 -0.9 -0.3 -0.5 -3.5 -1.4 -7 -2 -3.6 -0.6 -10.7 -2.4 -15.8 -4 -5.1 -1.5 -11.8 -3.1 -14.8 -3.5 -3 -0.4 -8.6 -2 -12.5 -3.5 -3.8 -1.5 -9.7 -3.1 -12.9 -3.5 -4 -0.4 -7.1 -1.5 -9.1 -3 -1.7 -1.4 -5.1 -3 -7.5 -3.6 -2.5 -0.7 -7 -2.5 -10.2 -4.1 -5.2 -2.6 -5.8 -2.7 -6.6 -1.2 -0.6 0.9 -2.9 2.2 -5.3 2.9 -2.4 0.7 -6.9 2 -9.9 2.8 -3 0.9 -7 2.3 -8.9 3.2 -6.4 3 -46.7 12.3 -53.9 12.5 -2 0 -6.6 0.8 -10.2 1.8 -3.6 1 -12.6 3.4 -20 5.4 -7.4 1.9 -16.6 4.7 -20.4 6.1 -3.7 1.4 -7.3 2.6 -8 2.6 -1.9 -0.1 10.3 -5 21.4 -8.7 5.8 -2 14.6 -5.1 19.6 -6.9 5.1 -1.8 12.3 -3.8 16 -4.4 12.3 -1.9 40.1 -10.1 51.5 -15.1 3.6 -1.6 6.9 -2.9 7.3 -2.9 0.4 0 3.8 -0.9 7.6 -2.1 5.1 -1.5 7 -2.6 7.8 -4.5 1.3 -2.8 4.8 -3.2 9.2 -0.9 2.2 1.1 3 1.2 3.3 0.2 0.3 -0.7 0.6 -0.5 0.6 0.5 0.1 1.7 5.9 5.8 8.3 5.8 0.8 0 2.2 -2.2 3.3 -5.2 1 -2.9 4.1 -10 6.8 -15.8 2.7 -5.8 5.6 -12.7 6.4 -15.5 1.7 -5.8 11 -23.9 15.5 -30.1 1.6 -2.3 2.7 -4.7 2.3 -5.3 -0.3 -0.6 1.1 -3.9 3.2 -7.4 4.4 -7.2 8.5 -15.7 11.8 -24.2 1.2 -3.3 3.7 -8.6 5.4 -11.9 1.7 -3.2 3.1 -6.4 3.1 -7.2 0 -0.8 0.5 -1.3 1.2 -1.2 1.8 0.4 11.1 -16 17.1 -30.5 13.7 -32.6 15.8 -38.1 16.8 -43 1.2 -5.7 3.2 -9.8 7.8 -16.7 1.7 -2.5 5 -9.2 7.2 -15 2.3 -5.8 5.2 -11.9 6.5 -13.6 2 -2.8 6.4 -13.9 6.4 -16.3 0 -0.5 0.5 -2.2 1.1 -3.8 l1.1 -2.8 1.9 4.3 c1.6 3.8 2.2 4.3 4.6 4 3.6 -0.4 4 -2.9 1.4 -9.9 -1.8 -4.6 -2.7 -5.7 -6.1 -7.2 -7.6 -3.3 -10.2 -2.2 -19.2 8 -4.5 5 -8.6 14.9 -10.2 24.4 -0.4 2.1 -1.3 4.2 -2.1 4.9 -0.8 0.6 -2.1 3.4 -3 6.1 -1.3 3.9 -2.1 4.9 -3.9 4.9 -1.2 0 -2.7 0.5 -3.3 1.1 -1.9 1.9 -0.4 -8 1.9 -13 1.2 -2.5 2.7 -6.6 3.4 -9.1 3.4 -12.3 6.7 -18.2 14.7 -25.9 11 -10.8 13.5 -11.6 23.2 -8 3.4 1.3 5.5 2.6 5.5 3.6 0 2.1 7.8 1.3 18.1 -1.7 4.1 -1.3 8.2 -2.3 9.2 -2.4 2.2 -0.1 2.2 -0.9 0 -4.3 -2.7 -4.1 -3.1 -34.9 -0.7 -49.2 l1.7 -10.4 -3.2 -2.9 c-1.8 -1.6 -3.6 -2.6 -4.2 -2.3 -0.5 0.4 -0.9 0.3 -0.8 -0.2 0.1 -0.4 0.1 -1.5 0 -2.3 -0.1 -1.1 -0.4 -1.1 -1.3 -0.2 -1.8 1.8 -4.2 1.4 -6.6 -1.1 -2.3 -2.4 -3.9 -7.7 -5.2 -17.2 -1 -6.6 -2.5 -15.6 -3.9 -22.5 -2.4 -11.7 -2.4 -11.4 -0.3 -14 2 -2.4 2.5 -2.5 14.9 -2.6 16.4 0 16 0 18.8 -2.9 3.5 -3.4 3.4 -10.2 -0.2 -17.2 -2.2 -4.4 -2.4 -5.7 -1.5 -7.7 1.7 -3.7 6.6 -4.7 15.4 -3 13.8 2.6 19.6 1.6 35.3 -6.4 11.6 -6 27.3 -8.5 53.1 -8.6 l19 -0.1 3.6 2.7 c4.5 3.4 8 9.4 10.7 18.2 2.7 8.6 2.7 17.5 0.1 26.8 -1.3 4.8 -2 10.4 -2 16.3 0 7.3 -0.5 9.9 -2.4 14 -1.3 2.8 -3.3 5.8 -4.4 6.9 -3.3 2.8 -3.7 7.3 -1.2 12.8 1.5 3.5 1.8 5.3 1.1 6.6 -2.3 4.4 -3.8 4.7 -19.5 4.7 -18.3 0 -20.5 0.9 -23.9 9.6 -2.9 7.4 -2.8 21.3 0.2 28.3 1.5 3.4 2 5.9 1.5 8.3 -0.8 4.3 3.4 14.5 4.8 11.8 1.7 -2.9 6.5 -1.8 10.7 2.4 4.6 4.6 8.8 14.9 13 32 6.2 24.5 6.2 25.4 6.4 78.5 0.2 54.6 0.6 51.5 -6.9 57.2 -2 1.6 -4.8 4 -6.1 5.3 -2.3 2.4 -8.8 21 -13.8 39.5 -2.7 10 -4.4 13.1 -8.5 15.4 -2.3 1.3 -3 2.5 -3.3 5.7 -0.2 2.5 -0.4 1.7 -0.4 -2.2 0 -4.6 0.3 -6.3 1.3 -6.3 3.5 0 6.3 -6.7 11.4 -27 6.6 -26.1 7.4 -28 14.4 -32.5 9.6 -6.1 9 -2.7 9.4 -52.9 l0.4 -44.1 -2.6 -11.5 c-5.2 -22.5 -14.8 -48.1 -19.9 -52.8 l-2.4 -2.3 -3.5 4.8 c-1.9 2.6 -4.9 7.7 -6.8 11.3 -1.9 3.6 -4.1 7.3 -4.9 8.3 -0.9 1.1 -2.7 3.9 -4.1 6.4 -1.9 3.6 -3.1 4.7 -5.3 4.9 -1.6 0.2 -4.5 1.3 -6.5 2.4 -2 1.2 -6.8 3.4 -10.5 4.9 -7.2 2.9 -10.6 6.3 -9.3 9.6 0.4 1.3 1.4 1.6 3.6 1.3 2.7 -0.4 3 -0.2 3 2.2 0 2.9 -3.5 12.2 -6.8 18.5 -1.2 2.2 -2.2 4.7 -2.2 5.6 0 0.9 -1.3 4.3 -2.9 7.5 -5 9.9 -14.4 34.7 -20.3 53.4 -2.5 8.1 -13.5 32.5 -19.8 43.9 -2.6 4.7 -5.2 10.9 -5.8 13.6 -1.2 5.6 -6.6 17.8 -8.7 19.5 -1.8 1.5 -5.2 10.3 -6.5 17.1 -0.6 3 -2.4 8.3 -4 11.6 -2.4 5.2 -3.3 6.2 -5.7 6.5 -2.4 0.3 -2.8 0.8 -3.1 3.7 -0.2 1.9 -0.9 4 -1.7 4.5 -0.7 0.6 -1.8 4 -2.5 7.6 -0.7 4.2 -3.1 10.2 -6.6 17 -6.9 13.2 -11.4 23.8 -11.4 26.8 0 3.4 4.9 7.5 12 10.2 3.3 1.2 6 2.4 6 2.6 0 0.8 -2.7 0.2 -12.5 -2.5z"/>
  <path d="M480.6 496.2 c2 -11.8 2.1 -14.3 0.5 -15.1 -0.9 -0.5 -5.4 -1.7 -10.1 -2.6 -4.7 -0.9 -11.9 -2.5 -16.1 -3.6 -4.2 -1 -10.1 -1.9 -13 -1.9 -8 0 -16.9 -1.7 -19 -3.6 -1.1 -1 -1.9 -3.1 -1.9 -4.8 0 -3.1 1.1 -5.1 7.2 -13.6 1.8 -2.5 3.9 -6.5 4.7 -9 0.7 -2.5 2.2 -6.6 3.2 -9.2 2 -5 2.6 -16.2 0.9 -17.3 -0.5 -0.3 -2.9 -0.9 -5.2 -1.3 -3.4 -0.6 -4.4 -1.2 -4.6 -3 -0.2 -1.2 0.3 -2.4 1 -2.7 2.6 -1 22.7 3.9 28.5 6.8 1.8 1 6.4 2.4 10.3 3.2 3.9 0.8 8.7 2.3 10.8 3.4 2 1 6.2 2.2 9.2 2.6 3 0.4 7.7 1.3 10.4 2.1 2.7 0.8 7.4 1.4 10.3 1.4 4.5 0 5.3 0.3 5.3 1.9 0 1 1 2.5 2.3 3.4 l2.2 1.5 -2 2.2 c-1.1 1.2 -5.1 3.7 -9 5.5 -7.7 3.5 -12.1 7.7 -16 15.5 -2 4 -5.4 15.2 -5.5 18.2 0 0.3 2.8 1.6 6.3 2.8 12.6 4.3 16.4 7.6 12.3 10.6 -1.4 1 -3.3 0.5 -10.6 -2.6 l-8.8 -3.8 -0.7 4.2 c-0.4 2.2 -1.3 5.9 -2.1 8.1 -1.2 3.6 -1.3 3.7 -0.8 0.7z"/>
  <path d="M278 424.5 c1.9 -1.9 3.6 -3.5 3.9 -3.5 0.3 0 -1 1.6 -2.9 3.5 -1.9 1.9 -3.6 3.5 -3.9 3.5 -0.3 0 1 -1.6 2.9 -3.5z"/>
  <path d="M463.7 405.3 c-1.4 -1.4 -0.6 -4 1.9 -6.4 4.3 -4 9.9 -17.2 10.9 -25.5 0.3 -3.1 2.3 -5.4 4.7 -5.4 2.5 0 3.4 2.6 1.8 5.6 -1.9 3.4 0.1 5.4 2.2 2.2 2.4 -3.7 4.9 -12.1 3.9 -13.1 -0.5 -0.5 -4.1 -0.4 -8.6 0.3 -7 1.1 -9.7 0.9 -8.3 -0.5 0.3 -0.3 4.7 -1.1 9.9 -1.8 l9.4 -1.2 3.2 -6.5 c1.7 -3.6 4.1 -10.1 5.3 -14.5 1.2 -4.4 3 -9.6 4 -11.5 1.7 -3.4 3.5 -16.9 3.1 -24.1 -0.1 -2.4 0.5 -4.1 1.9 -5.4 2.3 -2.1 5 -1.4 5 1.4 0 1.1 1.3 3.5 2.8 5.3 1.5 1.8 3.3 4.4 4 5.8 0.7 1.4 3.3 6.3 5.8 10.9 5 9.1 6.2 14.8 5 24.5 -0.5 3.7 -1.5 6.3 -2.8 7.5 -2.5 2.4 -18 7.6 -27.3 9.2 -3.8 0.7 -7.5 1.7 -8.1 2.3 -0.6 0.6 -2.4 4.4 -3.9 8.5 -2.4 6.3 -3.2 7.5 -6.1 8.7 -2.1 0.9 -3.4 2.1 -3.4 3.3 0 2.9 -5.9 13.8 -9.5 17.6 -3.1 3.3 -5.4 4.3 -6.8 2.8z m44.8 -49.9 c4.4 -1.4 10.1 -3.7 12.7 -5 l4.8 -2.4 0 -7.4 c0 -7 -0.2 -7.5 -5.4 -16.2 -3 -4.9 -5.8 -8.9 -6.3 -8.9 -0.4 0 -1.1 2.3 -1.4 5 -0.4 2.8 -2 7.5 -3.7 10.5 -1.6 3 -3.3 7.1 -3.7 9 -0.4 1.9 -2.3 6.5 -4.1 10.2 -1.9 3.7 -3.4 7 -3.4 7.3 0 1 2.6 0.5 10.5 -2.1z"/>
  <path d="M348.3 262.5 c0 -4.4 0.2 -6.1 0.4 -3.7 0.2 2.3 0.2 5.9 0 8 -0.2 2 -0.4 0.1 -0.4 -4.3z"/>
 </g>
 <g fill="#000000">
  <path d="M62 835 c-13.4 -1.6 -19.6 -5 -18.8 -10.2 0.2 -1.9 1.6 -2.7 7.8 -4.8 4.1 -1.4 10.4 -4 14 -5.7 3.6 -1.7 10.1 -4.6 14.4 -6.4 5.1 -2.2 9.4 -4.8 11.9 -7.4 3.9 -3.9 3.9 -4 1.8 -5.3 -2.6 -1.8 -2.7 -4.8 -0.3 -6.1 1.2 -0.6 3.4 -0.4 7.2 0.9 3.7 1.2 9.4 1.9 17.5 2.1 l11.9 0.4 3.9 -8 c2.4 -4.9 4.3 -10.5 4.8 -14.4 1.5 -10.2 4 -14.4 15.2 -25.8 7.2 -7.4 12.6 -11.9 18.5 -15.4 9 -5.3 24.6 -18.7 35.8 -30.8 5.4 -5.8 8.2 -10 11.8 -17.6 4.8 -9.9 7.5 -18.5 7.6 -23.7 0 -3.2 1.3 -4.2 4.4 -3.4 1.9 0.5 2.2 1.1 2 4.8 -0.2 6.5 -2.6 13.2 -8.8 24.9 -4.6 8.7 -7 11.9 -13.9 18.5 -4.5 4.3 -10.7 9.7 -13.6 11.9 -3 2.2 -7.3 5.6 -9.7 7.7 -2.4 2 -8.5 5.8 -13.6 8.5 -5.4 2.8 -10.8 6.5 -12.9 8.8 -18.4 20.1 -18.5 20.2 -19.9 32.5 -0.5 4.3 -2.1 10.6 -3.5 14 -1.4 3.4 -2.4 6.7 -2.2 7.3 0.2 0.7 4.4 1.1 11.8 1.1 l11.4 0.1 0 2.5 0 2.5 -12.6 -0.3 c-11.2 -0.2 -12.7 -0.1 -14.2 1.6 -1.6 1.7 -1.6 2 -0.2 3.2 0.9 0.7 2.8 1.3 4.3 1.2 1.5 0 11 -0.3 21.2 -0.5 24 -0.6 40 -1.5 58 -3.2 25.1 -2.4 27.1 -2.6 22.5 -1.5 -6.8 1.5 -42.3 6.8 -56.5 8.4 -7.4 0.8 -20.8 1.8 -29.6 2.2 -21.1 0.8 -25.4 -0.5 -25.4 -7.9 l0 -2.5 -10.8 0.6 c-7.3 0.3 -11.6 0.1 -13 -0.7 -1.9 -1 -2.2 -0.9 -2.2 0.8 0 2.4 -9 10.6 -12.7 11.6 -1.5 0.3 -4.7 1.5 -7 2.6 -2.4 1.1 -5.8 2.2 -7.6 2.6 -1.7 0.3 -5.9 1.9 -9.2 3.5 -3.3 1.5 -6.9 2.8 -8 2.9 -1.1 0 -3.5 0.6 -5.4 1.3 -2.9 1 -3.1 1.3 -1.8 2.5 3.4 2.7 24.4 5.1 52.2 5.8 14.8 0.3 25.9 1 24.5 1.3 -4 1.1 -55.8 1.9 -63 1z"/>
  <path d="M236.5 834.1 c-1.4 -0.7 1.6 -1 9.3 -1 12.2 -0.1 17.2 -1.4 19.2 -5.1 1.6 -3 0.4 -5.5 -3.6 -7.9 -1.9 -1.2 -3.7 -2.1 -3.8 -2.1 -0.2 0 -2.1 2.5 -4.1 5.5 -2.1 3 -4.4 5.5 -5.2 5.5 -2.1 0 -1.5 -1.5 2.7 -6.9 l4 -5 -3.8 -0.6 c-16.6 -2.7 -28.6 -6.6 -30.7 -9.9 -2.3 -3.7 0.7 -3.4 15.1 1.7 4 1.4 9.6 3 12.5 3.6 3 0.5 6.1 1.2 7 1.6 1.2 0.5 1.8 -0.2 2.3 -2.5 1.1 -5.5 6.4 -15.5 10.1 -19.1 6.6 -6.3 15.1 -17.4 19.5 -25.4 2.4 -4.4 5 -9.1 6 -10.5 3.2 -4.8 14 -27.9 14 -29.9 0 -2.6 -0.4 -2.6 -12.1 -0.2 -11.6 2.4 -32 4.5 -35.9 3.6 -4.2 -0.9 -5.1 -2.7 -5.2 -9.9 0 -6.7 0.5 -8 5.2 -13.6 2.5 -2.8 1.7 -1.1 -1.7 3.9 -1.7 2.4 -2.3 4.8 -2.3 8.5 0 5.7 1.5 8.6 4.5 8.8 9.8 0.4 46.2 -3.7 48.4 -5.5 0.7 -0.6 2.8 -1.2 4.5 -1.2 1.7 0 4.2 -0.4 5.6 -0.8 1.5 -0.4 1.3 -0.1 -0.7 0.8 -2.8 1.3 -3.3 2 -3.3 5 0 3.7 -3.6 11.8 -7.5 17 -1.2 1.7 -3.5 5.5 -5 8.5 -1.5 3 -3.7 6.9 -5 8.5 -1.2 1.7 -4.1 6.2 -6.5 10 -2.3 3.9 -5.4 8.3 -6.8 9.8 -2 2.1 -2.6 3.6 -2.4 6.1 0.3 3.2 0.1 3.4 -4.1 4.4 -5.8 1.5 -12.6 8.7 -15.6 16.5 -1.1 3.2 -2.1 6.3 -2.1 7 0 0.7 1.8 2.3 4 3.6 7 4.3 7.7 11 1.7 15.5 -2.5 1.8 -4.4 2.1 -14.5 2.3 -6.4 0.2 -12.6 -0.1 -13.7 -0.6z m43.3 -46.6 c0.2 -0.2 0.2 -1.4 0 -2.7 -0.3 -2.2 -0.4 -2.2 -2.7 1.1 l-2.4 3.3 2.4 -0.7 c1.3 -0.4 2.5 -0.9 2.7 -1z"/>
  <path d="M337 711.5 c3.6 -1.9 7 -3.4 7.5 -3.4 0.6 0 -1.9 1.5 -5.5 3.4 -3.6 1.9 -6.9 3.4 -7.5 3.4 -0.5 0 1.9 -1.5 5.5 -3.4z"/>
  <path d="M367.1 698.6 c1 -0.9 8.9 -4.6 8.9 -4.1 0 0.5 -7.5 4.5 -8.6 4.5 -0.4 0 -0.5 -0.2 -0.3 -0.4z"/>
  <path d="M318.5 691.2 c-3.3 -1.6 -8.2 -3.7 -11 -4.7 -2.7 -1.1 -7.8 -3.4 -11.3 -5.3 l-6.3 -3.4 -2.7 2.3 c-2.1 1.8 -2.3 1.9 -0.9 0.3 0.9 -1.1 1.7 -2.4 1.7 -2.7 0 -0.4 -2.2 -2.1 -5 -3.8 -7 -4.3 -6.2 -4.5 1.3 -0.4 5.1 2.8 6.6 3.2 7.7 2.2 0.8 -0.6 1.1 -0.8 0.7 -0.3 -0.6 0.8 12.5 7.5 14.9 7.6 0.5 0 4.8 1.5 9.4 3.4 6.7 2.7 8.9 3.2 10.6 2.4 2.4 -1.1 5.4 -0.5 5.4 1.1 0 1.2 -5.2 4.1 -7.2 4.1 -0.7 0 -4 -1.3 -7.3 -2.8z"/>
  <path d="M394 683.6 c0 -0.3 1.4 -1.2 3 -2.1 1.7 -0.9 3 -1.3 3 -1.1 0 0.3 -1.3 1.2 -3 2.1 -1.6 0.9 -3 1.3 -3 1.1z"/>
  <path d="M406.4 676.7 c11.5 -7.5 15.2 -10.3 22.4 -17.2 4.6 -4.3 8.8 -8.7 9.3 -9.8 1.5 -2.8 0 -5.7 -3.7 -7.3 -4.4 -1.8 -24 -1.8 -35.9 0 -14.8 2.3 -20.5 2.8 -20.5 1.8 0 -0.5 3.1 -1.2 6.8 -1.6 3.8 -0.4 9.3 -1.3 12.3 -2.1 3 -0.8 11.5 -1.8 18.9 -2.1 14.7 -0.7 19.5 0.1 23 3.9 2.5 2.6 2.5 5.3 0.1 9.3 -2.4 4 -27.4 24 -31.5 25.3 -2.6 0.8 -2.8 0.8 -1.2 -0.2z"/>
  <path d="M305.2 668.4 c3.7 -2 9.5 -6.1 13 -9.1 3.5 -3 8.1 -6.4 10.2 -7.5 2.2 -1.1 6.5 -3.8 9.6 -5.9 3.2 -2.1 7.4 -4.6 9.4 -5.4 2 -0.9 6.4 -3.2 9.9 -5.3 3.4 -2.1 9.2 -5 12.8 -6.6 5.5 -2.3 8 -4.1 14.3 -10.9 7.6 -8.2 9.1 -9.7 18 -18.6 15 -14.7 18.9 -19.2 21.6 -24.6 1.7 -3.3 4.6 -8.5 6.5 -11.5 1.9 -3 4 -7.3 4.6 -9.5 0.6 -2.2 2 -5.7 3.1 -7.9 1.1 -2.1 2.3 -7.3 2.8 -11.8 0.8 -8.5 2 -10.4 5.3 -8.6 3 1.6 1.9 12.9 -2.1 21.1 -1.7 3.4 -4.1 8.7 -5.5 11.7 -1.3 3 -4.4 8.2 -6.9 11.5 -2.5 3.3 -5.5 7.9 -6.6 10.1 -1.2 2.3 -4.1 5.9 -6.5 8 -2.5 2.2 -6.6 6.8 -9.3 10.3 -2.7 3.5 -6.5 7.1 -8.6 8.2 -2.2 1.1 -4.9 3.8 -6.4 6.2 -1.4 2.3 -4 5.4 -5.7 6.8 -3 2.6 -3 2.6 -0.9 3.8 1.2 0.6 2.2 2.1 2.2 3.2 0 2.1 -2.4 3.4 -8 4.3 -2 0.4 -6 2.2 -9 4.1 -3.2 2.1 -6.3 3.4 -7.4 3.1 -1 -0.3 -3.9 0.6 -6.5 2 -2.5 1.3 -8 4 -12.1 5.9 -12.3 5.7 -21.7 11.1 -28.3 16.1 -5.3 4 -17.5 10.5 -19.5 10.4 -0.4 0 2.3 -1.7 6 -3.6z"/>
  <path d="M332.5 628.6 c-3.8 -1.2 -10.7 -4.2 -15.3 -6.5 -4.6 -2.3 -13.5 -6.2 -19.9 -8.6 -6.3 -2.5 -16.2 -7 -21.8 -10 -6.3 -3.4 -10.6 -5.2 -11 -4.5 -1 1.6 -3.5 1.2 -3.5 -0.6 0 -0.9 -2 -2.3 -4.7 -3.5 -6.5 -2.7 -17.7 -8.6 -23.9 -12.5 -4.4 -2.8 -5.3 -3.9 -6.3 -8 -1.3 -5.1 -4.5 -11.9 -6.8 -14.6 -0.8 -0.9 -2 -3.6 -2.8 -6.1 -2.3 -7.6 1.1 -9.7 16 -9.7 12.8 0 20.7 -1.7 46.5 -10 12.2 -3.9 22.4 -6.9 22.8 -6.6 0.3 0.3 0 0.6 -0.7 0.6 -0.7 0 -11 3.8 -22.9 8.4 -26.1 10.1 -31.3 11.5 -46 12.3 -8.5 0.5 -11.5 1 -11.9 2 -0.3 0.8 1 4.7 3 8.6 2 4 4.1 9.5 4.8 12.2 1.5 6.2 3.5 8.5 11.2 12.6 3.3 1.8 7.5 4.2 9.3 5.4 1.8 1.2 5.4 2.8 8 3.5 l4.8 1.4 3.4 -4 c1.8 -2.1 5.8 -7.5 8.7 -11.9 2.9 -4.4 6.7 -9.3 8.5 -11 1.8 -1.6 5 -5.3 7.1 -8.2 2.2 -2.9 6.4 -7.8 9.4 -11 6.8 -7.3 10.7 -14.4 10.4 -19.2 -0.3 -4.8 0.9 -8.1 2.9 -8.1 3.3 0 3.8 1.4 3.2 8.5 -0.7 9.2 -3.9 15.2 -12.6 23.6 -11.4 10.8 -35.4 39.7 -35.4 42.5 0 1.5 21.4 10.8 33.8 14.8 6.2 2 14.7 5.2 19 7 4.2 1.9 10.2 4.2 13.3 5.1 5.4 1.5 17.4 2.3 22.9 1.4 1.9 -0.3 2.6 0.1 2.8 1.7 0.2 1.2 -0.4 2.9 -1.3 3.8 -2.6 2.5 -16.2 2.1 -25 -0.8z"/>
  <path d="M90.5 594.9 c-7.1 -4.4 -17 -11.1 -22 -14.8 -4.9 -3.7 -11.3 -8.5 -14.1 -10.5 -8.5 -6.3 -14.4 -15.4 -14.4 -22.2 0 -5.5 1.5 -7.2 7.8 -9 3.1 -0.9 6.6 -2.2 7.8 -2.9 2.4 -1.5 12.1 -4.5 14.3 -4.4 0.9 0 -0.9 0.8 -3.9 1.8 -3 0.9 -6.6 2.5 -8 3.3 -1.4 0.9 -5.1 2.6 -8.3 3.8 -3.8 1.5 -6.1 2.9 -6.6 4.3 -2.1 5.7 4.9 16.3 15.8 23.7 1.9 1.3 7.4 5.9 12.2 10.1 4.9 4.3 14.2 11.4 20.9 15.9 10.2 6.9 13.1 9.2 11.8 9 -0.2 -0.1 -6.1 -3.7 -13.3 -8.1z"/>
  <path d="M470 524 c0 -0.9 0.5 -2.1 1.2 -2.8 0.9 -0.9 -3.4 -1.2 -19.5 -1.2 -13.1 0 -20.7 -0.4 -20.7 -1 0 -0.6 7.7 -1 21 -1 l20.9 0 1.6 -2.7 c1.3 -2.3 1.5 -2.4 1 -0.5 -0.7 2.4 1.2 3.1 3.2 1.1 0.8 -0.8 1.3 -0.7 1.8 0.1 1 1.7 -1.7 4 -5 4.4 -1.7 0.2 -3.3 1.2 -4.1 2.7 -0.9 1.5 -1.3 1.8 -1.4 0.9z"/>
  <path d="M128.3 510 c3.2 -2.1 43.2 -14.9 49.7 -15.9 10.6 -1.7 45.1 -12.1 50.4 -15.1 2.9 -1.7 12.6 -4.6 18.9 -5.7 1.8 -0.4 2.7 -1.1 2.7 -2.4 0 -4.5 5.3 -4.2 14.6 1.1 2.9 1.6 6 3 6.7 3 0.7 0 1.9 -1.7 2.6 -3.7 2.1 -6.2 12.4 -28.4 12.8 -27.9 0.3 0.2 -1.3 4.4 -3.5 9.3 -4.8 10.8 -9.2 21.8 -9.2 23.1 0 0.5 1.1 1.3 2.4 1.6 1.4 0.3 3.8 1.7 5.4 3.1 1.9 1.6 5.3 3 8.8 3.6 3.2 0.6 8 2.2 10.7 3.6 2.7 1.3 8.3 3.3 12.5 4.4 4.3 1 11.8 3.3 16.7 4.9 14 4.6 25.9 7.9 26.7 7.4 0.5 -0.3 0.8 0 0.8 0.7 0 0.7 -1 0.9 -2.7 0.6 -8.7 -1.8 -21.3 -4.9 -28.1 -7 -4.2 -1.4 -10.2 -2.8 -13.2 -3.1 -3 -0.4 -8.6 -2 -12.5 -3.5 -3.8 -1.5 -9.7 -3.1 -12.9 -3.5 -4 -0.4 -7.1 -1.5 -9.1 -3 -1.7 -1.4 -5.1 -3 -7.5 -3.6 -2.5 -0.7 -7 -2.5 -10.2 -4.1 -5.2 -2.6 -5.8 -2.7 -6.6 -1.2 -0.6 0.9 -2.9 2.2 -5.3 2.9 -2.4 0.7 -6.9 2 -9.9 2.8 -3 0.9 -7.1 2.4 -9 3.3 -4.4 2.1 -25.9 7.4 -41.5 10.2 -22.7 4.2 -27 5 -34 7 -3.8 1.2 -11 3.2 -16 4.5 -4.9 1.4 -9.9 2.7 -11 3.1 -1.8 0.6 -1.8 0.5 -0.2 -0.5z"/>
  <path d="M361.5 507.5 c-3.9 -1.7 -2.1 -1.8 2.5 0 1.9 0.7 2.8 1.4 2 1.4 -0.8 0 -2.8 -0.6 -4.5 -1.4z"/>
  <path d="M482.3 486 c0.2 -4.4 0.1 -4.5 -3.7 -5.8 -2.1 -0.7 -7.7 -1.9 -12.4 -2.7 -4.6 -0.8 -10.7 -2.2 -13.5 -3 -2.8 -0.8 -7.6 -1.5 -10.6 -1.5 -8.2 0 -17.1 -1.7 -19.2 -3.6 -1.1 -1 -1.9 -3.1 -1.9 -4.8 0 -3.1 1.1 -5.1 7.2 -13.6 1.8 -2.5 3.9 -6.5 4.7 -9 0.7 -2.5 2.2 -6.6 3.2 -9.2 2 -5 2.6 -16.2 0.9 -17.3 -0.5 -0.3 -2.9 -0.9 -5.2 -1.3 -3.4 -0.6 -4.4 -1.2 -4.6 -3 -0.2 -1.2 0.3 -2.4 1 -2.7 2.6 -1 22.7 3.9 28.5 6.8 1.8 1 6.4 2.4 10.3 3.2 3.9 0.8 8.7 2.3 10.8 3.4 2 1 6.2 2.2 9.2 2.6 3 0.4 7.7 1.3 10.4 2.1 2.7 0.8 7.4 1.4 10.3 1.4 4.6 0 5.3 0.3 5.3 2 0 1 0.9 2.4 2.1 3.1 l2.1 1.1 -2.4 2.5 c-1.2 1.3 -5.5 3.9 -9.3 5.7 -8 3.7 -11.5 7.3 -15.6 16 -3.1 6.5 -5.5 15.6 -4.7 17.8 0.3 0.7 3 2.2 5.9 3.2 9.1 3.2 12.9 5.5 12.9 7.7 0 3.2 -2 3.1 -10.9 -0.6 -4.6 -2 -8.6 -3.3 -8.9 -3.1 -0.2 0.3 -0.8 2 -1.3 3.8 -0.7 3.1 -0.8 3 -0.6 -1.2z m0.1 -12.2 c2.1 -10.9 3 -14.2 5.5 -19.4 4 -8.4 8.3 -13 16.2 -16.9 3.7 -1.9 7 -3.9 7.3 -4.4 0.3 -0.5 -2 -1.2 -5.2 -1.6 -3.1 -0.3 -8.6 -1.5 -12.1 -2.6 -3.5 -1 -8.1 -1.9 -10.3 -1.9 -2.1 0 -5.3 -0.7 -6.9 -1.6 -1.7 -0.8 -6.7 -2.1 -11.2 -2.8 -4.5 -0.8 -10 -2.1 -12.1 -3 -2.1 -0.9 -4.9 -1.6 -6.2 -1.6 -2.3 0 -2.4 0.3 -2.4 6.3 0 4.3 -0.6 7.5 -2 10.2 -1.1 2.2 -2 4.3 -2 4.7 0 2.7 -6.9 15.1 -10.7 19.1 -2.4 2.6 -4.3 5.3 -4 6 0.2 0.8 4.1 1.4 11.3 1.8 6.3 0.4 12.8 1.4 15.4 2.4 5.1 1.9 24.6 7.2 27.2 7.4 1.1 0.1 1.9 -0.8 2.2 -2.1z"/>
  <path d="M407.4 436.8 c1.9 -3.5 4.4 -9.7 5.6 -13.8 2.5 -8.5 5.1 -14 7.5 -16 0.9 -0.8 2.8 -3.5 4.1 -6.2 1.3 -2.6 2.6 -4.8 2.9 -4.8 0.8 0 -4 9.5 -6.1 12.2 -2.5 3.3 -4.9 9.5 -6.4 16.9 -1.6 8.4 -6.4 17.9 -9 17.9 -2 0 -1.9 -0.3 1.4 -6.2z"/>
  <path d="M287.5 439.5 c0.6 -3.3 9.1 -21.5 10 -21.5 0.3 0 -1.1 3.3 -3.1 7.3 -2 3.9 -4.5 9.5 -5.6 12.2 -1 2.8 -1.6 3.7 -1.3 2z"/>
  <path d="M496.8 415.8 c-3.7 -0.8 -4.8 -1.5 -4.8 -2.9 0 -2.2 -0.3 -2.2 8 -0.4 3.6 0.8 8 1.4 9.8 1.5 2.2 0 3.2 0.5 3.2 1.5 0 1.8 -8.4 1.9 -16.2 0.3z"/>
  <path d="M350.4 414.8 c-0.4 -0.7 -0.7 -3.1 -0.5 -5.3 0.1 -2.3 -0.9 -7.5 -2.3 -11.9 -1.4 -4.3 -2.6 -9.5 -2.6 -11.5 0 -2 -1.1 -7.6 -2.5 -12.6 -4 -14.3 -3.5 -18.1 3.3 -25.3 1.5 -1.5 5.5 -6.2 8.9 -10.3 3.4 -4.1 9.2 -11 12.9 -15.4 3.7 -4.4 8.6 -10.5 10.9 -13.6 2.3 -3.1 6.6 -8.4 9.6 -11.8 5.2 -5.9 9.3 -12.5 16 -26.1 2.3 -4.7 3.3 -8.3 3.6 -13 0.5 -7.2 2.2 -9.7 5.4 -7.9 1.6 0.8 1.9 2.2 1.9 8.5 0 6.3 -0.5 8.7 -3.1 14.2 -1.7 3.7 -4.1 7.8 -5.4 9.2 -1.2 1.4 -3.3 4.5 -4.5 7 -1.3 2.4 -5.9 8.3 -10.4 13 -18.2 19.2 -25.8 28.2 -36.9 43.3 -2.1 2.9 -5 6.4 -6.5 8 -3.2 3.3 -3.2 6.5 -0.3 16.2 1.1 3.9 2.5 11.3 3 16.5 0.6 5.2 1.6 11.6 2.4 14.2 l1.3 4.8 1.2 -4.6 c2.1 -7.8 5.9 -14.7 11.8 -21.4 7.2 -8.2 13.2 -17.6 17.2 -26.5 8.6 -19.5 14.3 -34 21.9 -55.3 1.5 -4.3 14.3 -19.4 16.9 -20 3.4 -0.8 0.9 3.9 -5.2 9.8 -7 6.9 -9.3 11 -16.9 30 -2.1 5.2 -5 12 -6.5 15 -1.6 3.1 -4 9.1 -5.4 13.5 -4.1 12.1 -10.8 25.3 -17 33.2 -5.3 6.7 -10.6 15.8 -10.6 18.1 0 3.3 -4.4 14.3 -6.6 16.6 -3 2.9 -3.9 3.2 -5 1.4z"/>
  <path d="M520 414.5 c0 -0.8 0.7 -1.5 1.4 -1.5 3.7 0 6.4 -6.5 11.6 -27 6.6 -26.1 7.4 -28 14.4 -32.5 9.6 -6.1 9 -2.7 9.4 -52.9 l0.4 -44.1 -2.6 -11.5 c-5.2 -22.5 -14.8 -48.1 -19.9 -52.8 l-2.4 -2.3 -3.5 4.8 c-1.9 2.6 -4.9 7.7 -6.8 11.3 -1.9 3.6 -4.1 7.3 -4.9 8.3 -0.9 1.1 -2.7 3.9 -4.1 6.5 -1.6 2.9 -3.2 4.6 -4.5 4.7 -1.1 0.1 -3 0.5 -4.2 0.9 -1.9 0.6 -2.3 0.4 -2.3 -1.2 0 -1.1 1.1 -2.9 2.4 -3.9 2.1 -1.6 9.8 -12.8 18.7 -27.2 4.9 -8 7.6 -10.4 10.8 -9.6 7 1.7 12.3 11.6 18.2 34 6.8 26.1 6.9 27.2 6.8 80.4 0 46.7 -0.1 48.6 -2 51.8 -1.1 1.7 -3.5 4.1 -5.4 5.3 -1.9 1.2 -4.5 3.4 -5.8 5 -2.4 2.8 -10.8 27 -14.3 41.4 -1.1 4.5 -2.7 8.1 -4.7 10.2 -3 3.5 -6.7 4.5 -6.7 1.9z"/>
  <path d="M463.7 405.3 c-1.4 -1.4 -0.6 -4 1.9 -6.4 4.3 -4 9.9 -17.2 10.9 -25.5 0.3 -3.1 2.3 -5.4 4.7 -5.4 2.5 0 3.4 2.6 1.8 5.6 -1.9 3.4 0.1 5.4 2.2 2.2 2.4 -3.7 4.9 -12.1 3.9 -13.1 -0.5 -0.5 -4.1 -0.4 -8.6 0.3 -7 1.1 -9.7 0.9 -8.3 -0.5 0.3 -0.3 4.7 -1.1 9.9 -1.8 l9.4 -1.2 3.2 -6.5 c1.7 -3.6 4.1 -10.1 5.3 -14.5 1.2 -4.4 3 -9.6 4 -11.5 1.7 -3.4 3.5 -16.9 3.1 -24.1 -0.1 -2.4 0.5 -4.1 1.9 -5.4 2.3 -2.1 5 -1.4 5 1.4 0 1.1 1.3 3.5 2.8 5.3 1.5 1.8 3.3 4.4 4 5.8 0.7 1.4 3.3 6.3 5.8 10.9 5 9.1 6.2 14.8 5 24.5 -0.5 3.7 -1.5 6.3 -2.8 7.5 -2.5 2.4 -18 7.6 -27.3 9.2 -3.8 0.7 -7.5 1.7 -8.1 2.3 -0.6 0.6 -2.4 4.4 -3.9 8.5 -2.4 6.3 -3.2 7.5 -6.1 8.7 -2.1 0.9 -3.4 2.1 -3.4 3.3 0 2.9 -5.9 13.8 -9.5 17.6 -3.1 3.3 -5.4 4.3 -6.8 2.8z m44.4 -49.2 c11.8 -4 17.7 -7 18.3 -9.5 1 -3.5 0.6 -9.9 -0.8 -13.7 -0.7 -2 -3.7 -7.5 -6.7 -12.3 l-5.4 -8.6 -0.7 6.1 c-0.4 3.7 -1.9 8.4 -3.6 11.8 -1.7 3.1 -3.5 7.6 -4.2 10.1 -0.7 2.4 -2.7 7.5 -4.6 11.2 -1.9 3.7 -3.4 7 -3.4 7.3 0 1 2.8 0.4 11.1 -2.4z"/>
  <path d="M319.2 375.5 c1.8 -3.5 3.4 -6.3 3.6 -6.1 0.4 0.5 -5.6 12.6 -6.3 12.6 -0.3 0 1 -2.9 2.7 -6.5z"/>
  <path d="M452.5 338.3 c0.3 -1 1.2 -4.3 2 -7.3 2.8 -11.8 9.5 -35.2 10.9 -37.8 0.7 -1.5 1.7 -4.3 2.1 -6.2 0.4 -1.9 2 -6.5 3.6 -10.2 1.6 -3.6 2.9 -7.7 2.9 -9 0 -1.3 0.9 -4.1 2 -6.3 1.1 -2.1 2.9 -6.9 4.1 -10.6 1.9 -6 2.4 -6.7 5 -7.1 2.6 -0.4 2.9 -0.2 2.9 2.2 0 2.9 -3.5 12.2 -6.8 18.5 -1.2 2.2 -2.2 4.7 -2.2 5.6 0 0.9 -1.3 4.3 -2.9 7.5 -5.1 10.1 -13.9 33.4 -20.7 54.7 -1.4 4.2 -2.7 7.7 -3.1 7.7 -0.3 0 -0.2 -0.8 0.2 -1.7z"/>
  <path d="M350 314.9 c0 -0.2 2.5 -6.5 5.6 -13.9 5.6 -13.6 7.6 -19.1 9.4 -26.6 0.5 -2.2 3 -7.2 5.5 -11 2.4 -3.8 6.3 -11.6 8.6 -17.4 2.3 -5.8 5.2 -11.9 6.5 -13.6 2 -2.8 6.4 -13.9 6.4 -16.3 0 -0.5 0.5 -2.2 1.1 -3.8 l1 -2.8 2.4 4.9 2.4 5 -3 7 c-1.7 3.9 -3.9 8 -4.9 9.1 -1.1 1.1 -4.2 6.8 -6.9 12.5 -2.7 5.8 -7.2 13.7 -10 17.5 -3 4.1 -5.8 9.3 -6.8 12.5 -0.8 3 -4.4 11.5 -7.9 18.8 -3.5 7.4 -6.4 13.7 -6.4 14 -0.1 0.8 -3 4.8 -3 4.1z"/>
  <path d="M354.3 245.1 c0.3 -2.2 1.7 -6.4 3.1 -9.5 1.4 -3 2.6 -6.1 2.6 -6.8 0 -0.7 1.4 -5.1 3.2 -9.7 3.5 -8.9 10.2 -17.4 18.2 -23.3 4.8 -3.4 11 -3.7 17.4 -0.8 3.5 1.6 4.3 2.4 4 4.2 -0.4 2.9 -3 3.4 -7.3 1.4 -6.8 -3.3 -9.8 -2 -18.7 8.1 -4.5 5 -8.6 14.9 -10.2 24.4 -0.4 2.1 -1.3 4.2 -2.1 4.9 -0.8 0.6 -2.1 3.4 -3 6.1 -1.5 4.4 -1.9 4.9 -4.7 4.9 -3 0 -3 -0.1 -2.5 -3.9z"/>
  <path d="M420.8 241.3 c-2.8 -0.7 -3.2 -4.6 -0.9 -9.1 1.8 -3.5 2.1 -5.9 2.1 -15.6 0 -10 0.2 -11.7 1.8 -12.5 1.1 -0.6 2.4 -0.6 3.5 0 1.4 0.8 1.7 2.5 1.7 10.2 0 5.1 -0.6 11.7 -1.4 14.6 -1.6 6.3 -3.6 6.5 17.4 -2.2 18.4 -7.6 21 -8.9 27.3 -13.4 4.9 -3.6 7.7 -3.8 7.7 -0.5 0 2.7 -9 8.7 -24.5 16.4 -20.3 10.1 -29.9 13.5 -34.7 12.1z"/>
  <path d="M449.3 200 c-10.5 -2.2 -18.7 -8.5 -20.3 -15.6 -1.5 -6.7 -0.1 -36.6 2.6 -53.1 2.5 -15.4 6.1 -25.9 14.8 -43 4 -8 6.4 -9.1 35 -14.8 23.6 -4.8 34.4 -5 42.4 -0.8 7.3 3.7 9.1 7.3 9.9 19 0.5 8.2 0.3 9.6 -3 19.8 -2 6 -3.5 11.1 -3.3 11.3 0.2 0.2 3 -0.4 6.2 -1.4 4.3 -1.2 7.7 -1.5 13.3 -1 4.2 0.3 8.6 0.3 9.8 0 2 -0.6 2 -0.8 0.7 -4 -2.5 -6 -1.1 -12 4.3 -19.1 3.5 -4.6 3.7 -5.1 4.5 -16.3 0.4 -6.3 1.5 -14.3 2.3 -17.7 3.5 -14.5 0.6 -30.2 -6.9 -37.2 -2.1 -2 -3.9 -2.5 -9.9 -2.9 -14.9 -0.9 -50.7 5.8 -62.4 11.7 -3.2 1.6 -9.4 3.9 -13.8 5.1 -6.7 1.9 -9.5 2.2 -17 1.7 -4.9 -0.4 -10 -0.9 -11.3 -1.3 l-2.3 -0.7 2.2 3.8 c1.7 2.8 2.3 5.4 2.3 10 0 8.3 -2.3 12.2 -9.4 15.8 -5.4 2.8 -5.7 2.9 -17.3 2.3 l-11.8 -0.7 0.6 4.8 c0.4 2.6 1 5.9 1.5 7.3 0.5 1.4 1.4 6.3 2 11 1.3 10 3.5 17.4 6.1 21.2 2.4 3.4 2.4 5.5 0 6.7 -4.5 2.5 -9.4 -6.3 -11.1 -19.9 -0.4 -3 -1.8 -11.7 -3.1 -19.4 l-2.3 -13.8 2.3 -1.9 c2.1 -1.7 3.9 -1.9 15.1 -1.8 13.2 0.2 18 -1 19.4 -4.6 1.4 -3.8 0.6 -12.8 -1.5 -16.1 -2.8 -4.6 -2.2 -8.5 1.5 -10.3 2.6 -1.2 4.4 -1.1 14.1 0.4 10.6 1.6 11.5 1.6 17.1 0 3.2 -0.9 9.8 -3.7 14.6 -6.2 10.2 -5.2 20.9 -7.5 43.8 -9.3 17.7 -1.4 27.7 -0.7 32.2 2.3 10.6 7.2 16.7 31 11.4 44.7 -1.2 2.9 -2 8.6 -2.3 16 -0.6 12.2 -1.5 15.1 -6.4 20.8 -3.3 3.8 -3.7 8 -1.3 13.7 3.2 7.8 -0.5 10.9 -12.6 10.4 -15.1 -0.6 -18.5 -0.3 -23 1.9 -4 1.9 -4.7 2.8 -6.8 8.4 -3 8.4 -3.1 20.6 -0.2 27.3 2.4 5.6 2.5 8.4 0.4 9.2 -2.2 0.8 -4 -1.4 -6.2 -7.9 l-1.9 -5.7 -5.4 5.6 c-5.1 5.2 -13.4 10.3 -17 10.3 -2.3 0 -4.2 -2.6 -3.5 -4.7 0.3 -1 2.7 -2.7 5.3 -3.7 6 -2.5 14.2 -10.1 17.1 -15.9 1.2 -2.4 2.8 -7.6 3.7 -11.6 0.8 -4 2.4 -8.6 3.5 -10.1 1.1 -1.6 4.3 -8.4 7 -15.2 4.6 -11.3 5 -13 4.9 -20.3 0 -11.2 -1.3 -14.3 -7.1 -17.3 -8.9 -4.6 -25.1 -4 -48.7 1.8 -21 5.2 -19.9 4.3 -28.7 22.7 -5.3 11 -8 18.1 -9 23.2 -0.8 4.1 -2.1 10.2 -3 13.5 -1.3 5.1 -1.5 9.3 -0.9 25.1 0.5 12.2 1.2 19.9 2 21.5 2.1 4 6.7 7.8 11.4 9.5 6.1 2.1 20.9 2 25.6 -0.2 3.6 -1.7 6.5 -0.8 5 1.6 -2.1 3.5 -18.2 5.9 -27.2 4.1z"/>
 </g>
</svg>