<?xml version="1.0" encoding="utf-8"?>
<!DOCTYPE svg PUBLIC "-//W3C//DTD SVG 20010904//EN" "http://www.w3.org/TR/2001/REC-SVG-20010904/DTD/svg10.dtd">
<svg version="1.0" xmlns="http://www.w3.org/2000/svg" width="569px" height="250px" viewBox="0 0 569 250" preserveAspectRatio="xMidYMid meet">
 <g fill="#000000">
  <path d="M20.1 233.4 c-1.7 -1.4 -3.1 -3.1 -3.1 -3.8 0 -0.7 2.4 -3.3 5.3 -5.7 10.5 -8.9 21.1 -19.6 27 -27.4 3.3 -4.4 7.9 -10 10.2 -12.5 5.7 -6.2 11.6 -16.6 16.6 -29 6.8 -17 8.3 -24.6 5.4 -27 -1.7 -1.4 -1.4 -5.1 1 -13 0.8 -2.5 2.1 -8.3 3.1 -13 2 -10.1 5.1 -18.7 9.8 -27.3 1.8 -3.4 5.5 -11.2 8 -17.3 5 -12 7.8 -15.4 14.1 -17.4 2.2 -0.7 7.8 -3 12.5 -5 4.7 -2.1 10.8 -4.2 13.6 -4.8 2.7 -0.6 9 -2.2 13.8 -3.7 4.9 -1.4 14.3 -3.2 21 -4.1 6.6 -0.8 16.4 -2.4 21.6 -3.5 13.3 -2.9 75 -5.3 135 -5.3 42 -0.1 47.2 0.1 53.5 1.7 9 2.4 28.4 4.7 40 4.7 9.8 0 15.1 1.3 50 12.6 9.4 3 20.2 6.1 24 6.9 24.1 4.9 44.6 11.3 47.9 14.9 2.7 3 1.6 12.4 -2.9 25.6 -2 5.8 -4.3 13.5 -5.1 17.2 -1.7 7.5 -8.5 21.4 -14.9 30.3 -6.6 9.3 -12.3 18.9 -18.8 32 -8.6 17.2 -12.8 23 -18.5 25.9 -8.8 4.4 -24.1 8.6 -36.6 10.1 -14.8 1.7 -53.1 1 -65 -1.1 -4.3 -0.8 -12.4 -1.4 -18 -1.4 -12.1 0 -22.3 -1.6 -41.5 -6.5 -7.9 -2 -19.1 -4.1 -25 -4.6 -5.8 -0.6 -18 -2.2 -27 -3.6 -13.2 -2 -21.8 -2.7 -44 -3.2 -15.2 -0.3 -31.5 -0.3 -36.2 0 -11.5 0.8 -18.5 4 -22.8 10.2 -4.8 7.1 -13.4 11.5 -16 8.3 -2.4 -2.9 -19.5 -1.3 -33.1 3 -4.2 1.3 -11 3 -15.2 3.8 -4.2 0.8 -9.4 2.3 -11.5 3.4 -2.1 1.1 -9.2 3.9 -15.7 6.2 -6.6 2.3 -16 6 -21 8.2 -5 2.2 -14.7 6.2 -21.6 9 -6.9 2.7 -13.3 5.8 -14.3 6.9 -2.2 2.4 -1.9 2.4 -5.6 -0.7z"/>
 </g>
 <g fill="#ffffff">
  <path d="M39 216.3 c3.6 -3.8 9.2 -10.8 12.4 -15.6 3.3 -4.9 7.5 -10.7 9.4 -13 6.4 -7.7 12 -17.2 18 -30.7 6.4 -14.7 7.8 -19.2 8.6 -28.9 0.3 -3.5 1.3 -7.8 2.1 -9.5 0.9 -1.7 2 -6.2 2.6 -10.1 0.5 -3.8 1.2 -7.9 1.5 -9 1 -3.6 7.6 -20 8.4 -21 0.4 -0.5 2.7 -6.4 5.1 -13 4.4 -12.1 8.1 -17.8 12.2 -19.1 1.2 -0.3 6.2 -2.6 11.1 -5.1 12 -6.1 35.1 -13.5 52.1 -16.8 7.7 -1.5 17.6 -3.9 22 -5.2 7.2 -2.2 10.7 -2.5 37 -3.4 16 -0.5 35.3 -1.4 43 -2 8.5 -0.7 30.6 -0.9 56 -0.7 35.2 0.4 43 0.7 48 2.1 7.1 2 17.5 3.4 34 4.7 6.6 0.5 15.4 1.8 19.5 3 4.1 1.1 12.5 3.4 18.5 5 6.1 1.6 16.2 4.4 22.5 6.3 6.3 1.9 15.3 4.4 20 5.5 16 4 32.5 9.3 39 12.5 l6.5 3.2 -0.1 5.5 c0 5.1 -1.6 10.8 -10.6 39 -2.6 8.3 -8.1 20.1 -12.4 26.5 -1.8 2.8 -7.7 13.6 -13.1 24 -10.5 20.2 -16.7 29.6 -21.1 31.9 -7.1 3.7 -25.8 9.7 -35.7 11.6 -14 2.6 -51.7 2.9 -66 0.5 -4.9 -0.8 -12.9 -1.5 -17.7 -1.5 -11.6 0 -21.6 -1.5 -37.8 -5.5 -16.7 -4.2 -29.6 -6.5 -36.4 -6.5 -2.8 0 -11.7 -1.1 -19.6 -2.5 -8.8 -1.6 -21.9 -3 -33.5 -3.6 -10.4 -0.5 -22.8 -1.4 -27.5 -1.9 -14.4 -1.7 -27 -1.3 -34.5 1.1 -5.6 1.7 -7.5 3 -12.8 8.3 -5.9 6.1 -6.5 6.4 -13.2 7.5 -15.7 2.7 -24.4 4.3 -32.5 6.1 -4.7 1 -11.9 2.3 -16 2.9 -4.2 0.6 -9.3 1.8 -11.5 2.7 -2.2 0.9 -10.3 3.6 -18 5.9 -7.7 2.4 -21 6.8 -29.6 9.9 -8.7 3.1 -15.9 5.6 -16.1 5.6 -0.2 0 2.6 -3 6.2 -6.7z"/>
 </g>
</svg>