<?xml version="1.0" encoding="utf-8"?>
<!DOCTYPE svg PUBLIC "-//W3C//DTD SVG 20010904//EN" "http://www.w3.org/TR/2001/REC-SVG-20010904/DTD/svg10.dtd">
<svg version="1.0" xmlns="http://www.w3.org/2000/svg" width="533px" height="202px" viewBox="0 0 533 202" preserveAspectRatio="xMidYMid meet">
 <g fill="#ffffff">
  <path d="M450.6 195.2 c-0.3 -0.5 0.1 -1.6 1 -2.3 2 -1.7 12.5 -23.3 17.1 -35.4 5.1 -13.4 5.1 -12.9 2 -12.1 -1.5 0.3 -7.3 2.6 -12.9 5 -19.4 8.2 -45.7 15.2 -85.8 22.6 -40 7.4 -47.1 7.9 -134.5 10.6 -21.6 0.6 -29.9 0.2 -66.5 -3.6 -5.2 -0.5 -26.4 -1.6 -47 -2.5 -50.8 -2.1 -85.3 -6.5 -92.1 -11.6 -3.5 -2.6 -3.1 -8.2 1 -14.2 2.8 -4 3.8 -4.8 5.7 -4.4 1.3 0.2 3.2 -0.2 4.1 -0.9 1.1 -0.8 1.3 -1.3 0.6 -1.4 -2 0 -1.5 -5 1.2 -11.5 1.4 -3.3 3 -8.6 3.6 -11.8 0.5 -3.3 1.5 -7.1 2.1 -8.5 0.6 -1.5 1.4 -8.8 1.8 -16.2 0.4 -7.4 1.3 -18 2 -23.5 0.8 -7.4 0.9 -17.6 0.1 -39.5 -0.5 -16.2 -1.3 -30.5 -1.7 -31.8 l-0.6 -2.2 232.1 0 232.1 0 0 23.1 0 23 -3.9 14.7 c-4.9 18.3 -5.6 20.1 -19.8 50 -8.4 17.8 -11.3 24.6 -10.4 25.5 0.6 0.6 3 1.3 5.3 1.6 3.4 0.5 4.4 1 4.6 2.8 0.3 2.3 -1.8 2.9 -12.3 3.5 l-4 0.3 -4.6 12 c-2.5 6.6 -5.9 14.7 -7.6 18 -1.6 3.3 -4 8.5 -5.2 11.6 -2.3 5.8 -6.4 10.8 -7.5 9.1z"/>
 </g>
 <g fill="#ff7f27">
  <path d="M230.1 84.1 c-1.6 -1.1 -1.2 -3.6 2 -10.9 2.1 -4.7 2.2 -5.6 1 -9.5 -2 -6.5 -1.9 -9.1 0.3 -9.5 1.1 -0.2 2.6 0.4 3.3 1.4 1.2 1.7 1.3 1.7 1.3 -0.4 0 -1.7 1.1 -2.5 6.5 -4.1 15.1 -4.7 28.1 -5.2 33.3 -1.5 1.5 1.1 3.7 4.1 5 6.6 2.3 4.5 2.3 4.8 0.7 8.1 -1.7 3.7 -4.5 5.3 -17 10.3 -25.5 9.9 -32.7 11.8 -36.4 9.5z"/>
  <path d="M353.3 83 c-1.3 -0.5 -2.3 -1.3 -2.3 -1.7 0 -5.8 2.4 -19 3.7 -20 1.1 -0.9 1.2 -1.6 0.3 -3.3 -0.6 -1.1 -1 -3.8 -0.8 -5.8 0.3 -3.4 0.6 -3.8 4.8 -5.1 2.5 -0.7 8.1 -2.7 12.5 -4.3 10.1 -3.9 15.7 -4.5 19 -2.4 1.5 1 2.5 2.6 2.5 4 0 1.3 1.4 4 3 6.1 4.1 5.1 4.7 8.1 2.5 12.1 -3.2 5.9 -7.8 10.1 -12.6 11.4 -2.4 0.7 -7.5 2.5 -11.4 4.2 -6.7 2.9 -15.9 5.8 -18 5.7 -0.5 0 -2 -0.4 -3.2 -0.9z"/>
  <path d="M121.5 62.5 c-8.3 -3.5 -28.2 -9.5 -31.4 -9.5 -4.4 0 -7.1 -1.1 -7.1 -3 0 -2.3 1.5 -3.4 7.9 -5.9 9.5 -3.6 10.9 -6.2 6.6 -12.5 -2.4 -3.5 -2.5 -6.1 -0.2 -6.8 0.7 -0.2 10.5 -0.2 22 0 25.1 0.5 24.3 -0.1 20.3 12.7 -1.9 6 -2.6 10.5 -2.6 16.3 0 7.2 -0.2 8.3 -2.2 9.6 -3.1 2.2 -6.3 2 -13.3 -0.9z"/>
 </g>
 <g fill="#404040">
  <path d="M121.5 62.5 c-8.3 -3.5 -28.2 -9.5 -31.4 -9.5 -4.4 0 -7.1 -1.1 -7.1 -3 0 -2.3 1.5 -3.4 7.9 -5.9 9.5 -3.6 10.9 -6.2 6.6 -12.5 -2.4 -3.5 -2.5 -6.1 -0.2 -6.8 0.7 -0.2 10.5 -0.2 22 0 25.1 0.5 24.3 -0.1 20.3 12.7 -1.9 6 -2.6 10.5 -2.6 16.3 0 7.2 -0.2 8.3 -2.2 9.6 -3.1 2.2 -6.3 2 -13.3 -0.9z m9.8 -10.8 c0.3 -3.5 1.8 -9.5 3.2 -13.2 1.4 -3.8 2.3 -7.5 2.1 -8.2 -0.6 -1.4 -9.7 -1.6 -23.6 -0.4 l-7.5 0.6 0 5.1 c0 5.6 -1.7 8.4 -6.8 11 -1.5 0.8 -2.5 1.9 -2.2 2.4 0.3 0.4 4.9 1.8 10.2 3 5.3 1.3 12.6 3.3 16.2 4.5 3.6 1.3 6.8 2.2 7.2 1.9 0.3 -0.2 0.9 -3.2 1.2 -6.7z"/>
  <path d="M515.4 23 c0 -11.8 0.2 -16.7 0.3 -10.8 0.2 6 0.2 15.6 0 21.5 -0.1 6 -0.3 1.1 -0.3 -10.7z"/>
 </g>
 <g fill="#000000">
  <path d="M453.8 191 c1.6 -2.5 3.3 -5.5 3.7 -6.8 0.4 -1.3 0.9 -2.1 1.2 -1.9 0.8 0.9 -3.3 9.1 -5.7 11.2 -1.8 1.6 -1.7 1.2 0.8 -2.5z"/>
  <path d="M223.3 183.3 c3.1 -0.2 8.3 -0.2 11.5 0 3.1 0.2 0.5 0.3 -5.8 0.3 -6.3 0 -8.9 -0.1 -5.7 -0.3z"/>
  <path d="M204.3 182.3 c1.5 -0.2 3.9 -0.2 5.5 0 1.5 0.2 0.2 0.4 -2.8 0.4 -3 0 -4.3 -0.2 -2.7 -0.4z"/>
  <path d="M246.8 182.3 c1.7 -0.2 4.7 -0.2 6.5 0 1.7 0.2 0.3 0.4 -3.3 0.4 -3.6 0 -5 -0.2 -3.2 -0.4z"/>
  <path d="M192.8 181.3 c1.2 -0.2 3.2 -0.2 4.5 0 1.2 0.2 0.2 0.4 -2.3 0.4 -2.5 0 -3.5 -0.2 -2.2 -0.4z"/>
  <path d="M269.8 181.3 c5.7 -0.2 14.7 -0.2 20 0 5.3 0.1 0.7 0.3 -10.3 0.3 -11 0 -15.4 -0.2 -9.7 -0.3z"/>
  <path d="M182.3 180.3 c0.9 -0.2 2.5 -0.2 3.5 0 0.9 0.3 0.1 0.5 -1.8 0.5 -1.9 0 -2.7 -0.2 -1.7 -0.5z"/>
  <path d="M305.3 180.3 c1.5 -0.2 3.7 -0.2 5 0 1.2 0.2 0 0.4 -2.8 0.4 -2.7 0 -3.8 -0.2 -2.2 -0.4z"/>
  <path d="M459 180.6 c0 -1.1 3 -6.6 3.6 -6.6 0.2 0 -0.3 1.5 -1.2 3.3 -1.9 3.6 -2.4 4.4 -2.4 3.3z"/>
  <path d="M173.3 179.3 c0.9 -0.2 2.5 -0.2 3.5 0 0.9 0.3 0.1 0.5 -1.8 0.5 -1.9 0 -2.7 -0.2 -1.7 -0.5z"/>
  <path d="M230.4 178.9 c-4 -1.1 -5.7 -3.2 -4.9 -5.8 0.9 -2.8 3.1 -3.3 8.3 -1.6 3.6 1.1 10.9 1.6 30.7 1.8 l26 0.2 0.3 2.3 c0.2 1.2 -0.3 2.4 -1 2.6 -2.9 0.9 -56.5 1.4 -59.4 0.5z"/>
  <path d="M316.8 179.3 c1.2 -0.2 3.2 -0.2 4.5 0 1.2 0.2 0.2 0.4 -2.3 0.4 -2.5 0 -3.5 -0.2 -2.2 -0.4z"/>
  <path d="M142 177.9 c-9.1 -0.5 -26.2 -1.3 -38 -1.8 -22.2 -1.1 -56 -5 -64.4 -7.5 -7.5 -2.3 -9.6 -4.1 -9.6 -8.2 0 -2 0.8 -4.8 1.8 -6.2 1 -1.5 2.2 -3.5 2.5 -4.4 0.8 -2.2 5 -2.4 6.7 -0.3 1 1.3 1 2.3 -0.3 5.6 l-1.6 4 2.7 1.1 c3.7 1.4 39.5 8.5 49.5 9.8 4.5 0.5 24 2.6 43.2 4.6 19.3 2 35.2 3.8 35.4 4 0.5 0.5 -7 0.3 -27.9 -0.7z"/>
  <path d="M327.3 178.3 c1.5 -0.2 3.9 -0.2 5.5 0 1.5 0.2 0.2 0.4 -2.8 0.4 -3 0 -4.3 -0.2 -2.7 -0.4z"/>
  <path d="M133.5 172.5 c-6.6 -0.7 -13.8 -1.9 -16 -2.6 -3.5 -1.2 -4 -1.8 -4 -4.4 0 -2.9 0.1 -3 4.5 -2.9 2.5 0.1 11.7 1.4 20.5 2.9 11.6 1.9 17.7 2.5 22.3 2.1 5.9 -0.6 6.2 -0.5 6.2 1.5 0 3.8 -2.8 4.8 -12.5 4.7 -4.9 0 -14.4 -0.6 -21 -1.3z"/>
  <path d="M464.1 170.5 c0 -0.5 0.6 -2.1 1.4 -3.5 0.8 -1.4 1.4 -2 1.4 -1.5 0 0.6 -0.6 2.1 -1.4 3.5 -0.8 1.4 -1.4 2.1 -1.4 1.5z"/>
  <path d="M229.5 164.3 c-4.2 -1.1 -5.4 -3.3 -3.5 -6.3 0.7 -1.1 3.2 -1.4 13 -1.1 6.6 0.1 18.9 -0.3 27.2 -1 14.1 -1.1 15.2 -1.1 16.4 0.5 2.3 3.2 0.6 4.6 -5.5 4.6 -3.1 0 -9.9 0.7 -15.1 1.4 -10.9 1.7 -29.5 2.8 -32.5 1.9z"/>
  <path d="M107.2 162.8 c-1.8 -1.8 -1.4 -6.7 0.8 -11.5 l1.9 -4.3 -10.2 0 c-5.6 0 -18.7 0.5 -29.2 1.1 -21.6 1.2 -24.6 0.9 -27 -2.7 -1.6 -2.5 -1.6 -2.9 0.3 -8.3 1.1 -3.1 2.5 -6.9 3.1 -8.6 3 -8.8 5.6 -23.2 6.1 -34.5 l0.6 -12.5 0.2 12.6 c0.2 9.4 -0.2 13.8 -1.4 17 -0.8 2.4 -2 7.3 -2.5 10.9 -0.5 3.6 -1.8 8.9 -2.9 11.8 -1.7 4.4 -2.7 10.9 -1.7 11.3 0.1 0.1 14.7 0.3 32.5 0.5 l32.3 0.4 4.2 -4.1 c5.1 -4.9 7.6 -5.6 14.7 -4 3 0.7 8.5 1.9 12.3 2.7 3.7 0.8 11.6 1.8 17.6 2.3 6 0.5 11.5 1.2 12.2 1.6 0.6 0.5 3.7 0.8 6.8 0.8 5.1 0 5.2 0 1.6 0.6 -3.8 0.6 -3.9 0.7 -1.3 1.4 5.9 1.6 5.7 7.2 -0.3 10.3 -7.2 3.7 -25.9 5.7 -29.1 3.2 -2.4 -2 -2.8 -4.4 -1.2 -6.7 1.3 -1.8 2.6 -2.1 10.2 -2.2 l8.7 -0.2 -11.5 -0.8 c-6.3 -0.5 -14.4 -1.3 -18 -1.9 -13.7 -2.3 -13.9 -2.3 -16.5 -0.6 -2.7 1.8 -6.5 8.4 -6.5 11.4 0 2.2 -1.9 4.2 -4 4.2 -0.9 0 -2.1 -0.5 -2.8 -1.2z"/>
  <path d="M467.6 162 c0.3 -1.4 1.1 -3.2 1.6 -4 0.6 -1 0.7 -0.7 0.2 1 -0.3 1.4 -1.1 3.2 -1.6 4 -0.6 1 -0.7 0.7 -0.2 -1z"/>
  <path d="M435.5 157 c1.1 -0.5 2.7 -0.9 3.5 -0.9 0.9 0 0.8 0.4 -0.5 0.9 -1.1 0.5 -2.7 0.9 -3.5 0.9 -0.9 0 -0.8 -0.4 0.5 -0.9z"/>
  <path d="M442 155.3 c0.8 -0.3 7.5 -3.5 14.8 -7 7.3 -3.5 14.6 -6.6 16.3 -7 1.6 -0.3 2.8 -0.7 2.6 -0.9 -0.2 -0.3 -7.8 -2.7 -16.8 -5.6 -16 -4.9 -16.8 -5.1 -32.4 -5.8 l-16 -0.7 16.9 -0.1 c16.2 -0.2 17.2 -0.1 25.5 2.7 12.7 4.3 21.9 7.1 22.8 7 1.2 -0.1 -2.8 -1.6 -15.2 -6 -12.5 -4.5 -8.3 -4.3 6.3 0.2 5.3 1.6 10.4 3.1 11.2 3.2 0.8 0.2 2.1 0.6 2.8 1.1 0.7 0.4 3.4 1.3 6 1.9 9.3 2.3 4.4 5.5 -8.6 5.6 -5.1 0.1 -11.3 2.2 -28.7 9.5 -3.3 1.4 -6.7 2.5 -7.5 2.5 -1.3 -0.1 -1.3 -0.1 0 -0.6z"/>
  <path d="M194.8 143.3 c1.2 -0.2 3 -0.2 4 0 0.9 0.3 -0.1 0.5 -2.3 0.4 -2.2 0 -3 -0.2 -1.7 -0.4z"/>
  <path d="M207.8 142.3 c1.7 -0.2 4.7 -0.2 6.5 0 1.7 0.2 0.3 0.4 -3.3 0.4 -3.6 0 -5 -0.2 -3.2 -0.4z"/>
  <path d="M222.8 141.3 c1.2 -0.2 3 -0.2 4 0 0.9 0.3 -0.1 0.5 -2.3 0.4 -2.2 0 -3 -0.2 -1.7 -0.4z"/>
  <path d="M232.3 140.3 c0.9 -0.2 2.5 -0.2 3.5 0 0.9 0.3 0.1 0.5 -1.8 0.5 -1.9 0 -2.7 -0.2 -1.7 -0.5z"/>
  <path d="M241.8 139.3 c1.2 -0.2 3.2 -0.2 4.5 0 1.2 0.2 0.2 0.4 -2.3 0.4 -2.5 0 -3.5 -0.2 -2.2 -0.4z"/>
  <path d="M267.8 138.3 c8.4 -0.2 21.9 -0.2 30 0 8.1 0.1 1.2 0.3 -15.3 0.3 -16.5 0 -23.1 -0.2 -14.7 -0.3z"/>
  <path d="M318.3 137.3 c1.5 -0.2 3.9 -0.2 5.5 0 1.5 0.2 0.2 0.4 -2.8 0.4 -3 0 -4.3 -0.2 -2.7 -0.4z"/>
  <path d="M333.3 136.3 c1.5 -0.2 3.9 -0.2 5.5 0 1.5 0.2 0.2 0.4 -2.8 0.4 -3 0 -4.3 -0.2 -2.7 -0.4z"/>
  <path d="M346.3 135.3 c0.9 -0.2 2.5 -0.2 3.5 0 0.9 0.3 0.1 0.5 -1.8 0.5 -1.9 0 -2.7 -0.2 -1.7 -0.5z"/>
  <path d="M354.8 134.3 c1.2 -0.2 3 -0.2 4 0 0.9 0.3 -0.1 0.5 -2.3 0.4 -2.2 0 -3 -0.2 -1.7 -0.4z"/>
  <path d="M364.8 133.3 c1.2 -0.2 3 -0.2 4 0 0.9 0.3 -0.1 0.5 -2.3 0.4 -2.2 0 -3 -0.2 -1.7 -0.4z"/>
  <path d="M376.8 132.3 c2.3 -0.2 5.9 -0.2 8 0 2 0.2 0.1 0.4 -4.3 0.4 -4.4 0 -6.1 -0.2 -3.7 -0.4z"/>
  <path d="M391.3 131.3 c0.9 -0.2 2.5 -0.2 3.5 0 0.9 0.3 0.1 0.5 -1.8 0.5 -1.9 0 -2.7 -0.2 -1.7 -0.5z"/>
  <path d="M484.1 125.5 c0 -0.5 1.5 -3.9 3.4 -7.5 1.9 -3.6 3.4 -6 3.4 -5.5 0 0.6 -1.5 3.9 -3.4 7.5 -1.9 3.6 -3.4 6.1 -3.4 5.5z"/>
  <path d="M416.5 120 c-1.3 -0.5 -1.4 -0.9 -0.5 -0.9 0.8 0 2.4 0.4 3.5 0.9 1.3 0.5 1.4 0.9 0.5 0.9 -0.8 0 -2.4 -0.4 -3.5 -0.9z"/>
  <path d="M492.1 108.5 c0 -0.5 1.8 -4.4 3.9 -8.5 2.1 -4.1 3.9 -7 3.9 -6.5 0 0.6 -1.8 4.4 -3.9 8.5 -2.1 4.1 -3.9 7.1 -3.9 6.5z"/>
  <path d="M371.5 107 c-1.3 -0.5 -1.4 -0.9 -0.5 -0.9 0.8 0 2.4 0.4 3.5 0.9 1.3 0.5 1.4 0.9 0.5 0.9 -0.8 0 -2.4 -0.4 -3.5 -0.9z"/>
  <path d="M361.5 104 c-1.3 -0.5 -1.4 -0.9 -0.5 -0.9 0.8 0 2.4 0.4 3.5 0.9 1.3 0.5 1.4 0.9 0.5 0.9 -0.8 0 -2.4 -0.4 -3.5 -0.9z"/>
  <path d="M501.1 89.5 c0 -0.5 0.6 -2.1 1.4 -3.5 0.8 -1.4 1.4 -2 1.4 -1.5 0 0.6 -0.6 2.1 -1.4 3.5 -0.8 1.4 -1.4 2.1 -1.4 1.5z"/>
  <path d="M230.1 84.1 c-1.6 -1.1 -1.2 -3.6 2 -10.9 2.1 -4.7 2.2 -5.6 1 -9.5 -2 -6.5 -1.9 -9.1 0.3 -9.5 1.1 -0.2 2.6 0.4 3.3 1.4 1.2 1.7 1.3 1.7 1.3 -0.4 0 -1.7 1.1 -2.5 6.5 -4.1 15.1 -4.7 28.1 -5.2 33.3 -1.5 1.5 1.1 3.7 4.1 5 6.6 2.3 4.5 2.3 4.8 0.7 8.1 -1.7 3.7 -4.5 5.3 -17 10.3 -25.5 9.9 -32.7 11.8 -36.4 9.5z m17.3 -8.5 c4.6 -1.4 11.1 -3.8 14.3 -5.4 3.2 -1.6 7.4 -3.5 9.4 -4.1 5.2 -1.7 7.4 -4.3 5.9 -7.1 -3.1 -5.8 -15 -6.4 -32.5 -1.6 l-5 1.3 0.3 4.9 c0.2 2.7 -0.4 6.8 -1.2 9.1 -1.2 3.5 -1.2 5.3 0.1 5.3 0.1 0 4.1 -1.1 8.7 -2.4z"/>
  <path d="M353.3 83 c-1.3 -0.5 -2.3 -1.3 -2.3 -1.7 0 -5.8 2.4 -19 3.7 -20 1.1 -0.9 1.2 -1.6 0.3 -3.3 -0.6 -1.1 -1 -3.8 -0.8 -5.8 0.3 -3.4 0.6 -3.8 4.8 -5.1 2.5 -0.7 8.1 -2.7 12.5 -4.3 10.1 -3.9 15.7 -4.5 19 -2.4 1.5 1 2.5 2.6 2.5 4 0 1.3 1.4 4 3 6.1 4.1 5.1 4.7 8.1 2.5 12.1 -3.2 5.9 -7.8 10.1 -12.6 11.4 -2.4 0.7 -7.5 2.5 -11.4 4.2 -6.7 2.9 -15.9 5.8 -18 5.7 -0.5 0 -2 -0.4 -3.2 -0.9z m20.9 -11.2 c12.1 -4.5 14.9 -6.3 16.9 -10.9 1 -2.6 0.9 -3.2 -0.9 -5.2 -1.2 -1.2 -2.8 -3.9 -3.6 -5.9 -1.5 -3.4 -1.8 -3.6 -4.3 -2.8 -1.6 0.5 -6.5 2 -11.1 3.4 -4.5 1.4 -8.6 2.7 -9.1 3.1 -0.6 0.3 -0.3 2.1 0.6 4.2 1.8 4.5 1.2 9.3 -1.6 13 -2.6 3.2 -2.7 5.3 -0.1 5.3 1 0 7 -1.9 13.2 -4.2z"/>
  <path d="M54.7 40.5 c-0.4 -18.7 -1.1 -35.5 -1.6 -37.2 -0.8 -2.9 -0.7 -3.3 1 -3.3 1.1 0 2.1 0.9 2.4 2.3 0.3 1.2 0.2 18 -0.2 37.2 l-0.8 35 -0.8 -34z"/>
  <path d="M121.5 62.5 c-8.3 -3.5 -28.2 -9.5 -31.4 -9.5 -4.4 0 -7.1 -1.1 -7.1 -3 0 -2.3 1.5 -3.4 7.9 -5.9 9.5 -3.6 10.9 -6.2 6.6 -12.5 -2.4 -3.5 -2.5 -6.1 -0.2 -6.8 0.7 -0.2 10.5 -0.2 22 0 25.1 0.5 24.3 -0.1 20.3 12.7 -1.9 6 -2.6 10.5 -2.6 16.3 0 7.2 -0.2 8.3 -2.2 9.6 -3.1 2.2 -6.3 2 -13.3 -0.9z m9.8 -10.8 c0.3 -3.5 1.8 -9.5 3.2 -13.2 1.4 -3.8 2.3 -7.5 2.1 -8.2 -0.6 -1.4 -9.7 -1.6 -23.6 -0.4 l-7.5 0.6 0 5.2 c0 5.7 -2.3 9.1 -7.7 11.4 -3.9 1.6 -2.8 2.2 10.3 5.3 5.7 1.4 12.9 3.4 15.9 4.5 3 1 5.7 1.8 6.1 1.5 0.3 -0.2 0.9 -3.2 1.2 -6.7z"/>
  <path d="M512.1 56 c0 -0.8 0.4 -2.4 0.9 -3.5 0.5 -1.3 0.9 -1.4 0.9 -0.5 0 0.8 -0.4 2.4 -0.9 3.5 -0.5 1.3 -0.9 1.4 -0.9 0.5z"/>
  <path d="M515.4 31.5 c0 -7.2 0.1 -9.9 0.3 -6.2 0.2 3.7 0.2 9.6 0 13 -0.2 3.4 -0.3 0.4 -0.3 -6.8z"/>
  <path d="M515.3 9.5 c0 -4.4 0.2 -6.1 0.4 -3.7 0.2 2.3 0.2 5.9 0 8 -0.2 2 -0.4 0.1 -0.4 -4.3z"/>
 </g>
</svg>