<?xml version="1.0" encoding="utf-8"?>
<!DOCTYPE svg PUBLIC "-//W3C//DTD SVG 20010904//EN" "http://www.w3.org/TR/2001/REC-SVG-20010904/DTD/svg10.dtd">
<svg version="1.0" xmlns="http://www.w3.org/2000/svg" width="533px" height="202px" viewBox="0 0 533 202" preserveAspectRatio="xMidYMid meet">
 <g fill="#ffffff">
  <path d="M450.7 195.4 c-0.3 -0.3 0.7 -2.3 2.3 -4.3 1.6 -2 3.8 -5.9 4.8 -8.6 1.1 -2.8 2.9 -6.6 4 -8.5 1.2 -1.9 4.1 -8.7 6.5 -15 2.4 -6.3 4.8 -12.3 5.2 -13.3 0.7 -1.6 0.1 -1.5 -5.7 0.7 -3.6 1.3 -9.6 3.8 -13.4 5.4 -13.2 5.8 -50.6 15.5 -77.4 20.2 -9.6 1.7 -20.9 3.7 -25 4.5 -12.1 2.4 -38.5 4.6 -68.5 5.5 -15.4 0.5 -35.9 1.2 -45.5 1.6 -17.6 0.7 -35.7 -0.3 -61 -3.1 -6.9 -0.8 -29.8 -2.1 -51 -3 -49.7 -2.1 -83.5 -6.1 -93.1 -11.1 -4.5 -2.3 -4.7 -6.4 -0.7 -13.2 1.9 -3.1 4.2 -5.8 5.1 -6 4.3 -0.8 6.2 5.2 3.2 9.5 -1.5 2.2 -1.4 2.3 5.2 4.2 17.2 4.9 74.7 13.2 81.7 11.8 1.5 -0.3 1.3 -0.5 -0.7 -0.6 -1.6 0 -5.3 -0.8 -8.3 -1.7 -4.2 -1.2 -5.5 -2.1 -6 -4 -0.3 -1.3 -1 -2.1 -1.5 -1.8 -0.5 0.2 -1.8 0 -2.9 -0.6 -2.5 -1.3 -2.8 -8.6 -0.4 -13.1 0.8 -1.7 1.4 -3.3 1.1 -3.5 -0.2 -0.3 -12.1 0.1 -26.3 0.7 -14.3 0.7 -27.9 1.2 -30.2 1.2 -8.9 -0.1 -11.9 -4.3 -8.8 -12.3 5 -12.9 8.7 -29.9 9.1 -40.7 0.1 -5 0.8 -14.4 1.5 -20.9 1 -9.2 1 -18.8 0.3 -41.9 -0.6 -16.5 -1.4 -30.8 -1.8 -31.8 -0.6 -1.4 -0.2 -1.7 2 -1.7 l2.8 0 -0.7 38.3 c-0.4 21 -1.2 40.2 -1.7 42.7 -0.6 2.5 -0.9 9 -0.7 14.5 0.2 7.8 -0.2 11.8 -1.9 18 -1.2 4.4 -2.6 10.3 -3.1 13 -0.6 2.8 -1.8 7.6 -2.8 10.8 -1.1 3.8 -1.4 6.1 -0.8 6.7 0.6 0.6 13.6 1.2 32.6 1.4 l31.6 0.4 2.3 -2.4 c1.2 -1.3 3.9 -3.5 6 -5 l3.8 -2.6 7.3 1.7 c13.3 3.1 20.3 4.3 28.9 5 4.6 0.3 10.4 1.1 12.9 1.7 3.5 0.8 7.9 0.7 18.5 -0.5 7.7 -0.9 18.5 -1.9 24 -2.2 5.5 -0.3 15.9 -1.3 23 -2 7.9 -0.9 23.3 -1.5 39.5 -1.5 25.4 0 61.5 -1.9 78.5 -4 4.4 -0.6 14.8 -1.5 23 -2 8.3 -0.6 18.8 -1.7 23.5 -2.5 5.1 -0.9 15.3 -1.5 25.5 -1.6 13.6 -0.1 16.2 -0.3 13 -1.1 -2.2 -0.6 -12.5 -3.5 -23 -6.5 -43.6 -12.5 -64.1 -18.6 -64.9 -19.4 -1.6 -1.4 0.2 -1.1 10.9 2.2 26.1 7.9 73.2 21.1 83.5 23.4 6.3 1.4 16.2 3.9 21.9 5.6 5.7 1.7 10.7 2.7 11.2 2.2 0.8 -0.8 17.7 -36.4 23.5 -49.4 1.9 -4.2 5.3 -14.6 7.6 -23 l4.3 -15.4 0 -23.2 c0 -12.8 0.3 -23.3 0.8 -23.3 1 0 0.8 44.7 -0.2 49 -6.8 27.1 -9.2 33.6 -25.9 68.1 l-9 18.7 2.5 1.1 c1.3 0.6 3.7 1.1 5.4 1.1 3.1 0 4.9 2.4 3.1 4.2 -0.5 0.5 -4.3 1.3 -8.3 1.6 l-7.4 0.7 -2.9 7.5 c-3 7.6 -6.3 15.5 -13.1 31 -3.7 8.3 -7.5 13.7 -8.8 12.4z"/>
  <path d="M229.9 84.1 l-2.4 -1.9 2.8 -5.6 c3.1 -6.4 3.6 -13.3 1.2 -17 -2.5 -3.8 0.5 -7.8 4.2 -5.7 1.1 0.5 2.1 0.3 3.3 -0.9 1 -1 5.8 -2.7 10.8 -3.9 10.9 -2.6 22 -2.8 26.8 -0.5 3.9 1.9 8.4 8.7 8.4 12.7 0 3.7 -4.4 8.3 -9.8 10.2 -2.6 1 -7.8 3 -11.7 4.6 -11.9 4.9 -26.6 9.9 -29 9.9 -1.3 0 -3.3 -0.9 -4.6 -1.9z"/>
  <path d="M352 82.6 c-1.4 -1.7 0.3 -19.1 2.1 -21.3 0.8 -0.8 0.7 -2.3 -0.1 -4.7 -2 -6.2 0.6 -9.7 8.3 -11 2 -0.4 6.9 -2 10.9 -3.6 13.7 -5.6 17.6 -5 20.3 3 0.9 2.6 2.4 5.5 3.5 6.5 5 4.5 4.2 9.8 -2.6 17.2 -3.1 3.5 -5.5 4.8 -12.4 7.2 -4.7 1.6 -11.2 4.1 -14.5 5.5 -6.7 2.9 -13.6 3.4 -15.5 1.2z"/>
  <path d="M120.5 62.5 c-8.5 -3.6 -29.1 -9.5 -33 -9.5 -3.6 0 -6 -2.1 -5.1 -4.5 0.5 -1.4 1.7 -2.1 11.3 -6 2.4 -1 4.5 -2.6 4.9 -3.7 0.8 -2.5 -0.4 -7.4 -2.2 -8.9 -1.8 -1.5 -1.8 -3.3 0.1 -4.9 1.1 -0.9 6.6 -1 23.2 -0.3 l21.8 0.8 0.3 3.1 c0.2 1.7 -0.7 5.8 -1.9 9 -1.5 4.2 -2.2 8.6 -2.4 15.3 -0.2 7.8 -0.5 9.7 -2.1 10.8 -2.7 2 -8.2 1.5 -14.9 -1.2z"/>
 </g>
 <g fill="#000000">
  <path d="M452.4 192.8 c0.9 -1.3 4.4 -8 7.8 -15.1 3.3 -7 6.3 -12.5 6.5 -12.3 0.2 0.2 -1 3.1 -2.6 6.5 -1.7 3.4 -4.1 8.5 -5.2 11.4 -2.3 5.8 -5.9 11.7 -7.3 11.7 -0.5 0 -0.1 -1 0.8 -2.2z"/>
  <path d="M230.4 178.9 c-4 -1.1 -5.7 -3.2 -4.9 -5.8 0.9 -2.9 2.9 -3.2 9.2 -1.6 4.2 1.1 12 1.5 30.5 1.6 22.5 0 24.9 0.2 25.7 1.8 0.5 0.9 0.7 2.2 0.3 2.8 -0.9 1.3 -56.5 2.5 -60.8 1.2z"/>
  <path d="M120 177 c-49.9 -2.4 -82.6 -6.7 -88.2 -11.8 -2.4 -2 -2.3 -7.7 0 -11 1 -1.5 2.2 -3.5 2.5 -4.4 0.4 -1.2 1.7 -1.8 3.6 -1.8 3.9 0 5 3.4 2.7 7.8 -0.9 1.7 -1.3 3.3 -0.8 3.5 2.2 1.3 9.7 3.1 26.2 6.2 19.2 3.7 24.4 4.4 74.5 9.6 16.5 1.7 30.2 3.3 30.4 3.5 0.7 0.6 -10.6 0.3 -50.9 -1.6z"/>
  <path d="M133 172.4 c-6.3 -0.7 -13 -1.6 -14.8 -2 -4.1 -0.8 -6.5 -3.9 -5.1 -6.6 1.3 -2.3 1.9 -2.3 25.4 1.6 11.3 2 17.8 2.6 22.1 2.2 7.1 -0.7 8.9 0.9 5.2 4.4 -1.9 1.7 -3.4 2 -11.7 1.9 -5.3 -0.1 -14.8 -0.8 -21.1 -1.5z"/>
  <path d="M228 163.8 c-2.8 -1.5 -3.5 -3.5 -2.1 -5.8 0.8 -1.1 3.2 -1.4 12.5 -1.1 6.3 0.1 18.5 -0.3 27.1 -1 13.5 -1 15.8 -1 17.1 0.3 2.9 2.8 0.7 4.8 -5.5 4.8 -3.1 0 -9.9 0.7 -15.1 1.5 -14.9 2.3 -31 2.9 -34 1.3z"/>
  <path d="M106.6 162.4 c-1.1 -3 -0.6 -7.5 1.4 -11.4 l2 -4 -7.7 0 c-4.3 0 -18.3 0.5 -31 1.1 -20.9 1 -23.5 1 -25.7 -0.5 -3.5 -2.3 -3.9 -4.7 -1.7 -10.8 3.4 -9.4 4 -11.1 6.3 -20.8 1.3 -5.6 2.5 -14.6 2.8 -22 l0.6 -12.5 0.2 12.5 c0.1 10 -0.2 13.8 -1.8 18.8 -1.1 3.5 -2 7.7 -2 9.3 0 1.6 -1.1 6.2 -2.5 10.1 -2.8 7.9 -3.1 11.3 -1.3 12.4 0.6 0.4 15.3 0.9 32.6 1.1 l31.3 0.3 4.2 -4.1 c6.2 -5.9 7.1 -6 24.5 -2 5.1 1.2 13.4 2.4 18.5 2.7 5 0.3 10.8 1.1 12.7 1.7 1.9 0.5 6 1 9 1 l5.5 -0.1 -4.5 0.7 c-4.1 0.6 -4.3 0.7 -1.8 1.4 7.4 2 4.9 8.9 -4.3 12 -6.1 2 -19.3 3.3 -23.2 2.3 -3.8 -0.9 -5.3 -4.1 -3.2 -7.2 1.4 -2.2 2.2 -2.4 9.8 -2.5 8.1 -0.2 8.1 -0.2 -3.3 -1 -6.3 -0.4 -15.7 -1.5 -20.9 -2.5 -7.8 -1.4 -9.7 -1.4 -11.8 -0.3 -2.8 1.5 -7.3 8.6 -7.3 11.5 0 1.1 -0.5 2.5 -1.2 3.2 -1.7 1.7 -5.5 1.5 -6.2 -0.4z"/>
  <path d="M452 150.4 c6.3 -3.1 14.2 -6.6 17.4 -7.9 l5.9 -2.2 -7.9 -2.6 c-24.6 -8 -24.1 -7.9 -41.4 -8.7 l-16.5 -0.7 17.3 -0.1 17.3 -0.2 11 3.6 c6 2 11.2 3.4 11.5 3.1 0.5 -0.4 -12 -4.8 -20.1 -7 -1.1 -0.3 0 -0.3 2.5 0 2.5 0.3 9.9 2.1 16.5 4 6.6 1.9 12.4 3.5 12.8 3.6 1.2 0.3 25.5 -51.5 28.3 -60.2 1.3 -4.2 3.3 -11.3 4.5 -15.9 1.2 -4.6 2.3 -8.1 2.5 -7.9 0.3 0.2 -1.1 6.2 -3 13.3 -3.7 13.9 -6.1 19.8 -21 50.9 -8.5 18 -9.3 20.1 -7.9 21.3 0.9 0.6 2.9 1.2 4.3 1.2 3.4 0 6.9 2.5 5.5 3.9 -0.6 0.6 -4.5 1.4 -8.7 1.7 l-7.6 0.7 -1.7 4.4 c-1 2.4 -1.9 4.2 -2.1 4 -0.2 -0.2 0.3 -2.1 1.1 -4.2 0.9 -2 1.4 -3.9 1.2 -4.2 -0.5 -0.4 -11.7 3.8 -24.2 9.1 -10.8 4.6 -9.3 2.7 2.5 -3z"/>
  <path d="M229.3 83.4 c-0.3 -1 -0.1 -3.1 0.7 -4.8 4.3 -10.5 4.4 -11.5 2.5 -17.1 -0.9 -2.9 -1.4 -5.8 -1.1 -6.4 0.9 -1.5 4.3 -1.4 5.2 0.1 0.5 0.8 1 0.5 1.5 -0.9 1.7 -4.6 29.6 -9.1 37 -6 4 1.6 8.4 6.7 9.4 10.8 1.1 4.4 -1.9 8.7 -7.8 11.5 -2.9 1.3 -5.8 2.4 -6.5 2.4 -0.7 0 -2.7 0.7 -4.5 1.7 -1.8 0.9 -8.6 3.6 -15.1 6 -12.9 4.6 -20.2 5.6 -21.3 2.7z"/>
  <path d="M353.1 83 c-2.1 -0.9 -2.3 -1.5 -1.8 -5.3 0.4 -2.3 0.9 -6.8 1.3 -10 0.4 -3.2 1.2 -6.1 1.9 -6.3 1 -0.4 1 -1.4 0 -4.7 -1.8 -5.9 -0.6 -8.3 4.7 -9.7 2.4 -0.7 8.4 -2.7 13.3 -4.6 13.3 -5 20.5 -4.2 20.5 2.3 0 1.1 1.6 4 3.5 6.4 1.9 2.4 3.5 5.5 3.5 6.9 0 3.3 -6.3 12.6 -9.8 14.3 -1.5 0.8 -4 1.7 -5.6 2.1 -1.6 0.4 -7 2.5 -12 4.6 -10 4.3 -15.9 5.5 -19.5 4z"/>
  <path d="M54.7 41.5 c-0.4 -18.7 -1.1 -35.7 -1.6 -37.7 -0.8 -3.4 -0.7 -3.8 1 -3.8 1.1 0 2.1 0.9 2.4 2.3 0.3 1.2 0.2 18.2 -0.2 37.7 l-0.8 35.5 -0.8 -34z"/>
  <path d="M121.5 62.5 c-8.7 -3.6 -28.7 -9.5 -32.3 -9.5 -4.5 0 -6.2 -0.9 -6.2 -3.4 0 -2.5 2.2 -4 8 -5.6 2.3 -0.6 5.3 -2.2 6.7 -3.6 2.7 -2.7 2.5 -4.9 -0.9 -9.8 -2.9 -4 -1.4 -6.1 4.1 -6.1 42.3 0.5 39 0.3 40.2 2.9 0.9 2 0.6 4 -1.5 10.7 -2 6.3 -2.6 10 -2.5 15.7 0.2 6.7 -0.1 7.8 -2.1 9.4 -3 2.4 -6.3 2.2 -13.5 -0.7z"/>
 </g>
 <g fill="#ff7f27">
  <path d="M237.8 77.4 c-0.4 -0.3 0.1 -2.6 0.9 -5.1 1.9 -5.5 1.2 -11.5 -1.8 -15.7 l-2.2 -3.1 2.5 2.3 c2.9 2.6 5 2.7 10.8 0.7 2.3 -0.8 7.6 -1.8 11.9 -2.1 9.1 -0.8 14.4 0.6 16.8 4.2 1.4 2.3 1.4 2.6 -0.2 4.4 -1 1.1 -3.4 2.5 -5.4 3.1 -2 0.6 -6.2 2.5 -9.4 4.1 -3.2 1.6 -9.7 4 -14.3 5.4 -9.5 2.7 -8.9 2.6 -9.6 1.8z"/>
  <path d="M359.4 74.9 c-0.3 -0.6 0.3 -2.4 1.6 -4.1 3 -4 3.5 -8.6 1.6 -13.3 -0.9 -2.1 -1.5 -3.9 -1.4 -4 0.2 -0.2 4.4 -1.5 9.3 -2.9 5 -1.5 10.2 -3.1 11.8 -3.6 2.5 -0.8 2.8 -0.6 4.3 2.8 0.8 2 2.4 4.7 3.6 5.9 1.8 2 1.9 2.6 0.9 5.2 -2 4.6 -4.8 6.4 -16.9 10.9 -12 4.5 -13.7 4.8 -14.8 3.1z"/>
  <path d="M124 56.9 c-3 -1.1 -10.2 -3.1 -15.9 -4.5 -12.3 -2.9 -14.4 -3.8 -11.3 -4.9 6.5 -2 10.5 -9 8.3 -14.6 l-0.9 -2.6 11.1 -0.6 c17.5 -1.1 21.7 -0.9 21.7 0.7 0 0.7 -1.1 4.4 -2.6 8.1 -1.4 3.8 -2.8 9.7 -3.1 13.2 -0.3 3.5 -0.9 6.5 -1.2 6.7 -0.4 0.3 -3.1 -0.5 -6.1 -1.5z"/>
 </g>
 <g fill="#404040">
  <path d="M458.1 182.3 c1.1 -3.4 1.9 -4.2 1.9 -2 0 0.7 -0.7 2.2 -1.5 3.3 -1.3 1.7 -1.4 1.6 -0.4 -1.3z"/>
  <path d="M222.3 183.3 c3.7 -0.2 9.6 -0.2 13 0 3.4 0.2 0.4 0.3 -6.8 0.3 -7.1 0 -9.9 -0.1 -6.2 -0.3z"/>
  <path d="M203.7 182.3 c1.8 -0.2 5 -0.2 7 0 2.1 0.2 0.7 0.4 -3.2 0.4 -3.8 0 -5.5 -0.2 -3.8 -0.4z"/>
  <path d="M246.3 182.3 c2 -0.2 5.4 -0.2 7.5 0 2 0.2 0.3 0.4 -3.8 0.4 -4.1 0 -5.8 -0.2 -3.7 -0.4z"/>
  <path d="M191.8 181.3 c1.8 -0.2 4.5 -0.2 6 0 1.5 0.2 0 0.4 -3.3 0.4 -3.3 0 -4.5 -0.2 -2.7 -0.4z"/>
  <path d="M269.3 181.3 c5.9 -0.2 15.4 -0.2 21 0 5.6 0.1 0.8 0.3 -10.8 0.3 -11.5 0 -16.1 -0.2 -10.2 -0.3z"/>
  <path d="M181.8 180.3 c1.2 -0.2 3.2 -0.2 4.5 0 1.2 0.2 0.2 0.4 -2.3 0.4 -2.5 0 -3.5 -0.2 -2.2 -0.4z"/>
  <path d="M304.8 180.3 c1.8 -0.2 4.5 -0.2 6 0 1.5 0.2 0 0.4 -3.3 0.4 -3.3 0 -4.5 -0.2 -2.7 -0.4z"/>
  <path d="M173.8 179.3 c1.2 -0.2 3 -0.2 4 0 0.9 0.3 -0.1 0.5 -2.3 0.4 -2.2 0 -3 -0.2 -1.7 -0.4z"/>
  <path d="M245.3 179.3 c2 -0.2 5.4 -0.2 7.5 0 2 0.2 0.3 0.4 -3.8 0.4 -4.1 0 -5.8 -0.2 -3.7 -0.4z"/>
  <path d="M316.3 179.3 c1.5 -0.2 3.7 -0.2 5 0 1.2 0.2 0 0.4 -2.8 0.4 -2.7 0 -3.8 -0.2 -2.2 -0.4z"/>
  <path d="M158.5 178 c2.8 -1.2 5.5 -1.2 5.5 0 0 0.6 -1.7 1 -3.7 0.9 -3.1 0 -3.4 -0.2 -1.8 -0.9z"/>
  <path d="M326.8 178.3 c1.7 -0.2 4.7 -0.2 6.5 0 1.7 0.2 0.3 0.4 -3.3 0.4 -3.6 0 -5 -0.2 -3.2 -0.4z"/>
  <path d="M135.3 177.3 c1.5 -0.2 3.9 -0.2 5.5 0 1.5 0.2 0.2 0.4 -2.8 0.4 -3 0 -4.3 -0.2 -2.7 -0.4z"/>
  <path d="M337.1 177.6 c0.2 -0.2 3.3 -0.6 6.9 -0.9 4.1 -0.3 5.4 -0.2 3.5 0.3 -3.1 0.8 -11.2 1.3 -10.4 0.6z"/>
  <path d="M463.2 171.5 c1.8 -3.5 3.4 -6.3 3.6 -6.1 0.4 0.5 -5.6 12.6 -6.3 12.6 -0.3 0 1 -2.9 2.7 -6.5z"/>
  <path d="M113.3 176.3 c1.5 -0.2 3.9 -0.2 5.5 0 1.5 0.2 0.2 0.4 -2.8 0.4 -3 0 -4.3 -0.2 -2.7 -0.4z"/>
  <path d="M89.8 175.3 c1.2 -0.2 3 -0.2 4 0 0.9 0.3 -0.1 0.5 -2.3 0.4 -2.2 0 -3 -0.2 -1.7 -0.4z"/>
  <path d="M356.5 174.4 c3.3 -0.7 6.9 -1.3 8 -1.3 1.1 0.1 -0.7 0.7 -4 1.5 -3.3 0.7 -6.9 1.3 -8 1.3 -1.1 -0.1 0.7 -0.7 4 -1.5z"/>
  <path d="M283 174 l-7.5 -0.6 7.2 -0.2 c3.9 -0.1 7.5 0.3 7.8 0.8 0.3 0.6 0.5 0.9 0.3 0.8 -0.2 -0.1 -3.7 -0.4 -7.8 -0.8z"/>
  <path d="M262.8 173.3 c2.3 -0.2 5.9 -0.2 8 0 2 0.2 0.1 0.4 -4.3 0.4 -4.4 0 -6.1 -0.2 -3.7 -0.4z"/>
  <path d="M373 171.5 c3.6 -0.7 8.8 -1.6 11.5 -1.9 4.4 -0.4 4.2 -0.3 -1.5 0.9 -3.6 0.7 -8.7 1.6 -11.5 1.9 -4.4 0.4 -4.2 0.3 1.5 -0.9z"/>
  <path d="M397 167 c1.4 -0.4 3.4 -0.8 4.5 -0.8 1.6 0 1.5 0.2 -0.5 0.8 -1.4 0.4 -3.4 0.8 -4.5 0.8 -1.6 0 -1.5 -0.2 0.5 -0.8z"/>
  <path d="M233.3 164.3 c2 -0.2 5.4 -0.2 7.5 0 2 0.2 0.3 0.4 -3.8 0.4 -4.1 0 -5.8 -0.2 -3.7 -0.4z"/>
  <path d="M408.1 164.6 c0.7 -0.7 21.1 -5.7 21.6 -5.3 0.2 0.2 -4.4 1.6 -10.1 3.1 -10.7 2.6 -12.3 2.9 -11.5 2.2z"/>
  <path d="M467.6 162 c0.4 -1.4 1.3 -3.8 2 -5.5 1.1 -2.4 1.3 -2.5 0.8 -0.5 -0.4 1.4 -1.3 3.9 -2 5.5 -1.1 2.4 -1.3 2.5 -0.8 0.5z"/>
  <path d="M153.3 161.3 c2 -0.2 5.4 -0.2 7.5 0 2 0.2 0.3 0.4 -3.8 0.4 -4.1 0 -5.8 -0.2 -3.7 -0.4z"/>
  <path d="M434 157.5 c1.9 -0.7 4.2 -1.3 5 -1.3 0.8 0 -0.1 0.6 -2 1.3 -1.9 0.7 -4.2 1.3 -5 1.3 -0.8 0 0.1 -0.6 2 -1.3z"/>
  <path d="M240.8 157.3 c2.3 -0.2 6.1 -0.2 8.5 0 2.3 0.2 0.4 0.4 -4.3 0.4 -4.7 0 -6.6 -0.2 -4.2 -0.4z"/>
  <path d="M259.8 156.3 c1.2 -0.2 3 -0.2 4 0 0.9 0.3 -0.1 0.5 -2.3 0.4 -2.2 0 -3 -0.2 -1.7 -0.4z"/>
  <path d="M273.8 155.3 c1.8 -0.2 4.5 -0.2 6 0 1.5 0.2 0 0.4 -3.3 0.4 -3.3 0 -4.5 -0.2 -2.7 -0.4z"/>
  <path d="M151.7 152.3 c1.8 -0.2 5 -0.2 7 0 2.1 0.2 0.7 0.4 -3.2 0.4 -3.8 0 -5.5 -0.2 -3.8 -0.4z"/>
  <path d="M471.1 152.5 c0 -0.5 0.9 -2.8 2 -5 1 -2.2 1.6 -2.9 1.3 -1.5 -0.7 2.8 -3.3 8 -3.3 6.5z"/>
  <path d="M150.8 150.3 c1.2 -0.2 3.2 -0.2 4.5 0 1.2 0.2 0.2 0.4 -2.3 0.4 -2.5 0 -3.5 -0.2 -2.2 -0.4z"/>
  <path d="M74.3 147.3 c2 -0.2 5.4 -0.2 7.5 0 2 0.2 0.3 0.4 -3.8 0.4 -4.1 0 -5.8 -0.2 -3.7 -0.4z"/>
  <path d="M100.8 146.3 c1.7 -0.2 4.7 -0.2 6.5 0 1.7 0.2 0.3 0.4 -3.3 0.4 -3.6 0 -5 -0.2 -3.2 -0.4z"/>
  <path d="M175 145.8 c0 -0.4 2.1 -0.8 4.8 -0.7 5.2 0.1 4.8 0.6 -1 1.1 -2.1 0.2 -3.8 0 -3.8 -0.4z"/>
  <path d="M65.3 145.3 c3.2 -0.2 8.1 -0.2 11 0 2.9 0.2 0.3 0.3 -5.8 0.3 -6 0 -8.4 -0.1 -5.2 -0.3z"/>
  <path d="M186.8 144.3 c1.2 -0.2 3 -0.2 4 0 0.9 0.3 -0.1 0.5 -2.3 0.4 -2.2 0 -3 -0.2 -1.7 -0.4z"/>
  <path d="M195.3 143.3 c1.5 -0.2 3.7 -0.2 5 0 1.2 0.2 0 0.4 -2.8 0.4 -2.7 0 -3.8 -0.2 -2.2 -0.4z"/>
  <path d="M478.3 143.3 c1.5 -0.2 3.7 -0.2 5 0 1.2 0.2 0 0.4 -2.8 0.4 -2.7 0 -3.8 -0.2 -2.2 -0.4z"/>
  <path d="M206.8 142.3 c2.3 -0.2 5.9 -0.2 8 0 2 0.2 0.1 0.4 -4.3 0.4 -4.4 0 -6.1 -0.2 -3.7 -0.4z"/>
  <path d="M222.3 141.3 c1.5 -0.2 3.7 -0.2 5 0 1.2 0.2 0 0.4 -2.8 0.4 -2.7 0 -3.8 -0.2 -2.2 -0.4z"/>
  <path d="M231.8 140.3 c1.2 -0.2 3.2 -0.2 4.5 0 1.2 0.2 0.2 0.4 -2.3 0.4 -2.5 0 -3.5 -0.2 -2.2 -0.4z"/>
  <path d="M474.3 140.2 c-0.9 -0.6 -0.8 -1.1 0.5 -1.9 1.3 -0.8 2.6 -0.7 4.7 0.2 l3 1.3 -4 -0.5 c-3 -0.3 -3.6 -0.2 -2.5 0.6 1.7 1.2 0.2 1.5 -1.7 0.3z"/>
  <path d="M241.3 139.3 c1.5 -0.2 3.9 -0.2 5.5 0 1.5 0.2 0.2 0.4 -2.8 0.4 -3 0 -4.3 -0.2 -2.7 -0.4z"/>
  <path d="M266.3 138.3 c8.6 -0.2 22.8 -0.2 31.5 0 8.6 0.1 1.5 0.3 -15.8 0.3 -17.3 0 -24.4 -0.2 -15.7 -0.3z"/>
  <path d="M317.8 137.3 c1.7 -0.2 4.7 -0.2 6.5 0 1.7 0.2 0.3 0.4 -3.3 0.4 -3.6 0 -5 -0.2 -3.2 -0.4z"/>
  <path d="M331.7 136.3 c1.8 -0.2 5 -0.2 7 0 2.1 0.2 0.7 0.4 -3.2 0.4 -3.8 0 -5.5 -0.2 -3.8 -0.4z"/>
  <path d="M479.7 136.2 c-0.3 -0.4 5.1 -12.6 12 -27.1 12.3 -26.1 15.1 -33.4 19.4 -49.9 1.2 -4.6 2.3 -8.1 2.5 -7.9 0.6 0.6 -6.1 25.4 -8.1 30.2 -1 2.2 -6.9 15 -13.3 28.5 -6.3 13.4 -11.5 25 -11.5 25.7 0 1.5 -0.4 1.6 -1 0.5z"/>
  <path d="M345.8 135.3 c1.2 -0.2 3.2 -0.2 4.5 0 1.2 0.2 0.2 0.4 -2.3 0.4 -2.5 0 -3.5 -0.2 -2.2 -0.4z"/>
  <path d="M354.8 134.3 c1.2 -0.2 3 -0.2 4 0 0.9 0.3 -0.1 0.5 -2.3 0.4 -2.2 0 -3 -0.2 -1.7 -0.4z"/>
  <path d="M363.3 133.3 c1.5 -0.2 3.9 -0.2 5.5 0 1.5 0.2 0.2 0.4 -2.8 0.4 -3 0 -4.3 -0.2 -2.7 -0.4z"/>
  <path d="M375.8 132.3 c2.3 -0.2 6.1 -0.2 8.5 0 2.3 0.2 0.4 0.4 -4.3 0.4 -4.7 0 -6.6 -0.2 -4.2 -0.4z"/>
  <path d="M391.3 131.3 c0.9 -0.2 2.5 -0.2 3.5 0 0.9 0.3 0.1 0.5 -1.8 0.5 -1.9 0 -2.7 -0.2 -1.7 -0.5z"/>
  <path d="M399.5 130.1 c3.1 -0.9 10.2 -1.4 9.4 -0.7 -0.2 0.2 -3.1 0.6 -6.4 0.9 -3.9 0.4 -5 0.3 -3 -0.2z"/>
  <path d="M448.6 128.9 c0.5 -0.8 -0.4 -1 -3.2 -0.6 -3.6 0.6 -3.7 0.6 -1.1 -0.4 1.9 -0.7 3.6 -0.8 5 -0.2 1.9 0.9 1.9 1 0.3 1.6 -1.1 0.5 -1.5 0.3 -1 -0.4z"/>
  <path d="M413.8 128.3 c2.3 -0.2 6.1 -0.2 8.5 0 2.3 0.2 0.4 0.4 -4.3 0.4 -4.7 0 -6.6 -0.2 -4.2 -0.4z"/>
  <path d="M48.3 124.4 c-0.3 -0.8 -0.1 -2 0.6 -2.7 0.8 -0.8 1.1 -0.4 1.1 1.6 0 3 -0.7 3.5 -1.7 1.1z"/>
  <path d="M432.5 124.5 c-5.4 -1.7 -3.3 -1.8 3 -0.1 2.8 0.8 4.1 1.4 3 1.4 -1.1 0 -3.8 -0.5 -6 -1.3z"/>
  <path d="M423.5 122 c-1.3 -0.5 -1.4 -0.9 -0.5 -0.9 0.8 0 2.4 0.4 3.5 0.9 1.3 0.5 1.4 0.9 0.5 0.9 -0.8 0 -2.4 -0.4 -3.5 -0.9z"/>
  <path d="M416.5 120 c-1.3 -0.5 -1.4 -0.9 -0.5 -0.9 0.8 0 2.4 0.4 3.5 0.9 1.3 0.5 1.4 0.9 0.5 0.9 -0.8 0 -2.4 -0.4 -3.5 -0.9z"/>
  <path d="M394.2 113.7 c-9.5 -2.7 -17.1 -5.2 -16.8 -5.4 0.4 -0.4 35.8 9.5 36.5 10.3 1 1 -3.5 -0.1 -19.7 -4.9z"/>
  <path d="M366.5 105.5 c-3.8 -1.3 -6.5 -2.3 -6 -2.4 0.6 0 4.4 1 8.5 2.3 4.1 1.3 6.8 2.4 6 2.4 -0.8 0 -4.6 -1 -8.5 -2.3z"/>
  <path d="M353.5 101.5 c-3.9 -1.7 -2.1 -1.8 2.5 0 1.9 0.7 2.8 1.4 2 1.4 -0.8 0 -2.8 -0.6 -4.5 -1.4z"/>
  <path d="M53.3 88.5 c0 -3.8 0.2 -5.3 0.4 -3.2 0.2 2 0.2 5.2 0 7 -0.2 1.7 -0.4 0.1 -0.4 -3.8z"/>
  <path d="M55.4 61 c0 -8 0.2 -11.2 0.3 -7.2 0.2 3.9 0.2 10.5 0 14.5 -0.1 3.9 -0.3 0.7 -0.3 -7.3z"/>
  <path d="M236.6 56.2 l-1.9 -2.7 2.6 2.4 c2.8 2.6 3.2 3.1 2 3.1 -0.5 0 -1.7 -1.3 -2.7 -2.8z"/>
  <path d="M515.4 23 c0 -12.4 0.2 -17.4 0.3 -11.2 0.2 6.1 0.2 16.3 0 22.5 -0.1 6.1 -0.3 1.1 -0.3 -11.3z"/>
  <path d="M54.4 22 c0 -5.2 0.1 -7.4 0.3 -4.7 0.2 2.6 0.2 6.8 0 9.5 -0.2 2.6 -0.3 0.4 -0.3 -4.8z"/>
  <path d="M95.1 27.9 c-0.1 -2.6 2.5 -4.1 6.6 -3.6 l3.8 0.4 -4.3 0.1 c-3.4 0.2 -4.4 0.7 -5.2 2.5 -0.6 1.5 -0.9 1.7 -0.9 0.6z"/>
  <path d="M56.3 22.5 c0 -3.3 0.2 -4.5 0.4 -2.7 0.2 1.8 0.2 4.5 0 6 -0.2 1.5 -0.4 0 -0.4 -3.3z"/>
  <path d="M127.3 25.3 c2 -0.2 5.4 -0.2 7.5 0 2 0.2 0.3 0.4 -3.8 0.4 -4.1 0 -5.8 -0.2 -3.7 -0.4z"/>
 </g>
</svg>