<?xml version="1.0" encoding="utf-8"?>
<!DOCTYPE svg PUBLIC "-//W3C//DTD SVG 20010904//EN" "http://www.w3.org/TR/2001/REC-SVG-20010904/DTD/svg10.dtd">
<svg version="1.0" xmlns="http://www.w3.org/2000/svg" width="407px" height="297px" viewBox="0 0 407 297" preserveAspectRatio="xMidYMid meet">
 <g fill="#ffffff">
  <path d="M112.5 293.4 c-1.4 -3.5 -3 -12.4 -5.6 -31.7 -1 -8 -1.5 -9.3 -5.7 -15 -2.5 -3.4 -4.7 -6.3 -4.8 -6.5 -0.1 -0.2 -2 0.6 -4.3 1.7 -4.7 2.5 -10.3 2.7 -12.1 0.6 -2 -2.4 -0.4 -6.4 2.8 -7.1 1.5 -0.3 3.8 -1 5.2 -1.5 2.4 -1 2.3 -1.1 -1.8 -2.9 -12.9 -5.8 -28 -27.9 -29.6 -43.5 -0.6 -5.1 -0.3 -6.7 1.6 -10.5 2.9 -5.7 6.3 -7.4 12.1 -6.2 4 0.8 4.4 0.7 9.2 -3.6 2.7 -2.4 8.4 -6.2 12.7 -8.3 4.3 -2.2 7.8 -4.6 7.8 -5.3 0 -0.8 0.3 -2.1 0.6 -3 0.3 -0.8 -0.3 -2.2 -1.5 -3.3 -1.2 -0.9 -2.1 -2.5 -2.1 -3.3 0 -1.1 -1.6 -2 -5 -2.9 -2.7 -0.7 -6.8 -2.6 -9.1 -4.3 -3 -2.1 -4.4 -2.7 -5.2 -1.9 -1.9 1.9 -6 1.2 -8.9 -1.6 -1.5 -1.5 -2.8 -2.2 -2.8 -1.5 0 0.6 -0.9 1.6 -2.1 2.2 -2.3 1.3 -10.2 -0.9 -14.1 -3.9 -1.3 -1 -3.8 -1.8 -5.6 -1.8 -6.3 0 -17.9 -10.5 -28 -25.3 -3.5 -5.2 -3.7 -6 -4 -14.6 -0.3 -8.1 0 -10.1 2.7 -18.1 1.7 -5 3.1 -10.3 3.1 -11.9 0 -3.6 4.9 -14 8.2 -17.6 3.8 -4 7.8 -5.6 18 -7.4 5.1 -0.8 15.8 -3.3 23.8 -5.5 28.4 -7.7 44.5 -8.8 52.9 -3.5 l4.3 2.8 31.2 -1.2 c17.1 -0.6 33.3 -1.5 35.9 -2 2.6 -0.6 16 -1 29.6 -1 20.2 0 25.1 0.3 26 1.4 2.1 2.5 -0.7 3 -16.8 2.7 -31.4 -0.6 -41.8 -0.5 -51.1 0.7 -20.4 2.4 -26.8 3.1 -35.2 3.7 -4.9 0.4 -8.8 1 -8.8 1.5 0 1.5 4.4 1.9 12.4 0.9 4.5 -0.5 23 -1.6 41.1 -2.5 18.2 -0.8 39.3 -2 47 -2.6 7.7 -0.6 19.2 -1.2 25.5 -1.2 l11.5 -0.1 0 3.4 c0 1.9 -0.6 3.6 -1.2 3.9 -0.9 0.2 -1.3 -0.7 -1.3 -2.7 l0 -3.1 -9.7 0 c-11.3 0 -27.3 1.5 -38.8 3.7 -4.4 0.8 -15.2 2.1 -24 2.8 -29.5 2.5 -41.5 3.9 -40.8 4.6 1.8 1.8 25 3.3 52.8 3.5 16.5 0.2 30.1 0.7 30.2 1.1 0.2 0.5 -10.6 0.7 -25.1 0.5 -14 -0.3 -28.9 -0.1 -33.2 0.3 l-7.9 0.8 6 1.2 c3.3 0.7 8.5 1.8 11.5 2.4 8.3 1.6 14.9 1.6 47 -0.2 70.2 -4.1 87 -4.6 87 -2.8 0 1.2 -16 2.2 -37.5 2.3 -13.8 0 -24.8 0.8 -47.5 3.5 -16.2 1.9 -29.7 3.6 -29.9 3.9 -1.1 1.1 1.8 1.3 20.7 1.6 14.9 0.2 20.2 0.6 20.2 1.5 0 2.7 -3.9 3.1 -26 2.6 -35.1 -0.9 -44.4 0.4 -71 10 -18.8 6.7 -31.3 10.7 -33.8 10.7 -1.2 0 -2.6 -0.9 -3.2 -2 -1.6 -3.1 0.4 -5.8 5.3 -7 2.3 -0.7 6.5 -1.8 9.2 -2.5 2.8 -0.7 6.2 -1.6 7.8 -1.9 1.5 -0.4 2.7 -1.3 2.7 -2 0 -2.6 5.9 -6.4 11.7 -7.7 3.2 -0.6 11.4 -2.1 18.2 -3.3 l12.5 -2.2 -10.1 -1.9 c-7.3 -1.3 -12.3 -1.6 -18 -1.2 -10.6 0.9 -34.3 5.9 -45 9.7 -4.8 1.6 -9.5 3 -10.5 3 -1.7 0 -3.8 -2.7 -3.8 -4.9 0 -2.1 4.9 -4.2 15.6 -6.9 l10.9 -2.7 -44.2 0 -44.1 0 -2.6 2.4 c-4.1 3.8 -5 8.1 -3.2 14.4 1.6 5.4 9.5 20.7 12.4 24 0.9 1 2.6 3.4 3.9 5.5 l2.3 3.7 -0.6 -4 c-0.4 -3.1 -0.2 -4.4 1 -5.4 2.2 -1.8 6.3 -0.6 7.1 2.2 1.8 5.9 9 19.5 12.6 23.6 10.7 12.2 24.5 20.2 32.4 18.7 11.9 -2.3 19.7 -18 15.1 -30.8 -2.2 -6.2 -13.7 -23.8 -19.8 -30.3 -10.6 -11.2 -29.3 -19.4 -44.5 -19.5 -5.8 0 -6.3 0.2 -6.9 2.4 -0.3 1.3 -0.1 4.1 0.5 6.2 1.6 5.7 1.4 7.4 -0.9 7.4 -1.5 0 -2.3 -1.2 -3.6 -5.6 -2.8 -9.6 0.1 -14.4 8.7 -14.4 9.2 0 26.4 4.6 35.9 9.6 11.7 6.2 17 10.9 24.2 21.8 3.4 5 6.2 9.3 6.4 9.4 0.1 0.2 1.2 -0.6 2.3 -1.7 1.6 -1.6 3.4 -2.1 6.9 -2.1 2.7 0 8.4 -0.9 12.8 -2 4.6 -1.2 14.1 -2.5 22.9 -3 8.3 -0.6 22.4 -1.5 31.5 -2.1 9.1 -0.6 21.7 -1.9 28 -2.9 6.3 -1 18.7 -2.1 27.5 -2.4 26.3 -1 56.4 -5.3 63.2 -9 4 -2.3 5.3 -2.4 5.3 -0.4 0 1.9 -9.3 4.9 -18.8 6.2 -9.2 1.3 -9.4 1.4 -3.7 1.5 3.3 0 9.4 -0.4 13.5 -1 4.1 -0.5 14.3 -1.4 22.5 -1.9 16.7 -1 24.6 -2.9 28.1 -6.7 1.9 -2 2.7 -2.4 3.6 -1.5 0.9 0.9 0.9 1.8 0 3.6 -1.9 4.3 -11.7 6.6 -28.6 6.6 -7.7 0 -17.1 0.5 -20.7 1 -3.6 0.5 -14.9 1.4 -25 1.9 -19.4 1.1 -36.8 3.5 -53.4 7.6 -5.5 1.3 -15.6 3.3 -22.5 4.4 -17.6 2.8 -25.8 4.6 -39 8.6 -12.9 3.9 -22.1 5.5 -32.7 5.5 -6.5 0 -7.3 -0.2 -9.1 -2.5 -1.6 -2 -2.9 -2.5 -6.6 -2.5 -5.1 0 -5 -0.1 -3.4 3.5 1.3 2.9 1.6 3 4.2 1 1.7 -1.3 2.3 -1.3 5.4 0.5 4.6 2.8 10.2 3.9 27.2 5.5 30.3 3 69 1.1 114.5 -5.5 7.2 -1 16.6 -2.1 21 -2.5 11.6 -0.9 33.2 -5 55.4 -10.6 16.8 -4.2 21.8 -5.1 20 -3.6 -0.9 0.8 -35 8.9 -48.9 11.7 -8.2 1.6 -19.9 3.4 -26.1 4 -13 1.2 -30 3.7 -54.9 7.9 -26.2 4.4 -47.3 6.2 -72.5 6.2 -24.5 0 -33.8 -1.1 -39 -4.7 l-3.4 -2.3 0.5 4.2 c0.3 2.3 -0.1 6.6 -1 9.7 -1.3 5.1 -1.3 5.5 0.5 6.8 1 0.7 1.9 2.4 1.9 3.6 0 4 6.2 7.8 13.9 8.5 7.3 0.7 9.1 1.5 9.1 3.8 0 1.4 0.4 1.3 2 -0.5 1.2 -1.2 2.7 -2.2 3.4 -2.2 2.5 0 18.1 5.1 22.1 7.2 9.9 5.2 14.4 7.2 22.9 9.9 5 1.6 9.7 3.7 10.4 4.6 2.3 3.2 1.4 6.5 -3.3 10.9 l-4.4 4.3 2.7 1.9 c5 3.6 24.5 13.2 31.1 15.4 5 1.6 9.6 2.1 18.4 2.3 12.5 0.2 15.1 1.1 13.1 4.3 -1 1.4 -2.7 1.7 -11.5 1.6 -10.6 -0.1 -18.5 -1.3 -27.4 -4.1 -6.8 -2.1 -23.7 -9.7 -28.7 -12.9 l-4.1 -2.6 -3 3 c-3 3.1 -3 5.2 0.2 5.2 2.5 0 14.1 3.8 15.8 5.1 2.1 1.8 1.6 6.1 -2.3 18.7 -3.4 11 -3.7 12.8 -4.2 28.4 l-0.5 16.6 4.4 0.6 c24.3 2.9 58.7 2.5 69.6 -0.8 2.8 -0.9 6.6 -3 8.3 -4.6 3.6 -3.4 6 -3.9 6 -1.2 0 2.1 -3.2 5.3 -7.5 7.5 -6.5 3.2 -14.4 3.8 -47.3 3.5 l-32.2 -0.3 0 3 c0 1.7 -0.7 8.7 -1.7 15.8 l-1.7 12.7 -42.8 0 -42.8 0 -1.5 -3.6z"/>
 </g>
 <g fill="#ff8029">
  <path d="M112.5 293.3 c-0.8 -2 -2.2 -8.4 -3.1 -14.2 -4 -28.2 -3.8 -27.5 -8.3 -33.1 -2.2 -2.8 -4.1 -5.6 -4.1 -6 0 -0.5 -2.4 0.2 -5.2 1.5 -2.9 1.4 -6.3 2.5 -7.5 2.5 -2.1 0 -5.3 -2.3 -5.3 -3.9 0 -1.9 2.9 -3.9 7.3 -5.1 4.4 -1.2 6.4 -3 3.4 -3 -3.4 0 -13.7 -8.2 -19.2 -15.1 -13.2 -16.8 -17.4 -35.2 -9.8 -43.3 2.5 -2.7 2.9 -2.8 8.8 -2.3 6.2 0.6 6.2 0.6 9.9 -3.2 2.1 -2.1 7.6 -5.8 12.2 -8.2 5.1 -2.7 8.4 -5 8.4 -5.9 0 -0.9 0.5 -2.1 1.1 -2.7 0.7 -0.7 0.3 -1.9 -1.5 -4.1 -1.4 -1.6 -2.6 -3.5 -2.6 -4 0 -0.6 -2.4 -1.7 -5.3 -2.6 -2.9 -0.8 -7 -2.8 -9.1 -4.4 -3.7 -2.8 -4.1 -2.8 -6.6 -1.4 -2.5 1.5 -2.9 1.4 -6.2 -1.1 -3.1 -2.4 -3.7 -2.5 -4.8 -1.2 -0.7 0.8 -2.3 1.5 -3.7 1.5 -3 0 -9.1 -2.5 -11.6 -4.8 -1.1 -1 -3.1 -1.5 -5.2 -1.3 -4.4 0.3 -10.6 -3.9 -16.6 -11.1 -2.4 -2.9 -5.8 -6.8 -7.6 -8.7 -8.6 -9 -10.4 -20.6 -5.4 -36.1 1.6 -5.2 3.3 -11.5 3.7 -14 1.3 -8.6 7.6 -18.4 13.7 -21.3 1.8 -0.9 7.5 -2.3 12.7 -3.1 5.2 -0.9 15.1 -3.1 22 -5 17.8 -5 27.1 -6.6 38.5 -6.6 9.2 0 10.5 0.2 15.8 3 3.1 1.7 6.1 2.9 6.5 2.6 0.5 -0.3 9.1 -0.7 19.3 -1 25.5 -0.8 48.5 -2.2 49.9 -3.1 0.6 -0.4 12.3 -0.4 26.1 0 20 0.6 24.9 1 24.9 2.1 0 1.7 -16.6 1.9 -36 0.4 -7.9 -0.6 -15 -0.6 -19.5 0 -11.8 1.6 -25.5 3.1 -37 4.1 -6 0.5 -13.5 1.3 -16.5 1.7 l-5.5 0.9 3 1.2 c2.3 1 5.2 1 13 0.2 5.5 -0.6 21 -1.3 34.5 -1.6 13.5 -0.3 27.9 -1 32 -1.5 4.1 -0.5 12 -1.1 17.5 -1.4 l10 -0.5 -7.5 1 c-4.1 0.5 -10.9 1.6 -15.2 2.5 -4.2 0.8 -13.4 1.9 -20.5 2.4 -7 0.5 -19.3 1.6 -27.2 2.5 -7.9 0.8 -15.3 1.5 -16.4 1.5 -1.3 0 -1.7 0.4 -1.2 0.9 2 1.9 21 3.4 53 4.1 l33 0.7 -34 -0.3 c-35.5 -0.3 -44.2 -0.7 -53.7 -2.5 -4.8 -1 -7.8 -0.8 -19.8 1.2 -14.5 2.4 -17.1 2.2 -17.8 -1.3 -0.5 -2.8 2.7 -4.8 7.6 -4.9 2.6 0 5.6 -0.4 6.6 -0.8 1.7 -0.6 1.6 -0.9 -1.1 -2 -2.5 -1 -5.1 -0.9 -15.5 0.8 -6.8 1.1 -16.2 2.9 -20.8 4 -9.1 2.1 -10.6 2 -11.6 -1.2 -1.2 -3.8 2.3 -5.3 17.3 -7.2 22 -2.7 22.9 -3.2 8.7 -4.6 -11.6 -1.2 -17.8 -0.1 -39.2 7 -9.7 3.3 -19.9 6.2 -22.6 6.6 -6.6 0.9 -4.2 2.5 3.9 2.5 3.3 0 10.7 0.7 16.5 1.5 21.7 3.1 81.4 4.1 101.9 1.8 3.7 -0.4 5.2 -0.3 4.8 0.5 -0.5 0.6 1.2 1.3 4.5 1.7 2.9 0.4 8 1.4 11.3 2.2 8.2 2.1 21 2.1 53.5 0.1 37.1 -2.3 83 -4.2 83.7 -3.4 0.4 0.3 0.4 0.9 0.1 1.2 -0.3 0.3 -14.3 0.8 -31 1.1 -26.4 0.4 -33.8 0.9 -57.2 3.8 -14.8 1.9 -27.4 3.9 -27.9 4.4 -0.8 0.8 2.9 1.2 12.3 1.3 34.5 0.7 30.6 0.4 28.9 2.4 -1.1 1.4 -3.5 1.5 -16.8 1.1 -20.7 -0.5 -48 0.8 -56.4 2.7 -3.7 0.9 -10.5 3 -15 4.7 -11.4 4.3 -16.4 6.1 -29.9 10.4 -9.7 3.1 -12 3.6 -13.3 2.5 -1.8 -1.5 -2 -4.4 -0.2 -5.8 1.4 -1.1 10.9 -4 18.7 -5.6 3 -0.7 5.6 -1.7 5.6 -2.4 0.1 -0.7 0.2 -1.6 0.3 -2.1 0.4 -3.2 16.8 -7.7 38.1 -10.7 l5.5 -0.7 -6 -1.4 c-10.1 -2.4 -25.4 -2.7 -35.8 -0.8 -16.1 2.9 -26.6 5.5 -35.3 8.7 -9.3 3.3 -11.8 2.9 -11.2 -2.1 0.3 -2.1 1.2 -2.8 6.3 -4.4 3.3 -1 9.8 -2.7 14.5 -3.8 l8.5 -1.8 -28 0.2 c-15.4 0.1 -35.9 0 -45.6 -0.2 -15.6 -0.3 -17.9 -0.1 -20.3 1.4 -3.3 2.2 -5.6 6.4 -5.6 10.3 0 3.8 2.8 11.8 5.7 16.4 1.2 2.1 2.3 4 2.3 4.4 0 0.3 2.5 4.4 5.5 9 3.1 4.6 6.4 10.3 7.4 12.7 1 2.3 3.1 5.3 4.6 6.7 2.5 2.3 2.3 1.6 -2 -6.7 -4.7 -9.2 -5.2 -12.4 -1.9 -13.7 1.9 -0.7 5.4 1 5.4 2.7 0 2.8 9 19.5 12.6 23.6 5.7 6.4 18.1 16.2 22.3 17.7 4.8 1.7 11.6 1.7 14.9 0 3.5 -1.9 8.5 -7.2 10.6 -11.4 2.7 -5.2 2.3 -15.2 -0.8 -21.5 -4.7 -9.6 -16.2 -26.2 -21.1 -30.4 -10.6 -9 -24.4 -15.1 -38.6 -16.8 -10.3 -1.3 -12.8 1.1 -10.3 9.5 1.1 3.8 1.2 5.6 0.5 6.3 -1.4 1.4 -2.5 0.2 -4 -4.2 -1.8 -5.6 -1.4 -9.9 1.4 -12.6 3.1 -3.2 6.4 -3.2 21.3 0.1 21.7 4.8 35.2 13.9 46.7 31.2 5.4 8.3 6 8.8 7 6.8 0.8 -1.7 2.3 -2.2 7.3 -2.8 3.5 -0.4 9.8 -1.6 14 -2.7 10.3 -2.6 13.9 -2.9 40.8 -4.1 20.9 -0.9 29.9 -1.8 48.9 -5 3.3 -0.5 10.5 -0.9 16 -0.9 l10 0.2 -10.9 0.8 c-9.8 0.8 -34.3 5.4 -35.6 6.7 -0.9 0.9 15.5 -0.9 25.5 -2.9 5.5 -1 11.8 -1.8 14 -1.8 l4 0.1 -5 0.9 c-2.7 0.6 -9.5 2.1 -15 3.4 -5.5 1.3 -15.8 3.3 -23 4.4 -13.7 2.2 -26 5 -41 9.5 -5.9 1.8 -13.2 3.1 -21.4 3.7 l-12.4 0.9 -2.7 -2.5 c-1.8 -1.8 -3.7 -2.5 -6.4 -2.5 -2 0 -4.6 -0.5 -5.7 -1.1 -1.8 -0.9 -1.7 -0.5 0.7 4.3 2.4 4.8 2.8 5.1 3.5 3 0.9 -2.5 5 -3 6.8 -0.9 5.5 6.7 66.2 9.1 107.3 4.3 19.1 -2.2 21.6 -1.8 6.3 1 -28.1 5.1 -47.2 6.8 -76 6.9 -30.2 0 -36.5 -0.8 -41.8 -5.5 l-3.2 -2.8 0.3 7.2 c0.3 4.8 -0.1 8.4 -1.1 10.7 -1.4 3.4 -1.3 3.6 0.7 4.5 1.1 0.5 2.3 2 2.4 3.4 0.8 5.6 7.7 10 15.8 10 4.2 0 5.6 0.4 6.8 2.1 l1.4 2.1 2.2 -2.2 c1.2 -1.2 2.8 -1.9 3.7 -1.6 0.8 0.3 5.1 1.7 9.6 3 4.5 1.3 12 4.4 16.7 6.9 4.7 2.4 12.5 5.7 17.4 7.3 10.1 3.2 12.3 5.3 10.6 9.9 -0.6 1.6 -2.8 4.3 -4.8 6.1 l-3.7 3.2 2.5 2 c3.3 2.7 23.1 12.6 30.5 15.3 4.6 1.7 9.1 2.3 19.2 2.6 10.4 0.4 13.3 0.8 13.7 2 0.4 0.8 0.4 1.9 0 2.4 -0.8 1.4 -18.8 1 -27.5 -0.5 -11.3 -2 -30.7 -9.6 -40.8 -16 l-4 -2.6 -3 3.7 c-3.4 4.1 -3.1 4.6 3.4 5.7 2.2 0.4 4.9 1.3 6 2 1.1 0.7 3.2 1.6 4.7 1.9 2.1 0.6 2.9 1.5 3.4 4.1 0.3 1.9 0.3 4 -0.1 4.6 -0.3 0.6 -2 5.9 -3.6 11.8 -2.6 9.2 -3.1 13 -3.6 27 -0.3 9 -0.2 16.7 0.3 17.2 1.3 1.3 22.4 2.5 44.4 2.5 23.1 -0.1 30.2 -1.4 37 -7.2 2.8 -2.4 4.5 -3.2 5.1 -2.6 2.4 2.4 -5.5 8.7 -13.6 10.8 -1.6 0.5 -18.6 0.7 -37.7 0.6 l-34.8 -0.3 0 3.4 c0 1.8 -0.7 9 -1.7 16.1 l-1.7 12.7 -42.8 0 -42.8 0 -1.5 -3.7z m-16.5 -66.8 c0 -0.9 -0.6 -1.2 -1.5 -0.9 -0.8 0.4 -1.2 1 -0.9 1.5 0.8 1.4 2.4 1 2.4 -0.6z m-3.7 -55.4 c3.9 -1.1 10.6 -3.6 14.7 -5.5 4.2 -1.9 12 -4.6 17.5 -6 11.3 -2.9 20.1 -5.9 15 -5.2 -1.6 0.3 -7.5 1 -13 1.6 -13.8 1.7 -19.9 3.3 -30.2 7.9 -9.5 4.3 -16.2 9 -13 9 0.9 0.1 5 -0.8 9 -1.8z m27.8 -21.7 l8.6 -1.6 -4.9 -4.6 c-2.9 -2.6 -5.2 -5.8 -5.5 -7.5 l-0.6 -2.8 -2.6 2.4 c-1.4 1.4 -4 3.4 -5.8 4.4 l-3.2 1.9 1.9 3 c1.1 1.6 2 3.7 2 4.7 0 2.1 -0.5 2.1 10.1 0.1z m-61.5 -25.7 c-1 -0.7 -4.7 -3.5 -8.1 -6.4 -5.2 -4.3 -6.6 -6.2 -8.5 -11.4 -1.3 -3.4 -3.3 -7.3 -4.5 -8.8 -1.2 -1.4 -3.6 -5.1 -5.3 -8.1 -1.8 -3 -3.2 -5 -3.2 -4.3 0 0.6 0.9 2.8 2.1 4.7 1.1 1.9 3.1 6.5 4.5 10.3 2.6 7.2 6.6 12.9 12.9 18.4 5.5 4.8 8.7 6.9 10.5 6.8 1.2 0 1.1 -0.3 -0.4 -1.2z m-33.3 -26.9 c-1.7 -2.9 -3.5 -6.6 -4.1 -8.3 -1 -2.9 -1 -2.9 -1.1 -0.5 -0.1 2.8 3.2 10.6 5.6 13.2 2.8 3.2 2.6 1.1 -0.4 -4.4z m141.2 -6.4 c6.1 -1.4 12.8 -2.9 15 -3.3 l4 -0.9 -4.8 -0.1 c-7.4 -0.2 -31.8 3.5 -36.2 5.4 -5.7 2.5 9.7 1.8 22 -1.1z"/>
 </g>
 <g fill="#3d3d3d">
  <path d="M119.1 290.1 c-1.2 -3.8 -2.1 -7.3 -2.1 -7.8 0 -0.4 -1.9 -6.5 -4.1 -13.4 -3.5 -10.8 -5 -13.8 -10 -20.5 -3.3 -4.3 -5.9 -8.1 -5.9 -8.5 0 -0.5 -2.4 0.3 -5.2 1.6 -2.9 1.4 -6.3 2.5 -7.5 2.5 -2.1 0 -5.3 -2.3 -5.3 -3.9 0 -1.9 2.9 -3.9 7.3 -5.1 4.4 -1.2 6.4 -3 3.4 -3 -3.4 0 -13.7 -8.2 -19.2 -15.1 -13.2 -16.8 -17.4 -35.2 -9.8 -43.3 2.5 -2.7 2.9 -2.8 8.8 -2.3 6.2 0.6 6.2 0.6 9.9 -3.2 2.1 -2.1 7.6 -5.8 12.2 -8.2 5.1 -2.7 8.4 -5 8.4 -5.9 0 -0.9 0.5 -2.1 1.1 -2.7 0.7 -0.7 0.3 -1.9 -1.5 -4.1 -1.4 -1.6 -2.6 -3.5 -2.6 -4 0 -0.6 -2.4 -1.7 -5.3 -2.6 -2.9 -0.8 -7 -2.8 -9.1 -4.4 -3.7 -2.8 -4.1 -2.8 -6.6 -1.4 -2.5 1.5 -2.9 1.4 -6.2 -1.1 -3.1 -2.4 -3.7 -2.5 -4.8 -1.2 -0.7 0.8 -2.3 1.5 -3.7 1.5 -3 0 -9.1 -2.5 -11.6 -4.8 -1.1 -1 -3.1 -1.5 -5.2 -1.3 -4.4 0.3 -10.6 -3.9 -16.6 -11.1 -2.4 -2.9 -5.8 -6.8 -7.6 -8.7 -8.6 -9 -10.4 -20.6 -5.4 -36.1 1.6 -5.2 3.3 -11.5 3.7 -14 1.3 -8.6 7.6 -18.4 13.7 -21.3 1.8 -0.9 7.5 -2.3 12.7 -3.1 5.2 -0.9 15.1 -3.1 22 -5 17.8 -5 27.1 -6.6 38.5 -6.6 9.2 0 10.5 0.2 15.8 3 3.1 1.7 6.1 2.9 6.5 2.6 0.5 -0.3 9.1 -0.7 19.3 -1 25.5 -0.8 48.5 -2.2 49.9 -3.1 0.6 -0.4 12.3 -0.4 26.1 0 20 0.6 24.9 1 24.9 2.1 0 1.7 -16.6 1.9 -36 0.4 -7.9 -0.6 -15 -0.6 -19.5 0 -11.8 1.6 -25.5 3.1 -37 4.1 -6 0.5 -13.5 1.3 -16.5 1.7 l-5.5 0.9 3 1.2 c2.3 1 5.2 1 13 0.2 5.5 -0.6 21 -1.3 34.5 -1.6 13.5 -0.3 27.9 -1 32 -1.5 4.1 -0.5 12 -1.1 17.5 -1.4 l10 -0.5 -7.5 1 c-4.1 0.5 -10.9 1.6 -15.2 2.5 -4.2 0.8 -13.4 1.9 -20.5 2.4 -7 0.5 -19.3 1.6 -27.2 2.5 -7.9 0.8 -15.3 1.5 -16.4 1.5 -1.3 0 -1.7 0.4 -1.2 0.9 2 1.9 21 3.4 53 4.1 l33 0.7 -34 -0.3 c-35.5 -0.3 -44.2 -0.7 -53.7 -2.5 -4.8 -1 -7.8 -0.8 -19.8 1.2 -14.5 2.4 -17.1 2.2 -17.8 -1.3 -0.5 -2.8 2.7 -4.8 7.6 -4.9 2.6 0 5.6 -0.4 6.6 -0.8 1.7 -0.6 1.6 -0.9 -1.1 -2 -2.5 -1 -5.1 -0.9 -15.5 0.8 -6.8 1.1 -16.2 2.9 -20.8 4 -9.1 2.1 -10.6 2 -11.6 -1.2 -1.2 -3.8 2.3 -5.3 17.3 -7.2 22 -2.7 22.9 -3.2 8.7 -4.6 -11.6 -1.2 -17.8 -0.1 -39.2 7 -9.7 3.3 -19.9 6.2 -22.6 6.6 -6.6 0.9 -4.2 2.5 3.9 2.5 3.3 0 10.7 0.7 16.5 1.5 21.7 3.1 81.4 4.1 101.9 1.8 3.7 -0.4 5.2 -0.3 4.8 0.5 -0.5 0.6 1.2 1.3 4.5 1.7 2.9 0.4 8 1.4 11.3 2.2 8.2 2.1 21 2.1 53.5 0.1 37.1 -2.3 83 -4.2 83.7 -3.4 0.4 0.3 0.4 0.9 0.1 1.2 -0.3 0.3 -14.3 0.8 -31 1.1 -26.4 0.4 -33.8 0.9 -57.2 3.8 -14.8 1.9 -27.4 3.9 -27.9 4.4 -0.8 0.8 2.9 1.2 12.3 1.3 34.5 0.7 30.6 0.4 28.9 2.4 -1.1 1.4 -3.5 1.5 -16.8 1.1 -20.7 -0.5 -48 0.8 -56.4 2.7 -3.7 0.9 -10.5 3 -15 4.7 -11.4 4.3 -16.4 6.1 -29.9 10.4 -9.7 3.1 -12 3.6 -13.3 2.5 -1.8 -1.5 -2 -4.4 -0.2 -5.8 1.4 -1.1 10.9 -4 18.7 -5.6 3 -0.7 5.6 -1.7 5.6 -2.4 0.1 -0.7 0.2 -1.6 0.3 -2.1 0.4 -3.2 16.8 -7.7 38.1 -10.7 l5.5 -0.7 -6 -1.4 c-10.1 -2.4 -25.4 -2.7 -35.8 -0.8 -16.1 2.9 -26.6 5.5 -35.3 8.7 -9.3 3.3 -11.8 2.9 -11.2 -2.1 0.3 -2.1 1.2 -2.8 6.3 -4.4 3.3 -1 9.8 -2.7 14.5 -3.8 l8.5 -1.8 -28 0.2 c-15.4 0.1 -35.9 0 -45.6 -0.2 -15.6 -0.3 -17.9 -0.1 -20.3 1.4 -3.3 2.2 -5.6 6.4 -5.6 10.3 0 3.8 2.8 11.8 5.7 16.4 1.2 2.1 2.3 4 2.3 4.4 0 0.3 2.5 4.4 5.5 9 3.1 4.6 6.4 10.3 7.4 12.7 1 2.3 3.1 5.3 4.6 6.7 2.5 2.3 2.3 1.6 -2 -6.7 -4.7 -9.2 -5.2 -12.4 -1.9 -13.7 1.9 -0.7 5.4 1 5.4 2.7 0 2.8 9 19.5 12.6 23.6 5.7 6.4 18.1 16.2 22.3 17.7 4.8 1.7 11.6 1.7 14.9 0 3.5 -1.9 8.5 -7.2 10.6 -11.4 2.7 -5.2 2.3 -15.2 -0.8 -21.5 -4.7 -9.6 -16.2 -26.2 -21.1 -30.4 -10.6 -9 -24.4 -15.1 -38.6 -16.8 -10.3 -1.3 -12.8 1.1 -10.3 9.5 1.1 3.8 1.2 5.6 0.5 6.3 -1.4 1.4 -2.5 0.2 -4 -4.2 -1.8 -5.6 -1.4 -9.9 1.4 -12.6 3.1 -3.2 6.4 -3.2 21.3 0.1 21.7 4.8 35.2 13.9 46.7 31.2 5.4 8.3 6 8.8 7 6.8 0.8 -1.7 2.3 -2.2 7.3 -2.8 3.5 -0.4 9.8 -1.6 14 -2.7 10.3 -2.6 13.9 -2.9 40.8 -4.1 20.9 -0.9 29.9 -1.8 48.9 -5 3.3 -0.5 10.5 -0.9 16 -0.9 l10 0.2 -10.9 0.8 c-9.8 0.8 -34.3 5.4 -35.6 6.7 -0.9 0.9 15.5 -0.9 25.5 -2.9 5.5 -1 11.8 -1.8 14 -1.8 l4 0.1 -5 0.9 c-2.7 0.6 -9.5 2.1 -15 3.4 -5.5 1.3 -15.8 3.3 -23 4.4 -13.7 2.2 -26 5 -41 9.5 -5.9 1.8 -13.2 3.1 -21.4 3.7 l-12.4 0.9 -2.7 -2.5 c-1.8 -1.8 -3.7 -2.5 -6.4 -2.5 -2 0 -4.6 -0.5 -5.7 -1.1 -1.8 -0.9 -1.7 -0.5 0.7 4.3 2.4 4.8 2.8 5.1 3.5 3 0.9 -2.5 5 -3 6.8 -0.9 5.5 6.7 66.2 9.1 107.3 4.3 19.1 -2.2 21.6 -1.8 6.3 1 -28.1 5.1 -47.2 6.8 -76 6.9 -30.2 0 -36.5 -0.8 -41.8 -5.5 l-3.2 -2.8 0.3 7.2 c0.3 4.8 -0.1 8.4 -1.1 10.7 -1.4 3.4 -1.3 3.6 0.7 4.5 1.1 0.5 2.3 2 2.4 3.4 0.8 5.6 7.7 10 15.8 10 4.2 0 5.6 0.4 6.8 2.1 l1.4 2.1 2.2 -2.2 c1.2 -1.2 2.8 -1.9 3.7 -1.6 0.8 0.3 5.1 1.7 9.6 3 4.5 1.3 12 4.4 16.7 6.9 4.7 2.4 12.5 5.7 17.4 7.3 10.1 3.2 12.3 5.3 10.6 9.9 -0.6 1.6 -2.8 4.3 -4.8 6.1 l-3.7 3.2 2.5 2 c3.3 2.7 23.1 12.6 30.5 15.3 4.6 1.7 9.1 2.3 19.2 2.6 10.4 0.4 13.3 0.8 13.7 2 0.4 0.8 0.4 1.9 0 2.4 -0.8 1.4 -18.8 1 -27.5 -0.5 -11.3 -2 -30.7 -9.6 -40.8 -16 l-4 -2.6 -3 3.7 c-1.7 2 -2.8 4 -2.6 4.4 0.5 0.7 10.7 3.9 16.6 5.3 5.6 1.3 5.4 2.6 -8.8 45.9 -3 9.3 -5.2 17.1 -4.9 17.4 1.9 1.9 29.1 3.8 54.6 3.8 23.1 -0.1 30.2 -1.4 37 -7.2 2.8 -2.4 4.5 -3.2 5.1 -2.6 2.4 2.4 -5.6 8.7 -13.6 10.8 -3.2 0.9 -78.9 0.7 -81.7 -0.1 -1.6 -0.5 -1.8 0.2 -1.8 5.3 0 4.9 2.2 16.9 4.6 25.1 0.5 1.9 0.3 2.2 -1.9 2.2 -2.2 0 -2.7 -0.6 -3.7 -5.2 -0.7 -2.9 -1.4 -10.3 -1.7 -16.5 l-0.6 -11.2 -4.6 -0.6 c-15.2 -2.1 -40.6 -10.6 -49 -16.5 -3.1 -2.2 -8.5 -7.1 -12 -11 -3.6 -3.8 -6.9 -7 -7.4 -7 -1.3 0 -11.6 6.4 -11.7 7.2 0 0.3 1.6 2.5 3.5 4.8 5.5 6.6 9.2 15.4 13.4 32.5 2.2 8.8 4.3 17.7 4.6 19.8 0.7 3.5 0.6 3.7 -1.8 3.7 -2.2 0 -2.7 -0.8 -4.6 -6.9z m73 -41.8 c1.5 -6 4.8 -18.8 7.3 -28.6 2.5 -9.9 4.6 -18.1 4.6 -18.3 0 -0.2 -0.7 -0.4 -1.6 -0.4 -0.9 0 -4.7 -1.1 -8.5 -2.5 -4.4 -1.6 -7.9 -2.2 -9.8 -1.9 -2.2 0.5 -3.4 0.1 -4.8 -1.5 -1 -1.3 -5.6 -3.4 -10.8 -5.1 -8.5 -2.7 -18.5 -6.7 -23 -9.2 -1.1 -0.6 -3.7 -2.1 -5.9 -3.2 -3.8 -2.1 -11.6 -10.8 -11.6 -13 0 -1.9 2.2 -3.6 4.6 -3.6 1.4 0 3 1.4 4.8 4 2.8 4.3 9.1 8.6 20.6 14.2 8.8 4.3 19.9 8.8 21.4 8.8 0.6 0 2.8 -2.5 4.9 -5.4 2.1 -2.9 5.9 -7.3 8.3 -9.7 2.4 -2.4 4.4 -4.6 4.4 -5 0 -0.3 -1.4 -0.9 -3.2 -1.3 -3.5 -0.7 -19.5 -8 -21.8 -10 -2.7 -2.3 -15.1 -6.1 -15.8 -4.9 -0.4 0.6 -7.2 1.8 -15.2 2.7 -25.2 2.8 -30 3.6 -36.3 6 -9.3 3.5 -19.4 8.6 -21.2 10.6 -1.8 2 -1.7 2.1 5.5 3.5 9.3 1.9 20.1 10.9 24 20 1.7 3.9 2.1 6.3 1.7 10.8 -0.5 6.1 -1.9 8.7 -4.6 8.7 -3 0 -4.1 -2.3 -4.1 -8.1 0 -9.3 -2.2 -13.1 -10.8 -19.1 -4.5 -3.1 -13.1 -5.7 -19.1 -5.8 -4 0 -10.1 5.2 -10.1 8.7 0 4.3 4.7 15 10 22.7 5.6 8.1 11.7 13.1 19.3 15.7 3.5 1.2 4.1 1.1 10.3 -1.9 8.1 -4 17.1 -11.6 18.9 -15.9 2.2 -5.3 7.5 -3.9 7.5 1.9 0 2.1 -1.3 4.1 -4.7 7.5 l-4.8 4.7 8 7.9 c12.3 12.2 12.9 12.6 35.5 21.4 6.3 2.4 22.1 6.4 22.9 5.7 0.2 -0.2 1.6 -5.2 3.2 -11.1z m-72 -98.9 l8.6 -1.6 -4.9 -4.6 c-2.9 -2.6 -5.2 -5.8 -5.5 -7.5 l-0.6 -2.8 -2.6 2.4 c-1.4 1.4 -4 3.4 -5.8 4.4 l-3.2 1.9 1.9 3 c1.1 1.6 2 3.7 2 4.7 0 2.1 -0.5 2.1 10.1 0.1z m-61.5 -25.7 c-1 -0.7 -4.7 -3.5 -8.1 -6.4 -5.2 -4.3 -6.6 -6.2 -8.5 -11.4 -1.3 -3.4 -3.3 -7.3 -4.5 -8.8 -1.2 -1.4 -3.6 -5.1 -5.3 -8.1 -1.8 -3 -3.2 -5 -3.2 -4.3 0 0.6 0.9 2.8 2.1 4.7 1.1 1.9 3.1 6.5 4.5 10.3 2.6 7.2 6.6 12.9 12.9 18.4 5.5 4.8 8.7 6.9 10.5 6.8 1.2 0 1.1 -0.3 -0.4 -1.2z m-33.3 -26.9 c-1.7 -2.9 -3.5 -6.6 -4.1 -8.3 -1 -2.9 -1 -2.9 -1.1 -0.5 -0.1 2.8 3.2 10.6 5.6 13.2 2.8 3.2 2.6 1.1 -0.4 -4.4z m141.2 -6.4 c6.1 -1.4 12.8 -2.9 15 -3.3 l4 -0.9 -4.8 -0.1 c-7.4 -0.2 -31.8 3.5 -36.2 5.4 -5.7 2.5 9.7 1.8 22 -1.1z"/>
  <path d="M287.8 99.3 c1.2 -0.2 3 -0.2 4 0 0.9 0.3 -0.1 0.5 -2.3 0.4 -2.2 0 -3 -0.2 -1.7 -0.4z"/>
  <path d="M338.5 91 c1.1 -0.5 2.7 -0.9 3.5 -0.9 0.9 0 0.8 0.4 -0.5 0.9 -1.1 0.5 -2.7 0.9 -3.5 0.9 -0.9 0 -0.8 -0.4 0.5 -0.9z"/>
  <path d="M262.5 75 c-2.5 -0.7 -2.1 -0.8 2.3 -0.7 2.9 0 5.5 0.4 5.8 0.9 0.6 1 -4 0.9 -8.1 -0.2z"/>
  <path d="M273 74 c-1.9 -1.2 1.4 -1.2 8 -0.1 l4.5 0.8 -5.5 0.2 c-3 0 -6.2 -0.4 -7 -0.9z"/>
  <path d="M315.1 71.6 c0.3 -0.3 7.7 -1 16.5 -1.5 17.2 -1 25.2 -3 28.1 -7.1 2 -2.9 3.8 -1.2 2.3 2.2 -2.1 4.5 -9.9 6.2 -30 6.6 -9.6 0.2 -17.2 0.1 -16.9 -0.2z"/>
  <path d="M300.8 69.5 c4.1 -0.8 8.9 -2.3 10.8 -3.4 4 -2.4 4.4 -2.5 4.4 -1 0 1.9 -8.3 4.7 -15.5 5.3 l-7 0.5 7.3 -1.4z"/>
 </g>
 <g fill="#000000">
  <path d="M119.1 290.1 c-1.2 -3.8 -2.1 -7.3 -2.1 -7.8 0 -3.3 -8.7 -26.4 -11.3 -30.1 -1.8 -2.4 -4.5 -6.3 -6.2 -8.6 l-3 -4.3 -5 2.4 c-2.7 1.2 -6 2.3 -7.2 2.3 -2.1 0 -5.3 -2.3 -5.3 -3.9 0 -1.9 2.9 -3.9 7.3 -5.1 4.4 -1.2 6.4 -3 3.4 -3 -0.8 0 -4.1 -1.7 -7.4 -3.9 -7 -4.5 -16.4 -15.8 -20 -24.1 -1.3 -3 -2.9 -6.4 -3.5 -7.4 -1.4 -2.5 -2.2 -12.5 -1.4 -16.8 0.3 -1.8 1.8 -4.6 3.3 -6.2 2.5 -2.7 2.9 -2.8 8.8 -2.3 6.2 0.6 6.2 0.6 9.9 -3.2 2.1 -2.1 7.6 -5.8 12.2 -8.2 5.1 -2.7 8.4 -5 8.4 -5.9 0 -0.9 0.5 -2.1 1.1 -2.7 0.7 -0.7 0.3 -1.9 -1.5 -4.1 -1.4 -1.6 -2.6 -3.5 -2.6 -4 0 -0.6 -2.4 -1.7 -5.3 -2.6 -2.9 -0.8 -7 -2.8 -9.1 -4.4 -3.7 -2.8 -4.1 -2.8 -6.6 -1.4 -2.5 1.5 -2.9 1.4 -6.2 -1.1 -3.1 -2.4 -3.7 -2.5 -4.8 -1.2 -0.7 0.8 -2.3 1.5 -3.7 1.5 -3 0 -9.1 -2.5 -11.6 -4.8 -1.1 -1 -3.1 -1.5 -5.2 -1.3 -4.4 0.3 -10.6 -3.9 -16.6 -11.1 -2.4 -2.9 -5.7 -6.8 -7.4 -8.5 -8.8 -9.1 -10.6 -20.8 -5.6 -36.3 1.6 -5.2 3.3 -11.5 3.7 -14 1.3 -8.6 7.6 -18.4 13.7 -21.3 1.8 -0.9 7.5 -2.3 12.7 -3.1 5.2 -0.9 15.1 -3.1 22 -5 17.8 -5 27.1 -6.6 38.5 -6.6 9.1 0 10.5 0.3 15.5 2.9 4.4 2.3 6.5 2.8 10.5 2.5 2.8 -0.1 11.5 -0.5 19.5 -0.8 8 -0.4 21.5 -1.1 30 -1.7 16.2 -1.1 30.1 -1.4 53.3 -1.1 11.4 0.2 13.7 0.4 13.7 1.7 0 1.2 -2 1.5 -11.7 1.5 -6.5 0 -17.5 -0.5 -24.4 -1 -10.6 -0.8 -15.2 -0.6 -29 1.1 -9 1.1 -21.3 2.5 -27.4 3 -6 0.5 -13.5 1.3 -16.5 1.7 l-5.5 0.9 3 1.2 c2 0.9 5.1 1 9.5 0.6 9.3 -1.1 14.7 -1.3 41 -2 12.9 -0.4 26.2 -1.1 29.5 -1.6 3.3 -0.5 8 -0.9 10.5 -0.8 8.1 0.1 -12.1 3.8 -27 4.9 -7.4 0.6 -19.6 1.7 -27 2.5 -7.4 0.8 -14.6 1.5 -15.9 1.5 -4.3 0 -1.2 1.5 5.7 2.6 l6.7 1.2 -5.8 0.1 c-3.2 0 -7.9 -0.4 -10.4 -1.1 -3.9 -0.9 -6.8 -0.7 -19 1.3 -14.7 2.4 -17.4 2.2 -18 -1.2 -0.5 -2.5 1.4 -4.1 5.3 -4.5 2.2 -0.2 5.5 -0.7 7.4 -1 l3.5 -0.6 -2.8 -1.5 c-2.6 -1.3 -4.2 -1.3 -16 0.7 -7.3 1.1 -16.8 2.9 -21.1 4 -8.7 2 -10.2 1.8 -11.2 -1.3 -1.2 -3.8 2.3 -5.3 17.3 -7.2 22 -2.7 22.9 -3.2 8.7 -4.6 -11.6 -1.2 -17.7 -0.1 -39.2 7 -9.7 3.2 -19.9 6.2 -22.6 6.6 -6.7 0.9 -4.1 2.4 4.4 2.6 3.6 0 10.8 0.7 16 1.4 13.6 2 71.6 3.9 87.8 2.8 7.2 -0.4 13.2 -0.5 13.2 -0.1 0 1.3 3.5 0.9 4.9 -0.4 0.9 -0.8 1.2 -0.9 0.7 -0.1 -0.4 0.7 1.1 1.3 4.6 1.8 2.9 0.4 8 1.4 11.3 2.2 8.3 2.1 21.4 2.1 53.2 0 15 -1 28 -1.6 29 -1.4 1 0.3 0.2 0.5 -1.7 0.6 -1.9 0.1 -12.7 1.2 -24 2.6 -11.3 1.4 -22.3 2.8 -24.5 3 -11.8 1.5 -15.1 3.5 -5.8 3.6 6.3 0 36.6 0.7 37.2 0.8 0.2 0.1 -0.2 0.7 -0.8 1.5 -1 1.2 -5.3 1.4 -24.4 1.3 -23.3 -0.3 -43.3 1 -51.7 3.3 -2.5 0.6 -8.1 2.5 -12.5 4.2 -12.6 4.7 -17.2 6.3 -29.7 10.3 -9.7 3.1 -12 3.6 -13.3 2.5 -1.8 -1.5 -2 -4.6 -0.2 -5.7 2.2 -1.4 15.1 -5.3 20 -5.9 2.6 -0.4 4.7 -1.2 4.6 -1.8 -0.3 -2.6 0.3 -3.5 3.4 -5.4 2.9 -1.8 21.3 -5.9 34.7 -7.8 l5.5 -0.7 -6 -1.3 c-3.3 -0.8 -7.1 -1.6 -8.5 -1.9 -11.5 -2.4 -42.4 2.3 -62.6 9.7 -9.3 3.3 -11.8 2.9 -11.2 -2.1 0.3 -2.3 1.2 -2.9 9.3 -5.3 5 -1.4 11.4 -2.9 14.3 -3.3 9.8 -1.3 6 -2 -8.1 -1.4 -7.8 0.3 -23 0.4 -33.7 0.2 -39.1 -0.7 -43.7 -0.6 -46.5 1.3 -3.2 2.1 -5.5 6.4 -5.5 10.2 0 3.8 3.4 13.5 6 17.1 1.1 1.6 2 3.2 2 3.6 0 0.4 2.5 4.5 5.5 9.1 3.1 4.6 6.4 10.3 7.4 12.7 1 2.3 3.1 5.3 4.6 6.7 2.5 2.3 2.3 1.6 -1.9 -6.8 -4.8 -9.3 -5.2 -12.4 -2 -13.6 1.9 -0.7 5.4 1 5.4 2.7 0 2 8.7 19.4 10.7 21.4 1 1 2.7 2.9 3.8 4.3 3.3 4.1 16.6 14.2 20.4 15.6 8.4 3 15.8 1.2 21.4 -5.1 6.5 -7.4 7.8 -18.7 3.3 -27.8 -4.7 -9.6 -16.2 -26.2 -21.1 -30.4 -10.6 -9 -24.4 -15.1 -38.6 -16.8 -10.3 -1.3 -12.8 1.1 -10.3 9.5 1.1 3.8 1.2 5.6 0.5 6.3 -1.4 1.4 -2.5 0.2 -4 -4.2 -1.9 -5.8 -1.4 -9.9 1.5 -12.6 3.4 -3.2 6.4 -3.2 21.2 0.1 21.7 4.8 35.2 13.9 46.7 31.2 5.4 8.3 6 8.8 7 6.8 0.8 -1.7 2.3 -2.2 7.3 -2.8 3.5 -0.4 10 -1.6 14.5 -2.8 4.5 -1.2 11.4 -2.3 15.2 -2.5 3.9 -0.3 16 -0.9 27 -1.4 22.1 -1.1 28.1 -1.7 41 -4 10.4 -1.9 11.5 -2 11.5 -1.2 0 0.4 -5.8 2.1 -13 3.6 -7.1 1.6 -13 3.1 -13 3.5 0 0.8 16.7 -1.3 28.2 -3.5 4.4 -0.8 9.7 -1.4 11.7 -1.4 2.7 0.1 1.8 0.5 -3.4 1.4 -3.8 0.7 -10.6 2.2 -15 3.3 -4.4 1.2 -13.9 3.1 -21.1 4.2 -7.2 1.1 -18.4 3.4 -25 5.1 -6.5 1.7 -15.7 4.2 -20.4 5.4 -4.8 1.3 -13.1 2.5 -19.1 2.8 -10.4 0.5 -10.8 0.5 -13 -1.9 -1.6 -1.7 -3.3 -2.4 -6.1 -2.4 -2.2 0 -4.8 -0.5 -5.9 -1.1 -1.8 -0.9 -1.7 -0.5 0.7 4.3 2.4 4.8 2.8 5.1 3.5 3 0.9 -2.3 5.2 -3.1 6.4 -1.1 2.6 4.2 27.3 7 60.3 7 22.2 -0.1 24.2 -0.2 48.4 -2.7 8.1 -0.9 15.3 -1.4 15.9 -1.2 1.7 0.6 -22.8 4.7 -41.4 6.9 -20.7 2.5 -55.8 3.5 -69.4 2 -11 -1.2 -14.4 -2.3 -18.3 -5.8 l-2.5 -2.2 0.3 7.2 c0.3 4.9 -0.1 8.4 -1.1 10.8 -1.4 3.4 -1.3 3.6 0.7 4.5 1.1 0.5 2.3 2 2.4 3.4 0.8 5.6 7.7 10 15.8 10 4.2 0 5.6 0.4 6.8 2.1 l1.4 2.1 2.2 -2.2 c1.2 -1.2 2.8 -1.9 3.7 -1.6 0.8 0.3 5.1 1.7 9.6 3 4.5 1.3 12 4.4 16.7 6.9 4.7 2.4 12.5 5.7 17.4 7.3 13 4.2 14.3 7.8 6 15.7 l-3.8 3.6 2.5 2 c4.3 3.6 28.2 14.9 35 16.5 3.9 1 10.8 1.6 17.1 1.6 8.8 0 10.7 0.3 11.2 1.6 0.3 0.9 0.3 2.1 0 2.6 -0.9 1.5 -25.3 0.3 -32.4 -1.6 -11 -2.8 -24.3 -8.4 -35.2 -14.8 l-4.7 -2.7 -3 3.6 c-1.7 2 -2.8 4 -2.6 4.4 0.5 0.7 10.7 3.9 16.6 5.3 5.6 1.3 5.4 2.6 -8.8 45.9 -3 9.3 -5.2 17.1 -4.9 17.4 1.9 2 28.4 3.8 54.6 3.8 23.1 0 30.2 -1.4 37 -7.2 2.8 -2.4 4.5 -3.2 5.1 -2.6 2.4 2.4 -5.6 8.7 -13.6 10.8 -3.2 0.9 -78.9 0.7 -81.7 -0.1 -1.6 -0.5 -1.8 0.2 -1.8 5.3 0 4.9 2.2 16.9 4.6 25.1 0.5 1.9 0.3 2.2 -1.9 2.2 -2.2 0 -2.7 -0.6 -3.7 -5.2 -0.7 -2.9 -1.4 -10.3 -1.7 -16.5 l-0.6 -11.2 -4.6 -0.6 c-15.2 -2.1 -40.6 -10.6 -49 -16.5 -3.1 -2.2 -8.5 -7.1 -12 -11 -3.6 -3.8 -6.9 -7 -7.4 -7 -1.3 0 -11.6 6.4 -11.7 7.2 0 0.3 1.6 2.5 3.5 4.8 5.5 6.6 9.2 15.4 13.4 32.5 2.2 8.8 4.3 17.7 4.6 19.8 0.7 3.5 0.6 3.7 -1.8 3.7 -2.2 0 -2.7 -0.8 -4.6 -6.9z m73 -41.8 c1.5 -6 4.8 -18.8 7.3 -28.6 2.5 -9.9 4.6 -18.1 4.6 -18.3 0 -0.2 -0.7 -0.4 -1.6 -0.4 -0.9 0 -4.7 -1.1 -8.5 -2.5 -4.4 -1.6 -7.9 -2.2 -9.8 -1.9 -2.2 0.5 -3.4 0.1 -4.8 -1.5 -1 -1.3 -5.6 -3.4 -10.8 -5.1 -8.5 -2.7 -18.5 -6.7 -23 -9.2 -1.1 -0.6 -3.7 -2.1 -5.9 -3.2 -3.8 -2.1 -11.6 -10.8 -11.6 -13 0 -1.9 2.2 -3.6 4.6 -3.6 1.4 0 3 1.4 4.8 4 2.8 4.3 9.1 8.6 20.6 14.2 8.8 4.3 19.9 8.8 21.4 8.8 0.6 0 2.8 -2.5 4.9 -5.4 2.1 -2.9 5.9 -7.3 8.3 -9.7 2.4 -2.4 4.4 -4.6 4.4 -5 0 -0.3 -1.4 -0.9 -3.2 -1.3 -3.5 -0.7 -19.5 -8 -21.8 -10 -2.7 -2.3 -15.1 -6.1 -15.8 -4.9 -0.4 0.6 -7.2 1.8 -15.2 2.7 -25.2 2.8 -30 3.6 -36.3 6 -9.3 3.5 -19.4 8.6 -21.2 10.6 -1.8 2 -1.7 2.1 5.5 3.5 9.3 1.9 20.1 10.9 24 20 1.7 3.9 2.1 6.3 1.7 10.8 -0.5 6.1 -1.9 8.7 -4.6 8.7 -3 0 -4.1 -2.3 -4.1 -8.1 0 -9.3 -2.2 -13.1 -10.8 -19.1 -4.5 -3.1 -13.1 -5.7 -19.1 -5.8 -4 0 -10.1 5.2 -10.1 8.7 0 4.4 4.7 15 10.1 22.8 5.8 8.4 14 14.9 20.4 16.1 6.4 1.2 24.9 -10.9 28 -18.3 2.2 -5.3 7.5 -3.9 7.5 1.9 0 2.1 -1.3 4.1 -4.7 7.5 l-4.8 4.7 8 7.9 c12.3 12.2 12.9 12.6 35.5 21.4 6.3 2.4 22.1 6.4 22.9 5.7 0.2 -0.2 1.6 -5.2 3.2 -11.1z m-72 -98.9 l8.6 -1.6 -4.9 -4.6 c-2.8 -2.6 -5.2 -5.8 -5.5 -7.4 l-0.5 -2.8 -4.1 3.6 c-2.3 1.9 -5.1 3.7 -6.4 4 l-2.2 0.6 2 2.1 c1.1 1.2 2.3 3.4 2.6 5 0.3 1.5 0.8 2.7 1.2 2.7 0.3 0 4.5 -0.7 9.2 -1.6z m-61.5 -25.7 c-1 -0.7 -4.7 -3.5 -8.1 -6.4 -5.2 -4.3 -6.6 -6.2 -8.5 -11.4 -1.3 -3.4 -3.3 -7.3 -4.5 -8.8 -1.2 -1.4 -3.6 -5.1 -5.3 -8.1 -1.8 -3 -3.2 -5 -3.2 -4.3 0 0.6 0.9 2.8 2.1 4.7 1.1 1.9 3.1 6.5 4.5 10.2 3.3 9.1 7.8 15 16.7 21.7 2.7 2.1 5.6 3.7 6.5 3.6 1.5 0 1.4 -0.2 -0.2 -1.2z m-33.3 -26.9 c-1.7 -2.9 -3.5 -6.6 -4.1 -8.3 -1 -2.9 -1 -2.9 -1.1 -0.5 -0.1 2.8 3.2 10.6 5.6 13.2 2.8 3.2 2.6 1.1 -0.4 -4.4z m145.2 -7.1 c5.5 -1.4 11.1 -2.7 12.5 -3 1.4 -0.2 0.2 -0.5 -2.6 -0.6 -2.8 0 -7.5 0.3 -10.5 0.8 -3 0.5 -7.9 1.2 -10.9 1.5 -6.6 0.6 -13.7 2.3 -15.9 3.7 -3.1 2 17.1 0.2 27.4 -2.4z"/>
  <path d="M299.3 98.3 c0.9 -0.2 2.5 -0.2 3.5 0 0.9 0.3 0.1 0.5 -1.8 0.5 -1.9 0 -2.7 -0.2 -1.7 -0.5z"/>
  <path d="M238 75.8 c0 -0.4 2.4 -0.7 5.3 -0.7 5.4 0.1 4.9 0.5 -1.5 1.1 -2.1 0.2 -3.8 0 -3.8 -0.4z"/>
  <path d="M263 75 l-3.5 -0.7 4 -0.1 c2.2 0 4.9 0.3 6 0.8 1.8 0.8 1.8 0.9 -0.5 0.8 -1.4 0 -4.1 -0.4 -6 -0.8z"/>
  <path d="M298.3 73.3 c1.5 -0.2 3.7 -0.2 5 0 1.2 0.2 0 0.4 -2.8 0.4 -2.7 0 -3.8 -0.2 -2.2 -0.4z"/>
  <path d="M317.3 71.3 c1.5 -0.2 3.7 -0.2 5 0 1.2 0.2 0 0.4 -2.8 0.4 -2.7 0 -3.8 -0.2 -2.2 -0.4z"/>
  <path d="M327 71.3 c0 -0.5 3.5 -1 7.8 -1.2 12.3 -0.4 22.2 -3.2 25 -7.2 2 -2.8 3.7 -1 2.2 2.3 -1.8 3.8 -10.1 6.1 -23.7 6.6 -6.5 0.2 -11.3 0 -11.3 -0.5z"/>
  <path d="M300 69.6 c7.6 -1.5 14 -3.7 14 -4.8 0 -0.4 0.5 -0.8 1 -0.8 0.6 0 1 0.4 1 0.9 0 1.9 -8.7 5 -15.5 5.5 l-7 0.5 6.5 -1.3z"/>
  <path d="M273.5 48.5 c2.3 -0.8 17.5 -1.1 17.5 -0.3 0 0.4 -4.2 0.8 -9.2 0.7 -5.1 0 -8.8 -0.2 -8.3 -0.4z"/>
  <path d="M292.8 47.8 c1.3 -1.2 33.2 -2.2 33.2 -0.9 0 1.1 -3.8 1.4 -23.7 1.5 -5.6 0.1 -9.9 -0.2 -9.5 -0.6z"/>
  <path d="M176.8 44.4 c-0.2 -0.2 -1.8 -0.4 -3.6 -0.6 -1.8 -0.1 -3.2 -0.6 -3.2 -1.1 0 -0.5 0.8 -0.6 1.8 -0.2 0.9 0.4 13.9 1.1 28.7 1.5 l27 0.7 -25.2 0.1 c-13.8 0 -25.3 -0.2 -25.5 -0.4z"/>
  <path d="M230.7 44.3 c1.8 -0.2 5 -0.2 7 0 2.1 0.2 0.7 0.4 -3.2 0.4 -3.8 0 -5.5 -0.2 -3.8 -0.4z"/>
  <path d="M271 31.6 c0 -2.2 -0.5 -2.5 -5.2 -3 -10.8 -1.2 -11.1 -1.3 -2.3 -1.2 l9 0.1 0.3 3.3 c0.2 1.8 -0.1 3.2 -0.7 3.2 -0.6 0 -1.1 -1.1 -1.1 -2.4z"/>
  <path d="M248.3 28.3 c0.9 -0.2 2.5 -0.2 3.5 0 0.9 0.3 0.1 0.5 -1.8 0.5 -1.9 0 -2.7 -0.2 -1.7 -0.5z"/>
 </g>
</svg>