<?xml version="1.0" encoding="UTF-8" standalone="no"?>
<svg
   xmlns:dc="http://purl.org/dc/elements/1.1/"
   xmlns:cc="http://creativecommons.org/ns#"
   xmlns:rdf="http://www.w3.org/1999/02/22-rdf-syntax-ns#"
   xmlns:svg="http://www.w3.org/2000/svg"
   xmlns="http://www.w3.org/2000/svg"
   xmlns:sodipodi="http://sodipodi.sourceforge.net/DTD/sodipodi-0.dtd"
   xmlns:inkscape="http://www.inkscape.org/namespaces/inkscape"
   width="500"
   height="500"
   viewBox="0 0 132.29167 132.29167"
   version="1.1"
   id="svg8"
   inkscape:version="1.0.1 (0767f8302a, 2020-10-17)"
   sodipodi:docname="logo_fesle_na_stopke.svg"
   inkscape:export-filename="/home/tmoranski/Pulpit/LOGO_FESLE na stopke.png"
   inkscape:export-xdpi="97"
   inkscape:export-ydpi="97">
  <defs
     id="defs2">
    <inkscape:perspective
       sodipodi:type="inkscape:persp3d"
       inkscape:vp_x="0 : -16.208337 : 1"
       inkscape:vp_y="0 : 999.99999 : 0"
       inkscape:vp_z="210.00001 : -16.208337 : 1"
       inkscape:persp3d-origin="105 : -65.708339 : 1"
       id="perspective1034" />
  </defs>
  <sodipodi:namedview
     id="base"
     pagecolor="#ffffff"
     bordercolor="#666666"
     borderopacity="1.0"
     inkscape:pageopacity="0.0"
     inkscape:pageshadow="2"
     inkscape:zoom="0.5"
     inkscape:cx="-28.814175"
     inkscape:cy="182.73592"
     inkscape:document-units="mm"
     inkscape:current-layer="layer1"
     inkscape:document-rotation="0"
     showgrid="false"
     inkscape:window-width="1853"
     inkscape:window-height="1145"
     inkscape:window-x="1987"
     inkscape:window-y="27"
     inkscape:window-maximized="1"
     fit-margin-top="0"
     fit-margin-left="0"
     fit-margin-right="0"
     fit-margin-bottom="0"
     units="px" />
  <metadata
     id="metadata5">
    <rdf:RDF>
      <cc:Work
         rdf:about="">
        <dc:format>image/svg+xml</dc:format>
        <dc:type
           rdf:resource="http://purl.org/dc/dcmitype/StillImage" />
        <dc:title></dc:title>
      </cc:Work>
    </rdf:RDF>
  </metadata>
  <g
     inkscape:label="Warstwa 1"
     inkscape:groupmode="layer"
     id="layer1"
     transform="translate(-194.82594,97.904492)">
    <g
       aria-label="FESLE"
       id="g1314"
       style="font-style:normal;font-weight:normal;font-size:10.5833px;line-height:1.25;font-family:sans-serif;fill:#ffffff;fill-opacity:1;stroke:none;stroke-width:0.264583"
       transform="translate(26.700787,12.239258)" />
    <path
       id="path1636"
       style="font-style:normal;font-weight:bold;font-size:10.5833px;line-height:1.25;font-family:sans-serif;fill:#fc7c24;fill-opacity:1;stroke:none;stroke-width:0.897545"
       d="m 240.90506,-77.972775 -0.003,0.0013 c -2.3722,0.03714 -7.91645,4.616491 -10.84744,9.273864 -1.38518,2.200961 -3.08517,5.824364 -3.86357,8.229934 l -0.40682,1.253744 -1.09768,0.564183 c -0.60344,0.310127 -2.0953,0.936624 -3.3173,1.390636 -4.0715,1.512723 -5.41831,2.283639 -6.673,3.823919 -1.65053,2.026152 -2.39299,4.033578 -3.43756,9.28154 -0.39983,2.008623 -0.8953,4.118042 -1.10021,4.687466 -0.53827,1.494999 -0.53915,1.495483 -0.43882,2.030301 0.17107,0.911533 1.70316,2.355892 3.43373,3.232869 0.9489,0.480822 3.07809,1.035137 4.50451,1.175704 1.18873,0.117107 1.16352,0.07504 0.81367,1.452041 -0.35553,1.399706 -0.43756,5.271139 -0.14463,6.823949 0.63433,3.358995 2.25638,6.481979 4.58638,8.833772 1.36069,1.373375 2.59129,2.264834 4.3382,3.139479 l 1.32668,0.665254 0.47079,1.047773 c 0.74166,1.6587832 0.82825,2.3473833 0.47592,3.7407624 -0.40056,1.5839364 -1.02257,3.1070341 -2.16209,5.28747 -1.70622,3.2643972 -4.16987,6.7152114 -5.61762,7.8678767 -0.71387,0.568457 -0.98586,0.6736477 -3.51431,1.3842355 -0.94954,0.2666784 -1.80393,0.934278 -2.09809,1.6388191 -0.23791,0.5686882 -0.14192,0.8711339 0.3646,1.1309342 1.13679,0.5831351 4.70396,0.7916481 6.07171,0.3543701 3.20405,-1.0245703 4.72006,-2.7229982 8.54081,-9.56811108 0.84453,-1.51299788 2.63687,-3.97615532 2.89383,-3.97615532 0.0614,0 0.095,0.1812177 0.0704,0.4017071 -0.0249,0.2205802 -0.11656,1.1514806 -0.20844,2.06739657 -0.4145,4.13555913 -1.6926,7.41625083 -3.68322,9.45681163 l -0.74583,0.7650419 h -0.9838 c -1.28488,0 -2.38064,0.4136428 -3.31222,1.2511782 -0.76844,0.690934 -1.33177,1.655447 -1.33177,2.28233 0,0.466856 0.66954,1.062086 1.42902,1.272935 1.40409,0.389939 4.20884,0.07625 7.90754,-0.886579 1.96924,-0.512656 2.32262,-0.795294 2.67635,-2.119852 0.79058,-2.9595966 1.6115,-4.8429605 4.18982,-9.6256814 0.97178,-1.80247524 2.1583,-4.0955198 2.63543,-5.0930121 l 0.86737,-1.8128132 0.53861,0.2226117 c 0.4718,0.1827039 0.96285,0.2812163 1.46738,0.3185522 l -4.50581,-38.9300272 c -0.0411,-4.21e-4 -0.0721,-0.0013 -0.11513,-0.0013 l -3.79578,-0.01931 -0.37358,-0.83284 c -0.22182,-0.493996 -0.49322,-1.57222 -0.66525,-2.640539 -0.15968,-0.99272 -0.36608,-2.264492 -0.45672,-2.826046 -0.20176,-1.251168 -0.63406,-2.47003 -1.0951,-3.088301 -0.19064,-0.255339 -0.3467,-0.497577 -0.3467,-0.534761 0,-0.142349 2.23367,-2.207356 5.1186,-4.734801 4.25553,-3.728283 5.95685,-5.64641 7.40476,-8.345075 1.04723,-1.951831 1.93125,-5.293694 1.71174,-6.464456 -0.13745,-0.732676 -0.75719,-1.117369 -1.79999,-1.118133 -1.4968,-9.31e-4 -2.81797,0.740598 -4.90497,2.758235 -1.18508,1.145634 -1.2672,1.202329 -0.99916,0.667811 0.16091,-0.320747 0.50563,-1.172664 0.76761,-1.894688 0.4301,-1.185962 0.47696,-1.47903 0.49123,-3.021783 0.0174,-1.457078 -0.0247,-1.745856 -0.24557,-1.968884 -0.19236,-0.193104 -0.46709,-0.279111 -0.80599,-0.273788 z m 39.09635,10.700324 c -2.07777,-0.01733 -4.1499,0.109932 -5.55359,0.390195 -9.47081,1.891674 -17.35141,7.974261 -21.35969,16.486735 -1.11868,2.375833 -1.63609,3.917826 -2.27082,6.771495 -1.85087,2.38977 -6.10264,-11.08629 -5.24782,3.084461 l 3.32373,28.705621 c 0.01,-6.57e-4 0.0174,-4.15e-4 0.0282,-0.0013 0.39101,2.8118461 0.78682,5.6555441 1.25758,8.9105342 16.54778,0.195577 62.09615,0.1695581 62.09615,-0.1228317 0,-0.5067413 -0.97246,-1.5431035 -2.18125,-2.3245442 -1.97097,-1.2741655 -3.73619,-2.0265845 -10.02741,-4.2755226 -3.19823,-1.1432587 -5.81627,-2.1314957 -5.81711,-2.1966117 -6.4e-4,-0.06511 0.31268,-0.267541 0.69595,-0.450325 1.33877,-0.63839 4.94708,-3.539288 6.53354,-5.251647 5.13331,-5.540716 7.89709,-12.600315 7.88964,-20.153291 -0.005,-4.401716 -0.7094,-7.933281 -2.33861,-11.712272 -3.8585,-8.949893 -11.66732,-15.277522 -21.44031,-17.372029 -1.42625,-0.30562 -3.51034,-0.470138 -5.58812,-0.488705 z m -1.30364,7.751467 c 7.84352,-0.05463 15.38449,4.759726 18.72044,12.183057 5.17822,11.522963 -0.8268,24.972489 -12.10246,29.894119 -11.21801,4.89645 -24.38776,0.464604 -31.0097,-9.573234 a 2.3023597,2.3023597 0 0 1 0.65372,-3.190647 2.3023597,2.3023597 0 0 1 3.19065,0.653739 c 5.41426,8.207149 16.26726,11.843603 25.3231,7.890907 9.00116,-3.928849 13.81749,-14.72182 9.74336,-23.787873 -3.43432,-7.642328 -12.68774,-11.723398 -20.3746,-8.136537 -6.28719,2.933729 -9.63189,10.651515 -6.53738,16.956246 2.42346,4.937578 8.60752,7.563049 13.52507,4.970197 3.59636,-1.896242 5.50307,-6.552312 3.43116,-10.07345 -0.66703,-1.13365 -1.87233,-2.074204 -3.11261,-2.457591 -1.2403,-0.383387 -2.39426,-0.283361 -3.44779,0.466957 -0.47079,0.33529 -0.98428,1.086678 -1.12197,1.700226 -0.13762,0.613556 -0.0898,0.87291 0.28274,1.21281 a 2.3023597,2.3023597 0 0 1 0.14973,3.257171 2.3023597,2.3023597 0 0 1 -3.25717,0.145841 c -1.66622,-1.520007 -2.07493,-3.804556 -1.66699,-5.622661 0.40798,-1.818111 1.44284,-3.379075 2.93863,-4.44439 2.29904,-1.637399 5.10675,-1.850031 7.48281,-1.115577 2.37601,0.734457 4.44093,2.341448 5.72501,4.52371 3.53568,6.008887 0.49369,13.443789 -5.25805,16.476499 -7.39476,3.899002 -16.30387,0.125718 -19.8066,-7.010733 -4.30607,-8.773261 0.21067,-19.182376 8.72885,-23.15716 2.53722,-1.18391 5.18559,-1.743445 7.80011,-1.761634 z m -56.66665,9.107546 a 2.1397072,3.6100505 59.111041 0 1 0.002,0 2.1397072,3.6100505 59.111041 0 1 1.66953,0.754811 2.1397072,3.6100505 59.111041 0 1 -1.9996,3.689586 2.1397072,3.6100505 59.111041 0 1 -4.1962,0.01658 2.1397072,3.6100505 59.111041 0 1 1.9996,-3.688309 2.1397072,3.6100505 59.111041 0 1 2.52538,-0.772717 z"
       inkscape:export-xdpi="97"
       inkscape:export-ydpi="97" />
  </g>
</svg>
